<?xml version="1.0" encoding="UTF-8" ?>
<!DOCTYPE svg PUBLIC "-//W3C//DTD SVG 1.1//EN" "http://www.w3.org/Graphics/SVG/1.1/DTD/svg11.dtd">
<svg width="1024pt" height="488pt" viewBox="0 0 1024 488" version="1.1" xmlns="http://www.w3.org/2000/svg">
<g id="#ffffffff">
<path fill="#ffffff" opacity="1.00" d=" M 486.46 23.59 C 483.09 32.01 482.61 41.42 478.44 49.56 C 474.99 52.19 470.57 52.97 466.57 54.44 C 457.13 57.31 448.24 61.71 439.77 66.72 C 436.28 69.20 432.35 66.50 429.36 64.55 C 424.56 61.24 419.41 58.50 414.45 55.46 C 411.00 53.28 405.84 52.54 402.95 56.02 C 396.28 63.00 389.25 69.64 382.85 76.87 C 379.89 77.74 377.89 80.11 377.06 83.02 C 374.81 84.97 372.92 88.27 374.76 91.12 C 379.44 99.51 385.50 107.10 389.96 115.61 C 386.92 119.73 383.01 123.64 381.53 128.63 C 376.83 136.08 375.36 144.92 373.14 153.29 C 372.84 154.94 370.93 155.09 369.67 155.63 C 361.40 157.80 352.79 158.78 344.78 161.90 C 341.34 163.44 341.25 167.74 341.36 170.97 C 341.60 183.12 341.05 195.29 341.65 207.42 C 341.53 211.06 344.89 213.09 347.91 214.10 C 355.95 216.84 364.20 218.93 372.56 220.47 C 375.82 234.77 381.06 248.71 388.75 261.23 C 389.51 262.43 390.25 263.97 389.14 265.23 C 384.78 272.11 379.67 278.53 375.56 285.58 C 373.90 288.36 373.52 292.53 375.99 294.97 C 383.07 303.21 390.92 310.73 398.54 318.47 C 400.51 320.47 402.24 322.78 404.63 324.34 C 407.45 326.14 411.12 325.36 413.80 323.67 C 421.12 318.95 428.93 315.06 436.20 310.27 C 449.85 318.24 464.18 325.45 479.53 329.48 C 482.56 337.26 483.71 345.69 486.61 353.53 C 487.75 356.41 491.17 357.11 493.94 357.09 C 506.30 357.19 518.67 357.09 531.03 357.14 C 533.95 357.07 537.46 356.95 539.39 354.39 C 541.09 351.90 541.31 348.77 541.85 345.89 C 543.94 340.69 543.66 334.65 546.87 329.90 C 549.50 328.07 552.89 327.87 555.88 326.82 C 568.20 323.39 579.20 316.68 590.08 310.15 C 593.75 313.65 598.64 315.37 602.80 318.18 C 606.66 320.35 610.07 323.36 614.27 324.88 C 617.72 326.16 621.22 324.01 623.44 321.47 C 630.45 313.80 637.77 306.44 644.99 298.98 C 647.34 296.57 650.59 294.48 651.03 290.84 C 651.60 287.09 649.05 283.95 647.02 281.09 C 642.89 275.52 639.73 269.29 635.22 264.01 C 641.46 255.67 646.46 246.15 649.03 236.06 C 649.78 234.61 650.57 233.09 650.46 231.40 C 652.02 228.01 652.42 224.25 653.81 220.81 C 662.34 217.50 671.96 217.29 680.33 213.36 C 682.78 212.22 683.84 209.61 683.61 207.01 C 683.54 194.01 683.72 180.99 683.51 167.99 C 683.77 164.54 680.62 162.17 677.65 161.29 C 671.43 159.61 665.10 158.33 658.74 157.35 C 656.12 156.77 652.51 156.25 652.03 153.01 C 649.05 142.96 645.16 133.15 640.22 123.90 C 638.52 120.68 635.92 118.04 634.22 114.84 C 634.90 111.54 637.56 109.09 639.24 106.26 C 642.30 101.29 645.67 96.51 648.60 91.47 C 650.55 88.45 648.77 84.79 646.40 82.62 C 641.16 77.45 636.98 71.22 631.11 66.71 C 630.25 64.47 628.32 62.97 626.72 61.30 C 623.96 58.59 621.55 55.32 617.99 53.59 C 615.51 53.11 612.85 53.33 610.67 54.68 C 604.56 58.07 599.04 62.40 593.20 66.21 C 591.55 67.27 589.53 68.56 587.59 67.40 C 578.02 62.39 568.66 56.62 558.14 53.78 C 554.68 52.70 551.02 51.99 547.92 50.05 C 544.27 43.54 544.12 35.74 541.08 28.97 C 540.64 24.30 537.61 18.21 532.06 18.75 C 519.69 18.71 507.33 18.74 494.96 18.74 C 491.50 18.56 487.73 20.17 486.46 23.59 M 766.76 77.71 C 754.60 81.93 742.36 87.02 732.53 95.55 C 719.40 106.17 708.96 120.15 702.97 135.98 C 697.25 150.28 695.52 165.75 694.19 180.98 C 694.33 185.99 694.93 190.99 695.12 196.00 C 697.62 212.70 701.11 229.97 710.94 244.08 C 720.37 259.30 733.94 271.75 749.46 280.57 C 774.89 293.02 804.93 294.76 832.03 287.09 C 852.37 281.75 871.26 269.82 883.78 252.78 C 893.85 240.28 899.63 224.87 902.31 209.16 C 886.65 209.12 870.99 209.06 855.33 209.18 C 852.12 223.68 842.28 236.08 829.78 243.80 C 824.64 246.60 819.02 248.45 813.29 249.53 C 798.93 252.03 783.69 250.87 770.35 244.78 C 763.51 241.30 757.59 236.17 752.72 230.28 C 742.91 217.07 739.57 200.17 740.13 183.99 C 739.63 166.54 743.38 148.25 753.90 133.99 C 759.06 126.85 766.95 122.43 774.86 118.94 C 784.63 114.71 795.41 114.34 805.90 114.34 C 821.35 116.02 836.86 123.01 846.20 135.80 C 850.22 141.21 852.68 147.54 855.04 153.80 C 870.67 153.78 886.30 153.97 901.93 153.70 C 900.74 145.77 898.66 137.97 895.57 130.57 C 892.21 121.37 886.16 113.50 880.12 105.91 C 869.19 94.21 855.49 85.03 840.36 79.72 C 830.92 76.18 820.89 74.71 810.96 73.35 C 805.32 72.90 799.65 73.29 794.01 73.14 C 784.71 72.71 775.59 75.11 766.76 77.71 M 107.57 82.93 L 107.78 83.64 C 107.23 90.08 107.63 96.55 107.51 103.01 C 107.49 139.35 107.52 175.70 107.49 212.04 C 107.56 212.83 107.68 214.40 107.75 215.19 L 107.73 215.79 C 107.31 231.64 107.42 247.54 107.67 263.40 C 107.06 270.26 107.60 277.19 107.42 284.08 L 108.17 284.58 C 121.77 284.78 135.38 284.59 148.99 284.65 C 149.18 276.92 149.58 269.14 149.03 261.43 C 149.57 252.30 149.16 243.14 149.31 234.00 C 149.22 204.53 149.54 175.05 149.16 145.59 C 149.47 143.67 149.26 141.72 149.34 139.80 C 154.49 156.71 159.89 173.58 164.29 190.71 C 168.38 202.68 171.07 215.07 174.92 227.13 C 180.32 246.33 185.94 265.47 191.55 284.60 C 206.29 284.73 221.04 284.57 235.78 284.68 C 240.84 266.20 246.43 247.88 251.56 229.43 C 260.07 201.54 267.36 173.28 276.56 145.60 C 277.54 142.89 278.09 139.97 279.77 137.58 C 279.98 142.72 279.69 147.86 279.72 153.01 C 280.40 196.90 279.84 240.80 280.11 284.70 C 294.04 284.61 307.98 284.63 321.91 284.68 C 322.20 217.49 321.97 150.29 322.03 83.09 C 299.43 83.00 276.83 83.04 254.23 83.07 C 253.07 87.53 251.53 91.87 250.22 96.29 C 243.22 121.77 235.42 147.03 228.79 172.62 C 224.40 190.23 219.07 207.59 214.48 225.16 C 201.91 177.81 189.55 130.40 176.54 83.17 C 153.56 82.80 130.56 83.27 107.57 82.93 M 557.92 374.99 C 552.54 375.10 547.69 377.60 543.01 379.98 C 539.12 381.99 536.79 385.78 533.55 388.57 C 529.07 392.77 527.60 398.98 525.72 404.59 C 523.69 414.92 524.30 426.23 529.39 435.62 C 530.56 438.00 531.55 440.61 533.71 442.31 C 537.23 445.12 539.85 449.02 543.88 451.18 C 548.91 454.00 554.53 455.55 560.20 456.50 C 571.08 458.65 582.58 455.76 591.79 449.77 C 595.72 446.45 599.01 442.43 602.60 438.75 C 598.52 435.17 593.54 432.89 589.03 429.94 C 586.87 432.50 584.15 434.49 581.70 436.76 C 575.02 441.73 565.86 442.55 558.09 439.95 C 553.39 438.51 549.89 434.83 546.75 431.24 C 541.32 424.36 540.74 414.67 543.32 406.54 C 544.24 401.51 549.05 398.82 551.98 395.02 C 553.10 393.20 555.22 392.74 557.09 392.04 C 564.80 388.90 574.06 389.41 581.12 393.94 C 583.82 396.16 585.91 399.30 589.01 400.93 C 593.67 398.76 597.75 395.61 601.93 392.67 C 597.31 387.79 594.08 381.08 587.53 378.50 C 578.52 373.82 567.79 373.06 557.92 374.99 M 719.02 374.58 C 714.18 374.56 709.80 376.78 705.42 378.53 C 701.11 380.15 698.17 383.82 694.86 386.83 C 690.64 390.67 688.65 396.15 686.11 401.11 C 683.38 408.31 683.75 416.23 684.64 423.76 C 684.87 429.44 688.54 434.10 690.99 439.02 C 692.99 443.57 697.92 445.39 700.94 449.06 C 703.87 452.26 708.25 453.10 712.08 454.76 C 724.04 458.43 737.65 458.04 748.64 451.64 C 754.27 448.45 758.24 443.19 762.18 438.20 C 757.85 435.27 753.45 431.39 748.37 430.30 C 743.04 436.45 735.51 441.82 727.00 441.29 C 721.40 441.17 715.20 440.13 711.23 435.80 C 709.13 433.55 706.18 432.00 704.87 429.10 C 700.81 421.16 700.48 411.37 704.16 403.23 C 706.07 399.29 710.21 397.26 712.95 393.98 C 718.94 389.47 726.95 389.84 733.97 391.09 C 740.09 392.63 744.39 397.27 749.05 401.15 C 753.14 398.62 757.33 396.14 760.94 392.92 C 759.15 389.80 756.98 386.93 754.83 384.06 C 753.02 381.42 749.85 380.34 747.23 378.74 C 738.75 373.81 728.52 373.50 719.02 374.58 M 109.70 375.19 C 109.62 401.93 109.76 428.67 109.65 455.41 C 115.38 455.41 121.11 455.48 126.83 455.33 C 126.86 438.75 126.68 422.17 126.93 405.60 C 131.28 409.41 133.39 414.87 136.32 419.69 C 140.72 425.39 144.57 431.51 148.14 437.76 C 149.22 439.24 149.44 442.27 151.83 441.93 C 154.63 436.17 158.02 430.72 161.15 425.14 C 166.66 418.91 168.94 410.57 174.78 404.56 C 175.20 421.52 174.89 438.50 174.92 455.47 C 180.27 455.33 185.61 455.56 190.96 455.36 L 191.49 454.72 C 191.62 428.22 191.35 401.70 191.61 375.20 C 185.91 375.30 180.20 375.13 174.51 375.35 C 172.16 378.45 169.69 381.51 168.17 385.13 C 167.26 387.41 165.90 389.47 164.33 391.35 C 158.72 398.30 156.07 407.08 150.65 414.15 C 146.77 409.13 145.09 402.83 141.10 397.90 C 136.26 390.53 132.36 382.57 127.25 375.40 C 121.41 375.06 115.55 375.32 109.70 375.19 M 238.21 375.19 C 234.83 382.97 232.18 391.04 228.88 398.85 C 226.48 403.04 224.71 407.56 223.11 412.12 C 221.52 418.16 218.48 423.67 216.48 429.57 C 212.51 437.87 210.34 446.87 206.86 455.36 C 212.26 455.39 217.66 455.46 223.06 455.39 C 226.07 451.24 226.70 445.64 229.44 441.19 C 240.52 441.14 251.61 441.05 262.70 441.23 C 264.77 445.83 266.18 450.69 268.00 455.40 C 273.96 455.44 279.93 455.40 285.90 455.42 C 281.44 445.10 277.26 434.67 273.99 423.89 C 268.15 411.92 265.08 398.78 259.11 386.86 C 257.65 383.03 256.45 379.09 254.97 375.27 C 249.38 375.27 243.79 375.23 238.21 375.19 M 299.13 375.22 C 299.16 401.93 299.25 428.64 299.13 455.36 C 304.56 455.50 310.01 455.39 315.45 455.43 C 315.70 447.11 315.34 438.77 315.62 430.46 C 316.91 427.77 319.32 425.68 321.01 423.21 C 324.47 428.86 329.42 433.40 332.87 439.05 C 335.97 443.56 340.14 447.23 343.13 451.83 C 344.03 453.03 344.67 454.53 346.00 455.36 C 352.83 455.55 359.67 455.38 366.51 455.40 C 363.69 451.90 361.11 448.22 358.12 444.87 C 354.46 441.10 352.27 436.18 348.37 432.62 C 343.21 425.69 337.66 419.07 332.45 412.18 C 337.62 406.09 343.28 400.39 348.01 393.93 C 352.13 390.06 355.53 385.51 359.20 381.23 C 361.04 379.40 362.91 377.58 364.21 375.32 C 357.60 375.15 350.99 375.27 344.38 375.23 C 341.35 379.53 337.03 382.69 334.10 387.07 C 327.93 394.00 321.92 401.07 315.57 407.83 C 315.42 396.97 315.56 386.11 315.55 375.25 C 310.08 375.23 304.60 375.25 299.13 375.22 M 379.12 375.21 C 379.04 401.93 379.13 428.65 379.07 455.38 C 397.06 455.47 415.05 455.37 433.03 455.44 L 433.61 454.80 C 433.68 450.28 433.67 445.75 433.57 441.22 L 432.97 440.62 C 420.79 440.49 408.61 440.55 396.43 440.62 C 396.50 434.69 396.51 428.77 396.40 422.85 C 407.16 422.45 417.95 422.82 428.72 422.66 C 428.74 417.83 428.70 413.01 428.77 408.18 C 417.98 407.88 407.18 408.38 396.39 407.89 C 396.51 401.98 396.50 396.07 396.40 390.16 C 408.51 389.99 420.63 390.40 432.74 389.92 C 432.70 385.03 432.71 380.15 432.72 375.27 C 414.86 375.17 396.99 375.29 379.12 375.21 M 451.11 375.21 C 451.10 401.92 451.14 428.64 451.09 455.35 C 456.39 455.44 461.69 455.47 466.99 455.38 L 467.57 454.77 C 467.67 445.88 467.52 436.99 467.62 428.10 C 471.60 428.12 475.59 428.07 479.58 428.17 C 483.89 434.37 487.03 441.30 491.68 447.29 C 493.67 449.83 494.77 453.13 497.02 455.38 C 503.15 455.42 509.28 455.44 515.41 455.37 C 511.84 451.08 509.69 445.91 506.73 441.23 C 504.01 435.90 500.05 431.35 497.22 426.07 C 501.52 424.43 505.49 422.06 508.57 418.58 C 510.45 414.57 512.28 410.44 512.98 406.04 C 514.35 398.25 511.33 390.39 506.86 384.12 C 502.26 378.05 494.43 375.40 487.04 375.26 C 475.06 375.19 463.09 375.27 451.11 375.21 M 605.78 375.22 C 609.94 382.68 615.72 389.19 618.82 397.23 C 624.24 403.80 627.46 411.79 632.31 418.75 C 633.70 421.04 635.88 423.14 635.89 426.00 C 635.95 435.79 635.90 445.60 635.90 455.40 C 641.38 455.42 646.87 455.46 652.35 455.38 C 652.34 445.26 652.27 435.13 652.38 425.01 C 652.33 421.87 655.19 419.98 656.45 417.37 C 658.00 414.33 659.57 411.29 661.40 408.40 C 664.33 402.76 668.73 397.99 671.04 392.01 C 674.54 386.47 678.08 380.95 681.22 375.20 C 674.94 375.21 668.66 375.23 662.39 375.23 C 660.89 378.41 659.20 381.49 657.69 384.67 C 655.85 388.63 652.77 391.84 650.78 395.72 C 648.59 399.89 646.69 404.22 644.04 408.14 C 639.15 401.34 636.80 393.04 631.44 386.56 C 628.67 383.15 627.91 378.23 624.72 375.31 C 618.41 375.09 612.09 375.30 605.78 375.22 M 778.17 375.26 C 778.10 401.96 778.17 428.66 778.12 455.35 C 795.72 455.45 813.32 455.46 830.91 455.36 C 830.99 450.43 830.88 445.51 830.94 440.59 C 818.99 440.53 807.04 440.51 795.09 440.61 C 794.59 418.84 795.06 397.04 794.87 375.25 C 789.30 375.24 783.73 375.19 778.17 375.26 M 846.01 375.20 C 845.74 401.93 846.04 428.67 845.85 455.40 C 863.67 455.43 881.50 455.43 899.32 455.37 C 899.28 450.90 899.35 446.43 899.34 441.97 C 899.75 439.94 897.11 440.64 896.01 440.51 C 884.85 440.54 873.69 440.61 862.53 440.48 C 862.51 434.55 862.51 428.62 862.61 422.69 C 873.12 422.70 883.63 422.64 894.15 422.72 C 894.27 417.84 894.18 412.97 894.19 408.10 C 883.60 407.98 873.00 408.35 862.42 407.89 C 862.57 401.97 862.60 396.04 862.47 390.12 C 874.43 390.16 886.39 390.11 898.35 390.14 C 898.33 385.16 898.39 380.18 898.27 375.21 C 880.85 375.25 863.43 375.25 846.01 375.20 Z" />
<path fill="#ffffff" opacity="1.00" d=" M 502.04 94.11 C 507.61 90.95 514.83 90.36 520.52 93.55 C 528.29 98.05 535.82 102.95 543.64 107.37 C 551.38 111.48 558.44 116.71 566.13 120.91 C 574.90 125.68 583.07 131.46 591.86 136.20 C 595.66 138.46 599.99 140.67 602.03 144.82 C 603.95 149.28 603.39 154.27 603.46 159.00 C 603.45 183.67 603.41 208.33 603.49 233.00 C 603.39 237.51 603.69 242.40 601.42 246.47 C 597.44 252.45 590.22 254.70 584.39 258.36 C 577.18 262.86 569.64 266.81 562.57 271.52 C 562.12 271.79 561.20 272.33 560.74 272.60 C 553.08 276.40 546.10 281.40 538.58 285.46 C 532.52 288.68 526.79 292.46 520.72 295.65 C 514.93 298.78 507.65 298.19 502.04 294.94 C 497.10 292.18 492.45 288.90 487.30 286.50 C 484.94 285.26 482.63 283.92 480.40 282.47 C 469.69 274.83 457.67 269.36 446.54 262.39 C 440.15 258.37 433.31 255.10 427.08 250.84 C 421.39 246.93 420.48 239.42 420.31 233.06 C 420.33 205.03 420.25 176.99 420.33 148.96 C 420.20 144.82 423.44 141.76 426.68 139.74 C 451.80 124.53 476.83 109.17 502.04 94.11 M 508.01 108.09 C 497.78 113.66 488.19 120.28 478.02 125.96 C 471.17 130.56 463.88 134.44 456.90 138.82 C 451.01 142.64 444.21 144.98 438.88 149.65 C 445.82 153.46 452.44 157.79 459.33 161.70 C 475.05 171.39 491.21 180.34 506.83 190.22 C 509.83 192.49 513.88 191.97 516.84 189.91 C 539.82 176.53 562.84 163.21 585.47 149.26 C 570.51 140.30 555.37 131.66 540.62 122.37 C 531.70 117.81 523.83 111.37 514.63 107.35 C 512.49 106.24 509.97 106.94 508.01 108.09 M 434.80 164.62 C 434.65 187.41 434.79 210.21 434.73 233.01 C 434.86 235.26 434.45 238.02 436.40 239.66 C 439.18 242.06 442.73 243.29 445.81 245.24 C 463.28 255.83 481.25 265.59 498.51 276.50 C 500.36 277.53 502.33 278.32 504.27 279.20 C 504.44 254.49 504.46 229.76 504.27 205.05 C 480.85 192.04 458.07 177.90 434.80 164.62 M 580.17 170.17 C 568.62 176.45 557.58 183.59 546.17 190.11 C 537.09 195.01 528.54 200.83 519.25 205.35 C 518.81 229.91 519.15 254.50 519.12 279.07 C 531.70 273.07 542.98 264.71 555.39 258.40 C 562.01 254.32 568.68 250.34 575.31 246.28 C 580.04 243.69 584.90 241.23 589.10 237.80 C 589.76 236.29 589.53 234.60 589.59 233.01 C 589.39 210.36 589.60 187.70 589.41 165.05 C 586.05 166.23 583.16 168.31 580.17 170.17 Z" />
<path fill="#ffffff" opacity="1.00" d=" M 467.62 390.10 C 474.04 390.24 480.46 389.97 486.88 390.22 C 490.29 391.22 495.00 391.95 495.79 396.14 C 497.18 401.21 497.80 408.58 492.38 411.53 C 484.74 415.53 475.88 413.31 467.65 413.88 C 467.55 405.95 467.57 398.02 467.62 390.10 Z" />
<path fill="#ffffff" opacity="1.00" d=" M 242.86 407.87 C 244.14 404.95 244.58 401.63 246.50 399.02 C 250.50 408.04 253.91 417.27 257.06 426.62 C 249.81 426.52 242.55 426.88 235.31 426.43 C 238.36 420.47 240.37 414.07 242.86 407.87 Z" />
</g>
<g id="#d05f5aff">
<path fill="#d05f5a" opacity="1.00" d=" M 486.46 23.59 C 487.73 20.17 491.50 18.56 494.96 18.74 C 507.33 18.74 519.69 18.71 532.06 18.75 C 537.61 18.21 540.64 24.30 541.08 28.97 C 541.06 29.50 541.03 30.54 541.02 31.07 C 539.29 26.65 537.39 20.65 531.86 20.02 C 522.94 19.23 513.95 19.95 505.01 19.65 C 499.55 19.80 493.32 19.22 488.74 22.73 C 485.75 26.68 485.58 31.91 484.22 36.51 C 482.76 41.51 481.81 46.77 479.42 51.42 C 475.57 53.62 471.08 54.25 466.96 55.78 C 457.30 59.35 447.82 63.58 439.02 68.94 C 436.72 70.44 433.99 69.22 431.82 68.12 C 424.69 64.29 418.69 58.30 410.82 55.91 C 406.94 54.50 403.86 57.92 401.25 60.23 C 396.12 65.45 390.94 70.63 385.87 75.90 C 382.53 79.98 378.33 83.43 375.78 88.09 C 376.87 93.25 380.55 97.28 383.33 101.61 C 385.62 105.27 388.56 108.53 390.51 112.40 C 391.11 113.49 390.38 114.61 389.96 115.61 C 385.50 107.10 379.44 99.51 374.76 91.12 C 372.92 88.27 374.81 84.97 377.06 83.02 C 379.08 81.06 381.04 79.03 382.85 76.87 C 389.25 69.64 396.28 63.00 402.95 56.02 C 405.84 52.54 411.00 53.28 414.45 55.46 C 419.41 58.50 424.56 61.24 429.36 64.55 C 432.35 66.50 436.28 69.20 439.77 66.72 C 448.24 61.71 457.13 57.31 466.57 54.44 C 470.57 52.97 474.99 52.19 478.44 49.56 C 482.61 41.42 483.09 32.01 486.46 23.59 Z" />
<path fill="#d05f5a" opacity="1.00" d=" M 631.11 66.71 C 636.98 71.22 641.16 77.45 646.40 82.62 C 648.77 84.79 650.55 88.45 648.60 91.47 C 645.67 96.51 642.30 101.29 639.24 106.26 C 637.56 109.09 634.90 111.54 634.22 114.84 C 635.92 118.04 638.52 120.68 640.22 123.90 C 645.16 133.15 649.05 142.96 652.03 153.01 C 652.51 156.25 656.12 156.77 658.74 157.35 C 665.10 158.33 671.43 159.61 677.65 161.29 C 680.62 162.17 683.77 164.54 683.51 167.99 C 683.72 180.99 683.54 194.01 683.61 207.01 C 683.84 209.61 682.78 212.22 680.33 213.36 C 671.96 217.29 662.34 217.50 653.81 220.81 C 652.42 224.25 652.02 228.01 650.46 231.40 C 650.50 227.35 650.31 223.02 652.34 219.35 C 661.03 216.42 670.63 216.22 678.93 212.03 C 682.44 210.52 682.46 206.27 682.46 203.02 C 682.28 192.67 682.50 182.32 682.38 171.97 C 682.12 168.88 681.87 164.68 678.42 163.47 C 671.12 160.40 663.13 159.82 655.45 158.26 C 652.35 157.83 650.94 154.75 650.14 152.10 C 646.85 140.66 642.50 129.31 635.49 119.59 C 634.45 117.91 633.04 116.17 633.20 114.08 C 633.55 111.57 635.08 109.45 636.42 107.37 C 639.56 102.83 642.59 98.22 645.64 93.62 C 646.67 91.91 647.88 90.16 648.05 88.11 C 646.20 84.19 642.90 81.21 640.17 77.91 C 637.11 74.20 632.65 71.50 631.11 66.71 Z" />
<path fill="#d05f5a" opacity="1.00" d=" M 503.45 91.61 C 506.73 90.02 510.48 90.22 514.02 90.33 C 519.74 90.48 524.39 94.21 529.09 97.02 C 538.64 103.29 548.95 108.30 558.54 114.52 C 562.67 117.10 566.98 119.37 571.10 121.98 C 574.81 124.34 579.04 125.80 582.56 128.49 C 588.97 133.46 597.38 135.82 602.48 142.44 C 605.22 146.40 604.59 151.45 604.64 156.00 C 604.61 184.67 604.60 213.34 604.64 242.01 C 604.86 245.38 602.49 248.09 600.36 250.40 C 595.96 254.57 590.03 256.49 585.22 260.08 C 581.69 262.76 577.46 264.25 573.79 266.69 C 570.36 268.90 566.77 271.28 562.57 271.52 C 569.64 266.81 577.18 262.86 584.39 258.36 C 590.22 254.70 597.44 252.45 601.42 246.47 C 603.69 242.40 603.39 237.51 603.49 233.00 C 603.41 208.33 603.45 183.67 603.46 159.00 C 603.39 154.27 603.95 149.28 602.03 144.82 C 599.99 140.67 595.66 138.46 591.86 136.20 C 583.07 131.46 574.90 125.68 566.13 120.91 C 558.44 116.71 551.38 111.48 543.64 107.37 C 535.82 102.95 528.29 98.05 520.52 93.55 C 514.83 90.36 507.61 90.95 502.04 94.11 C 476.83 109.17 451.80 124.53 426.68 139.74 C 423.44 141.76 420.20 144.82 420.33 148.96 C 420.25 176.99 420.33 205.03 420.31 233.06 C 420.48 239.42 421.39 246.93 427.08 250.84 C 433.31 255.10 440.15 258.37 446.54 262.39 C 457.67 269.36 469.69 274.83 480.40 282.47 C 478.16 282.72 476.05 282.03 474.28 280.68 C 463.12 273.16 451.12 267.06 439.41 260.50 C 434.49 256.69 428.09 254.94 423.99 250.09 C 421.55 247.26 419.16 243.91 419.38 239.98 C 419.33 209.30 419.42 178.62 419.33 147.94 C 419.49 146.16 419.07 143.93 420.68 142.67 C 424.60 138.79 429.38 135.95 434.16 133.25 C 438.83 130.65 442.96 127.17 447.83 124.91 C 459.52 118.43 470.57 110.89 482.17 104.25 C 489.44 100.33 496.06 95.31 503.45 91.61 Z" />
<path fill="#d05f5a" opacity="1.00" d=" M 381.53 128.63 C 380.78 134.87 377.20 140.31 376.40 146.55 C 375.49 149.96 375.77 154.30 372.90 156.78 C 363.95 159.18 354.13 159.16 345.88 163.76 C 343.48 164.88 342.43 167.40 342.60 169.95 C 342.53 180.64 342.71 191.33 342.55 202.02 C 342.70 204.83 342.38 208.24 344.71 210.30 C 348.46 213.78 353.83 214.11 358.47 215.71 C 363.27 217.36 368.28 218.30 373.34 218.74 C 376.57 230.69 379.78 242.90 386.38 253.53 C 388.09 256.57 390.37 259.51 390.80 263.07 C 391.20 265.48 389.64 267.49 388.29 269.29 C 384.25 274.41 380.97 280.06 377.50 285.57 C 376.66 287.40 374.94 289.56 376.21 291.58 C 379.58 297.71 385.43 301.84 389.82 307.16 C 393.59 311.71 397.99 315.67 402.12 319.87 C 403.90 321.53 405.68 323.40 408.08 324.14 C 410.15 324.00 411.90 322.70 413.67 321.74 C 418.62 318.60 423.98 316.20 428.87 312.97 C 431.38 311.50 433.90 309.65 436.88 309.41 C 441.10 310.79 444.58 313.74 448.64 315.50 C 457.69 319.71 466.70 324.17 476.34 326.87 C 478.28 327.57 480.88 328.02 481.53 330.34 C 484.03 337.97 484.96 346.20 488.65 353.41 C 493.33 355.92 498.87 355.35 504.00 355.44 C 513.01 355.31 522.02 355.44 531.03 355.44 C 533.67 355.30 537.40 355.40 538.46 352.36 C 540.32 347.67 541.08 342.63 542.77 337.87 C 542.47 340.54 542.19 343.22 541.85 345.89 C 541.31 348.77 541.09 351.90 539.39 354.39 C 537.46 356.95 533.95 357.07 531.03 357.14 C 518.67 357.09 506.30 357.19 493.94 357.09 C 491.17 357.11 487.75 356.41 486.61 353.53 C 483.71 345.69 482.56 337.26 479.53 329.48 C 464.18 325.45 449.85 318.24 436.20 310.27 C 428.93 315.06 421.12 318.95 413.80 323.67 C 411.12 325.36 407.45 326.14 404.63 324.34 C 402.24 322.78 400.51 320.47 398.54 318.47 C 390.92 310.73 383.07 303.21 375.99 294.97 C 373.52 292.53 373.90 288.36 375.56 285.58 C 379.67 278.53 384.78 272.11 389.14 265.23 C 390.25 263.97 389.51 262.43 388.75 261.23 C 381.06 248.71 375.82 234.77 372.56 220.47 C 364.20 218.93 355.95 216.84 347.91 214.10 C 344.89 213.09 341.53 211.06 341.65 207.42 C 341.05 195.29 341.60 183.12 341.36 170.97 C 341.25 167.74 341.34 163.44 344.78 161.90 C 352.79 158.78 361.40 157.80 369.67 155.63 C 370.93 155.09 372.84 154.94 373.14 153.29 C 375.36 144.92 376.83 136.08 381.53 128.63 Z" />
<path fill="#d05f5a" opacity="1.00" d=" M 640.81 252.72 C 644.39 246.88 645.80 240.07 648.69 233.91 C 648.78 234.45 648.94 235.52 649.03 236.06 C 646.46 246.15 641.46 255.67 635.22 264.01 C 639.73 269.29 642.89 275.52 647.02 281.09 C 649.05 283.95 651.60 287.09 651.03 290.84 C 650.59 294.48 647.34 296.57 644.99 298.98 C 637.77 306.44 630.45 313.80 623.44 321.47 C 621.22 324.01 617.72 326.16 614.27 324.88 C 610.07 323.36 606.66 320.35 602.80 318.18 C 598.64 315.37 593.75 313.65 590.08 310.15 C 592.52 310.76 594.92 311.63 597.04 313.00 C 601.99 316.11 607.02 319.07 612.04 322.06 C 613.55 322.84 615.08 323.89 616.86 323.93 C 618.97 323.25 620.69 321.77 622.32 320.32 C 626.81 316.13 630.88 311.50 634.79 306.77 C 638.87 301.84 644.41 298.33 648.31 293.24 C 650.49 290.68 648.77 287.16 647.45 284.62 C 643.80 278.69 639.49 273.19 635.72 267.33 C 634.89 265.91 633.77 264.21 634.62 262.54 C 636.16 258.96 638.91 256.10 640.81 252.72 Z" />
<path fill="#d05f5a" opacity="1.00" d=" M 538.58 285.46 C 546.10 281.40 553.08 276.40 560.74 272.60 C 560.68 275.14 558.07 276.01 556.26 277.14 C 545.11 283.31 534.07 289.64 523.02 295.98 C 519.06 298.14 514.50 300.05 509.92 299.00 C 504.00 298.31 499.09 294.71 494.00 291.94 C 491.56 290.41 488.51 289.33 487.30 286.50 C 492.45 288.90 497.10 292.18 502.04 294.94 C 507.65 298.19 514.93 298.78 520.72 295.65 C 526.79 292.46 532.52 288.68 538.58 285.46 Z" />
</g>
<g id="#ef2a1fff">
<path fill="#ef2a1f" opacity="1.00" d=" M 488.74 22.73 C 493.32 19.22 499.55 19.80 505.01 19.65 C 513.95 19.95 522.94 19.23 531.86 20.02 C 537.39 20.65 539.29 26.65 541.02 31.07 C 541.03 30.54 541.06 29.50 541.08 28.97 C 544.12 35.74 544.27 43.54 547.92 50.05 C 551.02 51.99 554.68 52.70 558.14 53.78 C 568.66 56.62 578.02 62.39 587.59 67.40 C 589.53 68.56 591.55 67.27 593.20 66.21 C 599.04 62.40 604.56 58.07 610.67 54.68 C 612.85 53.33 615.51 53.11 617.99 53.59 C 621.55 55.32 623.96 58.59 626.72 61.30 C 628.32 62.97 630.25 64.47 631.11 66.71 C 632.65 71.50 637.11 74.20 640.17 77.91 C 642.90 81.21 646.20 84.19 648.05 88.11 C 647.88 90.16 646.67 91.91 645.64 93.62 C 642.59 98.22 639.56 102.83 636.42 107.37 C 635.08 109.45 633.55 111.57 633.20 114.08 C 633.04 116.17 634.45 117.91 635.49 119.59 C 642.50 129.31 646.85 140.66 650.14 152.10 C 650.94 154.75 652.35 157.83 655.45 158.26 C 663.13 159.82 671.12 160.40 678.42 163.47 C 681.87 164.68 682.12 168.88 682.38 171.97 C 682.50 182.32 682.28 192.67 682.46 203.02 C 682.46 206.27 682.44 210.52 678.93 212.03 C 670.63 216.22 661.03 216.42 652.34 219.35 C 650.31 223.02 650.50 227.35 650.46 231.40 C 650.57 233.09 649.78 234.61 649.03 236.06 C 648.94 235.52 648.78 234.45 648.69 233.91 C 645.80 240.07 644.39 246.88 640.81 252.72 C 638.91 256.10 636.16 258.96 634.62 262.54 C 633.77 264.21 634.89 265.91 635.72 267.33 C 639.49 273.19 643.80 278.69 647.45 284.62 C 648.77 287.16 650.49 290.68 648.31 293.24 C 644.41 298.33 638.87 301.84 634.79 306.77 C 630.88 311.50 626.81 316.13 622.32 320.32 C 620.69 321.77 618.97 323.25 616.86 323.93 C 615.08 323.89 613.55 322.84 612.04 322.06 C 607.02 319.07 601.99 316.11 597.04 313.00 C 594.92 311.63 592.52 310.76 590.08 310.15 C 579.20 316.68 568.20 323.39 555.88 326.82 C 552.89 327.87 549.50 328.07 546.87 329.90 C 543.66 334.65 543.94 340.69 541.85 345.89 C 542.19 343.22 542.47 340.54 542.77 337.87 C 541.08 342.63 540.32 347.67 538.46 352.36 C 537.40 355.40 533.67 355.30 531.03 355.44 C 522.02 355.44 513.01 355.31 504.00 355.44 C 498.87 355.35 493.33 355.92 488.65 353.41 C 484.96 346.20 484.03 337.97 481.53 330.34 C 480.88 328.02 478.28 327.57 476.34 326.87 C 466.70 324.17 457.69 319.71 448.64 315.50 C 444.58 313.74 441.10 310.79 436.88 309.41 C 433.90 309.65 431.38 311.50 428.87 312.97 C 423.98 316.20 418.62 318.60 413.67 321.74 C 411.90 322.70 410.15 324.00 408.08 324.14 C 405.68 323.40 403.90 321.53 402.12 319.87 C 397.99 315.67 393.59 311.71 389.82 307.16 C 385.43 301.84 379.58 297.71 376.21 291.58 C 374.94 289.56 376.66 287.40 377.50 285.57 C 380.97 280.06 384.25 274.41 388.29 269.29 C 389.64 267.49 391.20 265.48 390.80 263.07 C 390.37 259.51 388.09 256.57 386.38 253.53 C 379.78 242.90 376.57 230.69 373.34 218.74 C 368.28 218.30 363.27 217.36 358.47 215.71 C 353.83 214.11 348.46 213.78 344.71 210.30 C 342.38 208.24 342.70 204.83 342.55 202.02 C 342.71 191.33 342.53 180.64 342.60 169.95 C 342.43 167.40 343.48 164.88 345.88 163.76 C 354.13 159.16 363.95 159.18 372.90 156.78 C 375.77 154.30 375.49 149.96 376.40 146.55 C 377.20 140.31 380.78 134.87 381.53 128.63 C 383.01 123.64 386.92 119.73 389.96 115.61 C 390.38 114.61 391.11 113.49 390.51 112.40 C 388.56 108.53 385.62 105.27 383.33 101.61 C 380.55 97.28 376.87 93.25 375.78 88.09 C 378.33 83.43 382.53 79.98 385.87 75.90 C 390.94 70.63 396.12 65.45 401.25 60.23 C 403.86 57.92 406.94 54.50 410.82 55.91 C 418.69 58.30 424.69 64.29 431.82 68.12 C 433.99 69.22 436.72 70.44 439.02 68.94 C 447.82 63.58 457.30 59.35 466.96 55.78 C 471.08 54.25 475.57 53.62 479.42 51.42 C 481.81 46.77 482.76 41.51 484.22 36.51 C 485.58 31.91 485.75 26.68 488.74 22.73 M 503.45 91.61 C 496.06 95.31 489.44 100.33 482.17 104.25 C 470.57 110.89 459.52 118.43 447.83 124.91 C 442.96 127.17 438.83 130.65 434.16 133.25 C 429.38 135.95 424.60 138.79 420.68 142.67 C 419.07 143.93 419.49 146.16 419.33 147.94 C 419.42 178.62 419.33 209.30 419.38 239.98 C 419.16 243.91 421.55 247.26 423.99 250.09 C 428.09 254.94 434.49 256.69 439.41 260.50 C 451.12 267.06 463.12 273.16 474.28 280.68 C 476.05 282.03 478.16 282.72 480.40 282.47 C 482.63 283.92 484.94 285.26 487.30 286.50 C 488.51 289.33 491.56 290.41 494.00 291.94 C 499.09 294.71 504.00 298.31 509.92 299.00 C 514.50 300.05 519.06 298.14 523.02 295.98 C 534.07 289.64 545.11 283.31 556.26 277.14 C 558.07 276.01 560.68 275.14 560.74 272.60 C 561.20 272.33 562.12 271.79 562.57 271.52 C 566.77 271.28 570.36 268.90 573.79 266.69 C 577.46 264.25 581.69 262.76 585.22 260.08 C 590.03 256.49 595.96 254.57 600.36 250.40 C 602.49 248.09 604.86 245.38 604.64 242.01 C 604.60 213.34 604.61 184.67 604.64 156.00 C 604.59 151.45 605.22 146.40 602.48 142.44 C 597.38 135.82 588.97 133.46 582.56 128.49 C 579.04 125.80 574.81 124.34 571.10 121.98 C 566.98 119.37 562.67 117.10 558.54 114.52 C 548.95 108.30 538.64 103.29 529.09 97.02 C 524.39 94.21 519.74 90.48 514.02 90.33 C 510.48 90.22 506.73 90.02 503.45 91.61 Z" />
</g>
<g id="#161616ff">
<path fill="#161616" opacity="1.00" d=" M 766.76 77.71 C 775.59 75.11 784.71 72.71 794.01 73.14 C 799.65 73.29 805.32 72.90 810.96 73.35 C 820.89 74.71 830.92 76.18 840.36 79.72 C 855.49 85.03 869.19 94.21 880.12 105.91 C 886.16 113.50 892.21 121.37 895.57 130.57 C 898.66 137.97 900.74 145.77 901.93 153.70 C 886.30 153.97 870.67 153.78 855.04 153.80 C 852.68 147.54 850.22 141.21 846.20 135.80 C 836.86 123.01 821.35 116.02 805.90 114.34 C 795.41 114.34 784.63 114.71 774.86 118.94 C 766.95 122.43 759.06 126.85 753.90 133.99 C 743.38 148.25 739.63 166.54 740.13 183.99 C 739.57 200.17 742.91 217.07 752.72 230.28 C 757.59 236.17 763.51 241.30 770.35 244.78 C 783.69 250.87 798.93 252.03 813.29 249.53 C 819.02 248.45 824.64 246.60 829.78 243.80 C 842.28 236.08 852.12 223.68 855.33 209.18 C 870.99 209.06 886.65 209.12 902.31 209.16 C 899.63 224.87 893.85 240.28 883.78 252.78 C 871.26 269.82 852.37 281.75 832.03 287.09 C 804.93 294.76 774.89 293.02 749.46 280.57 C 733.94 271.75 720.37 259.30 710.94 244.08 C 701.11 229.97 697.62 212.70 695.12 196.00 C 694.93 190.99 694.33 185.99 694.19 180.98 C 695.52 165.75 697.25 150.28 702.97 135.98 C 708.96 120.15 719.40 106.17 732.53 95.55 C 742.36 87.02 754.60 81.93 766.76 77.71 Z" />
<path fill="#161616" opacity="1.00" d=" M 107.57 82.93 C 130.56 83.27 153.56 82.80 176.54 83.17 C 189.55 130.40 201.91 177.81 214.48 225.16 C 219.07 207.59 224.40 190.23 228.79 172.62 C 235.42 147.03 243.22 121.77 250.22 96.29 C 251.53 91.87 253.07 87.53 254.23 83.07 C 276.83 83.04 299.43 83.00 322.03 83.09 C 321.97 150.29 322.20 217.49 321.91 284.68 C 307.98 284.63 294.04 284.61 280.11 284.70 C 279.84 240.80 280.40 196.90 279.72 153.01 C 279.69 147.86 279.98 142.72 279.77 137.58 C 278.09 139.97 277.54 142.89 276.56 145.60 C 267.36 173.28 260.07 201.54 251.56 229.43 C 246.43 247.88 240.84 266.20 235.78 284.68 C 221.04 284.57 206.29 284.73 191.55 284.60 C 185.94 265.47 180.32 246.33 174.92 227.13 C 171.07 215.07 168.38 202.68 164.29 190.71 C 159.89 173.58 154.49 156.71 149.34 139.80 C 149.26 141.72 149.47 143.67 149.16 145.59 C 148.47 148.33 147.96 151.13 148.04 153.98 C 148.21 185.32 148.03 216.66 148.22 248.00 C 148.33 252.16 147.78 256.41 148.83 260.49 L 149.03 261.43 C 149.58 269.14 149.18 276.92 148.99 284.65 C 135.38 284.59 121.77 284.78 108.17 284.58 L 107.42 284.08 C 107.60 277.19 107.06 270.26 107.67 263.40 C 108.57 260.35 109.08 257.19 108.96 254.01 C 108.82 244.34 108.73 234.67 108.97 225.00 C 109.11 221.88 108.62 218.78 107.73 215.79 L 107.75 215.19 C 109.69 208.96 108.63 202.39 108.88 195.99 C 108.76 164.66 108.93 133.33 108.87 102.00 C 108.65 95.89 109.84 89.54 107.78 83.64 L 107.57 82.93 Z" />
</g>
<g id="#e3d7d5ff">
<path fill="#e3d7d5" opacity="1.00" d=" M 377.06 83.02 C 377.89 80.11 379.89 77.74 382.85 76.87 C 381.04 79.03 379.08 81.06 377.06 83.02 Z" />
</g>
<g id="#010101ff">
<path fill="#010101" opacity="1.00" d=" M 107.78 83.64 C 109.84 89.54 108.65 95.89 108.87 102.00 C 108.93 133.33 108.76 164.66 108.88 195.99 C 108.63 202.39 109.69 208.96 107.75 215.19 C 107.68 214.40 107.56 212.83 107.49 212.04 C 107.52 175.70 107.49 139.35 107.51 103.01 C 107.63 96.55 107.23 90.08 107.78 83.64 Z" />
<path fill="#010101" opacity="1.00" d=" M 508.01 108.09 C 509.97 106.94 512.49 106.24 514.63 107.35 C 523.83 111.37 531.70 117.81 540.62 122.37 C 555.37 131.66 570.51 140.30 585.47 149.26 C 562.84 163.21 539.82 176.53 516.84 189.91 C 513.88 191.97 509.83 192.49 506.83 190.22 C 491.21 180.34 475.05 171.39 459.33 161.70 C 452.44 157.79 445.82 153.46 438.88 149.65 C 444.21 144.98 451.01 142.64 456.90 138.82 C 463.88 134.44 471.17 130.56 478.02 125.96 C 488.19 120.28 497.78 113.66 508.01 108.09 Z" />
<path fill="#010101" opacity="1.00" d=" M 148.04 153.98 C 147.96 151.13 148.47 148.33 149.16 145.59 C 149.54 175.05 149.22 204.53 149.31 234.00 C 149.16 243.14 149.57 252.30 149.03 261.43 L 148.83 260.49 C 147.78 256.41 148.33 252.16 148.22 248.00 C 148.03 216.66 148.21 185.32 148.04 153.98 Z" />
<path fill="#010101" opacity="1.00" d=" M 434.80 164.62 C 458.07 177.90 480.85 192.04 504.27 205.05 C 504.46 229.76 504.44 254.49 504.27 279.20 C 502.33 278.32 500.36 277.53 498.51 276.50 C 481.25 265.59 463.28 255.83 445.81 245.24 C 442.73 243.29 439.18 242.06 436.40 239.66 C 434.45 238.02 434.86 235.26 434.73 233.01 C 434.79 210.21 434.65 187.41 434.80 164.62 Z" />
<path fill="#010101" opacity="1.00" d=" M 580.17 170.17 C 583.16 168.31 586.05 166.23 589.41 165.05 C 589.60 187.70 589.39 210.36 589.59 233.01 C 589.53 234.60 589.76 236.29 589.10 237.80 C 584.90 241.23 580.04 243.69 575.31 246.28 C 568.68 250.34 562.01 254.32 555.39 258.40 C 542.98 264.71 531.70 273.07 519.12 279.07 C 519.15 254.50 518.81 229.91 519.25 205.35 C 528.54 200.83 537.09 195.01 546.17 190.11 C 557.58 183.59 568.62 176.45 580.17 170.17 Z" />
<path fill="#010101" opacity="1.00" d=" M 107.73 215.79 C 108.62 218.78 109.11 221.88 108.97 225.00 C 108.73 234.67 108.82 244.34 108.96 254.01 C 109.08 257.19 108.57 260.35 107.67 263.40 C 107.42 247.54 107.31 231.64 107.73 215.79 Z" />
<path fill="#010101" opacity="1.00" d=" M 557.92 374.99 C 567.79 373.06 578.52 373.82 587.53 378.50 C 594.08 381.08 597.31 387.79 601.93 392.67 C 597.75 395.61 593.67 398.76 589.01 400.93 C 585.91 399.30 583.82 396.16 581.12 393.94 C 574.06 389.41 564.80 388.90 557.09 392.04 C 555.22 392.74 553.10 393.20 551.98 395.02 C 549.05 398.82 544.24 401.51 543.32 406.54 C 540.74 414.67 541.32 424.36 546.75 431.24 C 549.89 434.83 553.39 438.51 558.09 439.95 C 565.86 442.55 575.02 441.73 581.70 436.76 C 584.15 434.49 586.87 432.50 589.03 429.94 C 593.54 432.89 598.52 435.17 602.60 438.75 C 599.01 442.43 595.72 446.45 591.79 449.77 C 582.58 455.76 571.08 458.65 560.20 456.50 C 554.53 455.55 548.91 454.00 543.88 451.18 C 539.85 449.02 537.23 445.12 533.71 442.31 C 531.55 440.61 530.56 438.00 529.39 435.62 C 524.30 426.23 523.69 414.92 525.72 404.59 C 527.60 398.98 529.07 392.77 533.55 388.57 C 536.79 385.78 539.12 381.99 543.01 379.98 C 547.69 377.60 552.54 375.10 557.92 374.99 Z" />
<path fill="#010101" opacity="1.00" d=" M 719.02 374.58 C 728.52 373.50 738.75 373.81 747.23 378.74 C 749.85 380.34 753.02 381.42 754.83 384.06 C 756.98 386.93 759.15 389.80 760.94 392.92 C 757.33 396.14 753.14 398.62 749.05 401.15 C 744.39 397.27 740.09 392.63 733.97 391.09 C 726.95 389.84 718.94 389.47 712.95 393.98 C 710.21 397.26 706.07 399.29 704.16 403.23 C 700.48 411.37 700.81 421.16 704.87 429.10 C 706.18 432.00 709.13 433.55 711.23 435.80 C 715.20 440.13 721.40 441.17 727.00 441.29 C 735.51 441.82 743.04 436.45 748.37 430.30 C 753.45 431.39 757.85 435.27 762.18 438.20 C 758.24 443.19 754.27 448.45 748.64 451.64 C 737.65 458.04 724.04 458.43 712.08 454.76 C 708.25 453.10 703.87 452.26 700.94 449.06 C 697.92 445.39 692.99 443.57 690.99 439.02 C 688.54 434.10 684.87 429.44 684.64 423.76 C 683.75 416.23 683.38 408.31 686.11 401.11 C 688.65 396.15 690.64 390.67 694.86 386.83 C 698.17 383.82 701.11 380.15 705.42 378.53 C 709.80 376.78 714.18 374.56 719.02 374.58 Z" />
<path fill="#010101" opacity="1.00" d=" M 109.70 375.19 C 115.55 375.32 121.41 375.06 127.25 375.40 C 132.36 382.57 136.26 390.53 141.10 397.90 C 145.09 402.83 146.77 409.13 150.65 414.15 C 156.07 407.08 158.72 398.30 164.33 391.35 C 165.90 389.47 167.26 387.41 168.17 385.13 C 169.69 381.51 172.16 378.45 174.51 375.35 C 180.20 375.13 185.91 375.30 191.61 375.20 C 191.35 401.70 191.62 428.22 191.49 454.72 L 190.96 455.36 C 185.61 455.56 180.27 455.33 174.92 455.47 C 174.89 438.50 175.20 421.52 174.78 404.56 C 168.94 410.57 166.66 418.91 161.15 425.14 C 158.02 430.72 154.63 436.17 151.83 441.93 C 149.44 442.27 149.22 439.24 148.14 437.76 C 144.57 431.51 140.72 425.39 136.32 419.69 C 133.39 414.87 131.28 409.41 126.93 405.60 C 126.68 422.17 126.86 438.75 126.83 455.33 C 121.11 455.48 115.38 455.41 109.65 455.41 C 109.76 428.67 109.62 401.93 109.70 375.19 Z" />
<path fill="#010101" opacity="1.00" d=" M 238.21 375.19 C 243.79 375.23 249.38 375.27 254.97 375.27 C 256.45 379.09 257.65 383.03 259.11 386.86 C 265.08 398.78 268.15 411.92 273.99 423.89 C 277.26 434.67 281.44 445.10 285.90 455.42 C 279.93 455.40 273.96 455.44 268.00 455.40 C 266.18 450.69 264.77 445.83 262.70 441.23 C 251.61 441.05 240.52 441.14 229.44 441.19 C 226.70 445.64 226.07 451.24 223.06 455.39 C 217.66 455.46 212.26 455.39 206.86 455.36 C 210.34 446.87 212.51 437.87 216.48 429.57 C 218.48 423.67 221.52 418.16 223.11 412.12 C 224.71 407.56 226.48 403.04 228.88 398.85 C 232.18 391.04 234.83 382.97 238.21 375.19 M 242.86 407.87 C 240.37 414.07 238.36 420.47 235.31 426.43 C 242.55 426.88 249.81 426.52 257.06 426.62 C 253.91 417.27 250.50 408.04 246.50 399.02 C 244.58 401.63 244.14 404.95 242.86 407.87 Z" />
<path fill="#010101" opacity="1.00" d=" M 299.13 375.22 C 304.60 375.25 310.08 375.23 315.55 375.25 C 315.56 386.11 315.42 396.97 315.57 407.83 C 321.92 401.07 327.93 394.00 334.10 387.07 C 337.03 382.69 341.35 379.53 344.38 375.23 C 350.99 375.27 357.60 375.15 364.21 375.32 C 362.91 377.58 361.04 379.40 359.20 381.23 C 355.53 385.51 352.13 390.06 348.01 393.93 C 343.28 400.39 337.62 406.09 332.45 412.18 C 337.66 419.07 343.21 425.69 348.37 432.62 C 352.27 436.18 354.46 441.10 358.12 444.87 C 361.11 448.22 363.69 451.90 366.51 455.40 C 359.67 455.38 352.83 455.55 346.00 455.36 C 344.67 454.53 344.03 453.03 343.13 451.83 C 340.14 447.23 335.97 443.56 332.87 439.05 C 329.42 433.40 324.47 428.86 321.01 423.21 C 319.32 425.68 316.91 427.77 315.62 430.46 C 315.34 438.77 315.70 447.11 315.45 455.43 C 310.01 455.39 304.56 455.50 299.13 455.36 C 299.25 428.64 299.16 401.93 299.13 375.22 Z" />
<path fill="#010101" opacity="1.00" d=" M 379.12 375.21 C 396.99 375.29 414.86 375.17 432.72 375.27 C 432.71 380.15 432.70 385.03 432.74 389.92 C 420.63 390.40 408.51 389.99 396.40 390.16 C 396.50 396.07 396.51 401.98 396.39 407.89 C 407.18 408.38 417.98 407.88 428.77 408.18 C 428.70 413.01 428.74 417.83 428.72 422.66 C 417.95 422.82 407.16 422.45 396.40 422.85 C 396.51 428.77 396.50 434.69 396.43 440.62 C 408.61 440.55 420.79 440.49 432.97 440.62 L 433.57 441.22 C 433.67 445.75 433.68 450.28 433.61 454.80 L 433.03 455.44 C 415.05 455.37 397.06 455.47 379.07 455.38 C 379.13 428.65 379.04 401.93 379.12 375.21 Z" />
<path fill="#010101" opacity="1.00" d=" M 451.11 375.21 C 463.09 375.27 475.06 375.19 487.04 375.26 C 494.43 375.40 502.26 378.05 506.86 384.12 C 511.33 390.39 514.35 398.25 512.98 406.04 C 512.28 410.44 510.45 414.57 508.57 418.58 C 505.49 422.06 501.52 424.43 497.22 426.07 C 500.05 431.35 504.01 435.90 506.73 441.23 C 509.69 445.91 511.84 451.08 515.41 455.37 C 509.28 455.44 503.15 455.42 497.02 455.38 C 494.77 453.13 493.67 449.83 491.68 447.29 C 487.03 441.30 483.89 434.37 479.58 428.17 C 475.59 428.07 471.60 428.12 467.62 428.10 C 467.52 436.99 467.67 445.88 467.57 454.77 L 466.99 455.38 C 461.69 455.47 456.39 455.44 451.09 455.35 C 451.14 428.64 451.10 401.92 451.11 375.21 M 467.62 390.10 C 467.57 398.02 467.55 405.95 467.65 413.88 C 475.88 413.31 484.74 415.53 492.38 411.53 C 497.80 408.58 497.18 401.21 495.79 396.14 C 495.00 391.95 490.29 391.22 486.88 390.22 C 480.46 389.97 474.04 390.24 467.62 390.10 Z" />
<path fill="#010101" opacity="1.00" d=" M 605.78 375.22 C 612.09 375.30 618.41 375.09 624.72 375.31 C 627.91 378.23 628.67 383.15 631.44 386.56 C 636.80 393.04 639.15 401.34 644.04 408.14 C 646.69 404.22 648.59 399.89 650.78 395.72 C 652.77 391.84 655.85 388.63 657.69 384.67 C 659.20 381.49 660.89 378.41 662.39 375.23 C 668.66 375.23 674.94 375.21 681.22 375.20 C 678.08 380.95 674.54 386.47 671.04 392.01 C 668.73 397.99 664.33 402.76 661.40 408.40 C 659.57 411.29 658.00 414.33 656.45 417.37 C 655.19 419.98 652.33 421.87 652.38 425.01 C 652.27 435.13 652.34 445.26 652.35 455.38 C 646.87 455.46 641.38 455.42 635.90 455.40 C 635.90 445.60 635.95 435.79 635.89 426.00 C 635.88 423.14 633.70 421.04 632.31 418.75 C 627.46 411.79 624.24 403.80 618.82 397.23 C 615.72 389.19 609.94 382.68 605.78 375.22 Z" />
<path fill="#010101" opacity="1.00" d=" M 778.17 375.26 C 783.73 375.19 789.30 375.24 794.87 375.25 C 795.06 397.04 794.59 418.84 795.09 440.61 C 807.04 440.51 818.99 440.53 830.94 440.59 C 830.88 445.51 830.99 450.43 830.91 455.36 C 813.32 455.46 795.72 455.45 778.12 455.35 C 778.17 428.66 778.10 401.96 778.17 375.26 Z" />
<path fill="#010101" opacity="1.00" d=" M 846.01 375.20 C 863.43 375.25 880.85 375.25 898.27 375.21 C 898.39 380.18 898.33 385.16 898.35 390.14 C 886.39 390.11 874.43 390.16 862.47 390.12 C 862.60 396.04 862.57 401.97 862.42 407.89 C 873.00 408.35 883.60 407.98 894.19 408.10 C 894.18 412.97 894.27 417.84 894.15 422.72 C 883.63 422.64 873.12 422.70 862.61 422.69 C 862.51 428.62 862.51 434.55 862.53 440.48 C 873.69 440.61 884.85 440.54 896.01 440.51 C 897.11 440.64 899.75 439.94 899.34 441.97 C 899.35 446.43 899.28 450.90 899.32 455.37 C 881.50 455.43 863.67 455.43 845.85 455.40 C 846.04 428.67 845.74 401.93 846.01 375.20 Z" />
</g>
</svg>
