<svg width="628pt" height="628pt" viewBox="0 0 628 628" version="1.1" xmlns="http://www.w3.org/2000/svg">
<g id="#ffffffff">

<path fill="#ffffff" opacity="1.00" d=" M 110.02 91.25 C 113.82 89.80 117.86 88.97 121.94 89.11 C 173.94 89.18 225.93 89.06 277.93 89.18 C 290.12 89.04 300.95 99.75 301.05 111.93 C 301.17 164.30 301.06 216.68 301.11 269.06 C 301.35 276.95 297.21 284.62 290.79 289.13 C 289.44 290.01 288.03 290.81 286.60 291.55 C 283.21 292.78 279.70 293.93 276.05 293.83 C 227.37 293.82 178.68 293.86 130.00 293.82 C 125.79 293.83 121.57 293.88 117.36 293.57 C 111.30 292.36 105.34 289.53 101.53 284.52 C 98.83 281.36 97.57 277.33 96.42 273.42 C 96.24 219.37 96.28 165.32 96.39 111.28 C 97.02 102.77 102.47 95.09 110.02 91.25 M 184.42 131.28 C 184.36 146.63 184.76 162.02 184.22 177.35 C 169.91 177.63 155.60 177.41 141.30 177.43 C 141.22 186.96 141.21 196.50 141.34 206.04 C 155.72 206.46 170.12 205.94 184.50 206.27 C 184.50 221.90 184.38 237.53 184.54 253.16 C 194.10 253.28 203.67 253.25 213.23 253.16 C 213.36 237.51 213.26 221.86 213.27 206.21 C 227.59 206.10 241.90 206.29 256.22 206.13 C 256.44 196.60 256.30 187.06 256.30 177.53 C 246.87 177.34 237.44 177.55 228.01 177.47 C 223.38 177.54 218.74 177.19 214.14 177.81 C 213.56 176.64 213.38 175.34 213.34 174.06 C 213.14 159.76 213.51 145.45 213.18 131.15 C 203.79 131.36 194.40 131.18 185.00 131.28 L 184.42 131.28 Z" data-index="1" style="opacity: 1;"></path>
<path fill="#ffffff" opacity="1.00" d=" M 341.40 89.57 C 343.90 89.11 346.46 89.13 349.00 89.13 C 400.68 89.16 452.36 89.08 504.04 89.17 C 516.41 88.82 527.82 99.58 527.77 112.04 C 527.74 165.03 527.83 218.02 527.72 271.01 C 527.66 283.87 515.52 293.89 503.09 293.78 C 451.05 293.88 399.01 293.81 346.97 293.81 C 334.78 294.02 322.87 284.46 322.07 271.99 C 322.02 218.64 322.03 165.28 322.06 111.92 C 322.16 101.09 330.78 91.34 341.40 89.57 M 363.22 177.41 C 362.55 186.88 362.65 196.42 363.09 205.91 C 373.38 206.50 383.70 206.03 394.00 206.19 C 424.41 206.10 454.83 206.34 485.24 206.05 C 485.35 196.51 485.59 186.96 485.16 177.43 C 444.51 177.45 403.87 177.48 363.22 177.41 Z" data-index="2" style="opacity: 1;"></path>
<path fill="#ffffff" opacity="1.00" d=" M 105.28 318.27 C 109.69 314.78 115.36 313.18 120.94 313.21 C 173.30 313.21 225.66 313.16 278.03 313.23 C 290.15 313.18 300.86 323.90 301.06 335.96 C 301.20 386.30 301.03 436.65 301.13 487.00 C 301.11 489.98 301.24 492.98 300.96 495.97 C 299.87 505.53 292.41 513.95 283.06 516.21 C 279.47 517.23 275.70 517.26 272.00 517.19 C 220.98 517.14 169.97 517.27 118.96 517.19 C 107.84 517.08 98.18 508.18 96.31 497.37 C 96.40 442.75 96.18 388.13 96.43 333.52 C 97.66 327.67 100.46 321.97 105.28 318.27 M 149.27 383.11 C 150.27 384.14 151.28 385.18 152.24 386.25 C 153.65 387.58 155.00 389.00 156.63 390.09 C 162.79 398.03 170.33 404.78 177.27 412.03 C 177.20 417.40 171.29 419.37 170.06 424.23 C 163.13 431.07 156.77 438.46 149.68 445.14 C 155.69 452.38 163.17 458.26 169.38 465.35 C 173.62 462.70 176.65 458.64 180.28 455.29 C 186.58 448.73 193.49 442.78 199.55 436.00 C 199.87 436.07 200.51 436.22 200.83 436.30 C 206.78 443.29 214.12 448.91 220.45 455.54 C 223.92 458.95 227.34 462.42 230.90 465.74 C 237.91 458.90 244.85 452.00 251.75 445.05 C 246.11 439.43 240.38 433.87 235.13 427.87 C 233.84 426.49 232.54 425.09 230.95 424.05 C 228.49 420.61 225.02 418.09 222.41 414.81 C 222.46 413.99 222.63 413.21 222.91 412.45 C 223.99 411.68 225.07 410.90 226.02 409.98 C 234.70 401.12 243.40 392.28 251.91 383.26 C 245.88 377.58 240.08 371.64 234.26 365.74 C 233.23 364.83 232.32 363.64 230.98 363.20 C 227.22 365.99 224.26 369.68 220.88 372.89 C 214.30 379.69 207.29 386.06 200.69 392.84 C 189.99 383.27 180.23 372.72 169.93 362.74 C 162.97 369.46 156.18 376.34 149.27 383.11 Z" data-index="3"></path>
<path fill="#ffffff" opacity="1.00" d=" M 322.06 335.91 C 322.24 323.90 332.98 313.34 344.98 313.24 C 397.67 313.16 450.37 313.25 503.06 313.20 C 514.02 312.38 524.48 320.21 527.23 330.77 C 527.74 333.80 527.84 336.88 527.81 339.95 C 527.68 392.42 527.95 444.90 527.68 497.37 C 526.27 502.93 523.52 508.26 518.97 511.90 C 514.14 515.57 508.07 517.56 501.99 517.36 C 449.99 517.42 397.98 517.45 345.98 517.37 C 333.54 517.50 321.86 506.71 322.05 494.07 C 322.04 441.35 322.03 388.63 322.06 335.91 M 414.64 348.18 C 407.61 351.92 402.44 359.85 403.50 368.00 C 404.27 378.86 415.28 387.67 426.06 385.88 C 434.74 384.82 442.40 377.50 443.47 368.77 C 444.43 361.80 441.38 354.43 435.63 350.35 C 429.78 345.69 421.37 345.38 414.64 348.18 M 362.34 399.33 C 362.21 409.15 362.26 418.97 362.26 428.78 C 403.44 428.77 444.63 428.81 485.81 428.76 C 486.68 418.98 486.66 409.09 485.85 399.31 C 475.58 398.67 465.28 398.89 455.00 398.86 C 429.33 398.82 403.67 398.90 378.00 398.88 C 372.77 398.76 367.54 398.87 362.34 399.33 M 419.43 441.66 C 409.68 443.21 402.33 453.25 403.56 463.00 C 404.09 470.70 409.86 477.18 416.84 479.97 C 422.47 481.51 428.99 481.47 433.94 478.01 C 439.09 475.02 442.46 469.59 443.45 463.79 C 444.72 455.36 439.80 446.36 431.92 443.05 C 428.03 441.24 423.61 440.90 419.43 441.66 Z" data-index="4" style="opacity: 1;"></path>
</g>
<g id="#303030ff">
<path fill="#303030" opacity="1.00" d=" M 101.44 41.64 C 109.44 39.55 117.76 39.04 126.00 39.20 C 249.00 39.24 372.00 39.20 495.00 39.22 C 505.79 39.06 516.83 39.31 527.15 42.82 C 554.25 51.47 575.33 77.23 577.13 105.80 C 577.09 106.21 577.01 107.04 576.97 107.46 C 575.21 112.81 575.55 118.46 575.68 124.00 C 575.67 242.67 575.66 361.34 575.67 480.01 C 575.78 487.18 574.88 494.49 576.85 501.51 C 574.90 532.21 551.11 559.98 521.21 567.10 C 517.34 567.84 513.43 569.20 509.46 568.88 C 503.41 567.35 497.17 567.68 491.00 567.79 C 373.67 567.69 256.34 567.83 139.01 567.72 C 131.17 568.00 123.20 566.92 115.52 568.94 C 110.98 569.32 106.49 567.96 102.11 566.95 C 83.85 562.27 67.54 550.43 57.62 534.38 C 49.98 522.75 46.38 508.84 46.33 495.00 C 46.30 369.67 46.32 244.33 46.31 119.00 C 46.23 109.99 46.55 100.83 49.22 92.15 C 51.36 84.20 55.33 76.87 60.25 70.31 C 70.32 56.58 84.79 45.80 101.44 41.64 M 111.78 51.52 C 112.41 51.79 113.69 52.33 114.33 52.60 C 105.47 53.79 96.67 56.29 89.06 61.08 C 74.81 69.59 63.98 84.06 60.60 100.39 C 59.13 107.16 59.60 114.12 59.67 121.00 C 59.66 247.00 59.66 372.99 59.67 498.99 C 60.41 516.40 69.61 533.28 83.30 543.94 L 82.82 543.22 C 83.77 542.79 84.72 542.37 85.68 541.96 C 83.41 539.52 80.84 537.16 79.64 533.98 C 76.92 525.71 73.39 517.65 71.97 509.01 C 70.79 494.37 71.01 479.68 71.06 465.01 C 70.84 366.00 71.05 267.00 71.04 168.00 C 71.29 150.99 70.69 133.98 71.15 116.98 C 71.23 107.12 74.71 97.74 78.84 88.93 C 81.14 85.60 84.68 83.35 87.14 80.13 C 90.96 75.33 96.53 72.60 101.84 69.82 C 107.30 66.54 113.63 64.96 119.98 64.90 C 254.16 65.01 388.34 64.83 522.52 65.00 C 529.29 64.41 534.64 71.32 541.39 69.50 C 541.47 69.79 541.62 70.36 541.70 70.64 C 543.86 71.07 546.04 71.46 548.24 71.75 C 547.93 71.38 547.31 70.63 547.01 70.26 C 546.37 69.15 545.60 68.13 544.63 67.32 C 534.65 58.56 521.67 53.59 508.49 52.60 C 508.94 52.35 509.83 51.84 510.27 51.59 C 504.87 50.90 499.42 51.08 493.99 51.07 C 464.99 51.21 435.99 50.85 407.00 51.23 C 381.67 50.62 356.33 51.62 331.00 51.04 C 260.66 50.91 190.33 51.32 120.00 51.02 C 117.25 51.01 114.50 51.19 111.78 51.52 M 111.93 87.81 C 109.89 87.95 109.32 89.95 108.93 91.61 L 110.02 91.25 C 102.47 95.09 97.02 102.77 96.39 111.28 C 96.08 110.61 95.46 109.26 95.14 108.59 C 94.71 111.71 94.60 114.86 94.64 118.01 C 94.86 166.00 94.72 214.00 94.75 262.00 C 94.71 266.14 94.37 270.40 95.74 274.40 L 96.42 273.42 C 97.57 277.33 98.83 281.36 101.53 284.52 C 105.34 289.53 111.30 292.36 117.36 293.57 C 116.90 293.88 115.97 294.49 115.51 294.80 C 120.63 295.61 125.83 295.36 131.00 295.34 C 176.01 295.35 221.03 295.29 266.04 295.37 C 273.56 295.21 281.84 297.00 288.54 292.58 C 288.06 292.32 287.09 291.81 286.60 291.55 C 288.03 290.81 289.44 290.01 290.79 289.13 C 291.57 289.76 292.35 290.40 293.13 291.04 C 294.72 289.72 296.48 288.52 297.60 286.74 C 300.29 281.97 303.90 277.29 303.84 271.52 C 304.13 251.02 304.26 230.51 303.89 210.00 C 304.27 184.34 303.96 158.67 304.17 133.00 C 303.81 124.46 304.58 115.88 303.61 107.37 C 303.10 102.54 299.59 98.93 296.76 95.28 C 294.10 91.72 289.91 89.93 286.04 88.04 C 281.99 86.12 277.40 86.16 273.02 86.07 C 231.02 86.20 189.01 85.97 147.01 86.14 C 135.32 86.22 123.41 85.13 111.93 87.81 M 338.71 86.69 C 335.92 87.38 333.87 89.60 331.18 90.51 C 326.60 91.68 324.41 96.40 321.95 99.98 C 317.67 109.76 319.25 120.65 319.04 131.00 C 319.10 176.67 319.02 222.34 319.01 268.01 C 318.69 274.62 320.65 281.27 324.26 286.77 C 327.00 288.56 330.21 289.88 331.81 292.97 C 337.12 294.58 342.21 297.40 347.94 297.00 C 398.64 296.81 449.33 297.11 500.03 296.95 C 505.68 296.95 511.31 295.80 516.54 293.67 C 519.14 292.78 520.17 290.02 522.03 288.24 C 523.24 287.56 524.63 287.27 525.84 286.59 C 530.71 279.42 531.52 270.44 530.94 262.01 C 530.91 212.66 530.87 163.31 531.04 113.97 C 530.90 110.27 531.00 106.25 528.88 103.03 C 527.71 101.24 526.68 99.35 526.06 97.29 C 525.28 94.28 522.41 92.62 519.99 91.03 C 515.71 88.56 511.10 86.19 506.06 86.01 C 454.04 85.80 402.01 86.11 349.98 85.91 C 346.22 85.93 342.40 85.84 338.71 86.69 M 114.59 310.59 C 109.20 312.32 103.57 314.38 99.57 318.58 C 94.95 323.45 93.42 330.40 93.28 336.94 C 93.35 385.96 93.37 434.98 93.31 484.00 C 93.34 491.78 92.65 500.14 96.73 507.14 C 98.69 511.94 103.08 514.97 107.27 517.67 C 112.99 521.03 119.78 519.15 126.00 519.31 C 136.33 519.45 146.66 519.13 156.99 519.45 C 166.97 520.29 177.02 520.26 187.01 519.43 C 194.69 518.79 202.33 520.15 210.01 520.06 C 229.67 519.99 249.33 520.05 268.99 520.04 C 275.63 519.74 282.52 520.06 288.83 517.64 C 291.10 516.72 291.79 513.92 293.97 512.88 C 295.82 511.84 298.13 511.19 299.07 509.09 C 302.16 503.60 303.37 497.25 303.92 491.04 C 303.89 439.69 304.11 388.32 303.96 336.97 C 304.43 329.99 300.85 323.65 296.63 318.40 C 295.61 316.98 293.89 316.54 292.33 316.04 C 291.10 314.20 289.73 312.26 287.48 311.64 C 280.92 309.31 273.82 310.52 267.01 310.26 C 257.45 310.00 247.85 310.71 238.32 309.74 C 233.62 309.32 228.92 310.39 224.22 309.80 C 218.88 309.03 213.55 310.57 208.22 309.88 C 198.17 308.70 188.05 309.43 178.00 310.21 C 161.67 310.30 145.34 310.12 129.01 310.21 C 124.21 310.29 119.28 309.07 114.59 310.59 M 504.36 309.74 C 492.58 310.19 480.78 309.94 469.00 309.94 C 429.34 310.07 389.68 309.85 350.03 309.95 C 343.86 310.12 336.96 309.80 331.82 313.81 C 328.11 316.69 324.20 319.58 321.69 323.63 C 319.40 327.66 319.24 332.44 318.99 336.95 C 319.17 389.65 319.05 442.35 319.08 495.05 C 319.32 501.30 321.03 508.90 327.22 511.84 C 329.15 512.89 329.60 515.36 331.36 516.58 C 337.03 519.68 343.53 521.23 350.00 520.87 C 358.58 520.55 367.18 521.21 375.74 520.46 C 382.50 519.79 389.23 521.26 396.00 520.80 C 420.00 520.69 444.00 520.78 468.00 520.81 C 475.10 521.02 482.17 519.32 489.26 520.45 C 498.28 520.81 508.12 522.03 516.29 517.27 C 520.03 515.10 524.25 512.97 526.30 508.95 C 528.35 505.19 530.67 501.33 530.71 496.92 C 531.15 487.29 530.70 477.64 530.92 468.00 C 530.65 432.67 531.13 397.34 530.87 362.00 C 530.79 352.36 531.37 342.71 530.74 333.08 C 530.16 324.97 525.64 316.33 517.69 313.36 C 513.43 311.62 509.04 309.75 504.36 309.74 Z" data-index="5" style="opacity: 1;"></path>
</g>
<g id="#161616ff">
<path fill="#161616" opacity="1.00" d=" M 111.78 51.52 C 114.50 51.19 117.25 51.01 120.00 51.02 C 190.33 51.32 260.66 50.91 331.00 51.04 C 356.33 51.62 381.67 50.62 407.00 51.23 C 435.99 50.85 464.99 51.21 493.99 51.07 C 499.42 51.08 504.87 50.90 510.27 51.59 C 509.83 51.84 508.94 52.35 508.49 52.60 C 477.67 52.27 446.83 52.54 416.00 52.45 C 323.00 52.44 230.00 52.45 137.00 52.46 C 129.44 52.52 121.88 52.23 114.33 52.60 C 113.69 52.33 112.41 51.79 111.78 51.52 Z" data-index="6"></path>
</g>
<g id="#fefefeff">
<path fill="#fefefe" opacity="1.00" d=" M 114.33 52.60 C 121.88 52.23 129.44 52.52 137.00 52.46 C 230.00 52.45 323.00 52.44 416.00 52.45 C 446.83 52.54 477.67 52.27 508.49 52.60 C 521.67 53.59 534.65 58.56 544.63 67.32 C 545.60 68.13 546.37 69.15 547.01 70.26 C 537.06 64.55 525.51 61.20 514.00 61.64 C 502.78 61.74 491.56 61.57 480.34 61.76 C 418.76 61.67 357.18 61.68 295.60 61.76 C 293.52 61.69 291.44 61.68 289.37 61.75 C 243.14 61.68 196.91 61.67 150.69 61.75 C 141.79 61.57 132.90 61.73 124.00 61.70 C 108.51 61.46 92.71 67.70 82.37 79.40 C 73.87 88.34 68.83 100.36 68.04 112.64 C 67.65 117.42 67.82 122.21 67.79 127.00 C 67.80 242.00 67.79 357.00 67.79 472.00 C 67.85 482.13 67.65 492.25 67.88 502.38 C 68.08 517.19 74.07 531.45 82.82 543.22 L 83.30 543.94 C 69.61 533.28 60.41 516.40 59.67 498.99 C 59.66 372.99 59.66 247.00 59.67 121.00 C 59.60 114.12 59.13 107.16 60.60 100.39 C 63.98 84.06 74.81 69.59 89.06 61.08 C 96.67 56.29 105.47 53.79 114.33 52.60 Z" data-index="7" style="opacity: 1;"></path>
</g>
<g id="#232323ff">
<path fill="#232323" opacity="1.00" d=" M 82.37 79.40 C 92.71 67.70 108.51 61.46 124.00 61.70 C 132.90 61.73 141.79 61.57 150.69 61.75 C 158.31 63.77 166.20 62.76 173.96 62.91 C 205.97 62.94 237.98 63.05 269.99 62.94 C 276.46 62.99 283.06 63.67 289.37 61.75 C 291.44 61.68 293.52 61.69 295.60 61.76 C 302.58 63.82 309.87 62.83 317.02 62.95 C 366.03 62.98 415.04 62.95 464.05 62.91 C 469.50 63.01 474.99 63.00 480.34 61.76 C 491.56 61.57 502.78 61.74 514.00 61.64 C 525.51 61.20 537.06 64.55 547.01 70.26 C 547.31 70.63 547.93 71.38 548.24 71.75 C 546.04 71.46 543.86 71.07 541.70 70.64 C 541.62 70.36 541.47 69.79 541.39 69.50 C 534.64 71.32 529.29 64.41 522.52 65.00 C 388.34 64.83 254.16 65.01 119.98 64.90 C 113.63 64.96 107.30 66.54 101.84 69.82 C 96.53 72.60 90.96 75.33 87.14 80.13 C 84.68 83.35 81.14 85.60 78.84 88.93 C 74.71 97.74 71.23 107.12 71.15 116.98 C 70.69 133.98 71.29 150.99 71.04 168.00 C 71.05 267.00 70.84 366.00 71.06 465.01 C 71.01 479.68 70.79 494.37 71.97 509.01 C 73.39 517.65 76.92 525.71 79.64 533.98 C 80.84 537.16 83.41 539.52 85.68 541.96 C 84.72 542.37 83.77 542.79 82.82 543.22 C 74.07 531.45 68.08 517.19 67.88 502.38 C 68.38 499.94 68.96 497.51 69.03 495.03 C 68.78 374.69 69.02 254.34 68.92 134.00 C 69.01 126.87 69.12 119.71 68.04 112.64 C 68.83 100.36 73.87 88.34 82.37 79.40 Z" data-index="8"></path>
</g>
<g id="#111111ff">
<path fill="#111111" opacity="1.00" d=" M 150.69 61.75 C 196.91 61.67 243.14 61.68 289.37 61.75 C 283.06 63.67 276.46 62.99 269.99 62.94 C 237.98 63.05 205.97 62.94 173.96 62.91 C 166.20 62.76 158.31 63.77 150.69 61.75 Z" data-index="9"></path>
</g>
<g id="#101010ff">
<path fill="#101010" opacity="1.00" d=" M 295.60 61.76 C 357.18 61.68 418.76 61.67 480.34 61.76 C 474.99 63.00 469.50 63.01 464.05 62.91 C 415.04 62.95 366.03 62.98 317.02 62.95 C 309.87 62.83 302.58 63.82 295.60 61.76 Z" data-index="10"></path>
</g>
<g id="#1d1d1dff">
<path fill="#1d1d1d" opacity="1.00" d=" M 111.93 87.81 C 123.41 85.13 135.32 86.22 147.01 86.14 C 189.01 85.97 231.02 86.20 273.02 86.07 C 277.40 86.16 281.99 86.12 286.04 88.04 C 289.91 89.93 294.10 91.72 296.76 95.28 C 299.59 98.93 303.10 102.54 303.61 107.37 C 304.58 115.88 303.81 124.46 304.17 133.00 C 303.96 158.67 304.27 184.34 303.89 210.00 C 304.26 230.51 304.13 251.02 303.84 271.52 C 303.90 277.29 300.29 281.97 297.60 286.74 C 296.48 288.52 294.72 289.72 293.13 291.04 C 292.35 290.40 291.57 289.76 290.79 289.13 C 297.21 284.62 301.35 276.95 301.11 269.06 C 301.06 216.68 301.17 164.30 301.05 111.93 C 300.95 99.75 290.12 89.04 277.93 89.18 C 225.93 89.06 173.94 89.18 121.94 89.11 C 117.86 88.97 113.82 89.80 110.02 91.25 L 108.93 91.61 C 109.32 89.95 109.89 87.95 111.93 87.81 Z" data-index="11"></path>
</g>
<g id="#202020ff">
<path fill="#202020" opacity="1.00" d=" M 338.71 86.69 C 342.40 85.84 346.22 85.93 349.98 85.91 C 402.01 86.11 454.04 85.80 506.06 86.01 C 511.10 86.19 515.71 88.56 519.99 91.03 C 522.41 92.62 525.28 94.28 526.06 97.29 C 526.68 99.35 527.71 101.24 528.88 103.03 C 531.00 106.25 530.90 110.27 531.04 113.97 C 530.87 163.31 530.91 212.66 530.94 262.01 C 531.52 270.44 530.71 279.42 525.84 286.59 C 524.63 287.27 523.24 287.56 522.03 288.24 C 520.17 290.02 519.14 292.78 516.54 293.67 C 511.31 295.80 505.68 296.95 500.03 296.95 C 449.33 297.11 398.64 296.81 347.94 297.00 C 342.21 297.40 337.12 294.58 331.81 292.97 C 330.21 289.88 327.00 288.56 324.26 286.77 C 320.65 281.27 318.69 274.62 319.01 268.01 C 319.02 222.34 319.10 176.67 319.04 131.00 C 319.25 120.65 317.67 109.76 321.95 99.98 C 324.41 96.40 326.60 91.68 331.18 90.51 C 333.87 89.60 335.92 87.38 338.71 86.69 M 341.40 89.57 C 330.78 91.34 322.16 101.09 322.06 111.92 C 322.03 165.28 322.02 218.64 322.07 271.99 C 322.87 284.46 334.78 294.02 346.97 293.81 C 399.01 293.81 451.05 293.88 503.09 293.78 C 515.52 293.89 527.66 283.87 527.72 271.01 C 527.83 218.02 527.74 165.03 527.77 112.04 C 527.82 99.58 516.41 88.82 504.04 89.17 C 452.36 89.08 400.68 89.16 349.00 89.13 C 346.46 89.13 343.90 89.11 341.40 89.57 Z" data-index="12"></path>
</g>
<g id="#0d0d0dff">
<path fill="#0d0d0d" opacity="1.00" d=" M 575.68 124.00 C 575.55 118.46 575.21 112.81 576.97 107.46 C 577.06 108.33 577.25 110.09 577.35 110.96 C 577.32 235.98 577.34 360.99 577.34 486.00 C 577.28 491.17 577.60 496.37 576.85 501.51 C 574.88 494.49 575.78 487.18 575.67 480.01 C 575.66 361.34 575.67 242.67 575.68 124.00 Z" data-index="13"></path>
</g>
<g id="#0a0a0aff">
<path fill="#0a0a0a" opacity="1.00" d=" M 95.14 108.59 C 95.46 109.26 96.08 110.61 96.39 111.28 C 96.28 165.32 96.24 219.37 96.42 273.42 L 95.74 274.40 C 94.37 270.40 94.71 266.14 94.75 262.00 C 94.72 214.00 94.86 166.00 94.64 118.01 C 94.60 114.86 94.71 111.71 95.14 108.59 Z" data-index="14"></path>
<path fill="#0a0a0a" opacity="1.00" d=" M 95.64 331.74 C 95.83 332.19 96.23 333.08 96.43 333.52 C 96.18 388.13 96.40 442.75 96.31 497.37 L 96.08 498.37 C 95.66 496.61 95.33 494.84 95.29 493.04 C 95.35 452.36 95.31 411.68 95.32 371.00 C 95.53 357.92 94.90 344.80 95.64 331.74 Z" data-index="15"></path>
</g>
<g id="#0c0c0cff">
<path fill="#0c0c0c" opacity="1.00" d=" M 68.04 112.64 C 69.12 119.71 69.01 126.87 68.92 134.00 C 69.02 254.34 68.78 374.69 69.03 495.03 C 68.96 497.51 68.38 499.94 67.88 502.38 C 67.65 492.25 67.85 482.13 67.79 472.00 C 67.79 357.00 67.80 242.00 67.79 127.00 C 67.82 122.21 67.65 117.42 68.04 112.64 Z" data-index="16"></path>
</g>
<g id="#ef293aff">
<path fill="#ef293a" opacity="1.00" d=" M 184.42 131.28 L 185.00 131.28 C 184.82 139.52 185.08 147.76 185.05 156.00 C 185.08 162.80 184.31 169.67 185.68 176.39 C 186.07 172.94 186.28 169.47 186.23 166.00 C 186.05 155.11 186.19 144.21 186.34 133.32 C 194.77 132.94 203.22 132.77 211.64 133.32 C 211.77 141.88 211.59 150.44 211.67 159.00 C 211.79 165.19 210.98 171.47 212.45 177.57 C 213.84 162.15 212.44 146.61 213.18 131.15 C 213.51 145.45 213.14 159.76 213.34 174.06 C 213.38 175.34 213.56 176.64 214.14 177.81 L 214.51 178.61 C 217.29 179.25 220.15 179.41 223.00 179.40 C 233.56 179.29 244.11 179.29 254.67 179.31 C 254.70 187.36 254.85 195.42 254.52 203.47 C 243.35 204.13 232.16 204.13 220.98 203.81 C 217.90 203.72 214.86 204.21 211.85 204.81 C 211.18 220.04 212.15 235.29 211.41 250.52 C 203.18 252.28 194.65 252.10 186.34 250.97 C 185.93 235.41 187.11 219.80 185.76 204.28 C 176.53 203.39 167.25 204.01 158.00 203.94 C 153.28 203.83 148.37 204.74 143.80 203.25 C 142.25 195.52 142.08 187.35 143.56 179.56 C 156.97 178.81 170.42 179.83 183.83 179.12 C 183.92 178.68 184.12 177.79 184.22 177.35 C 184.76 162.02 184.36 146.63 184.42 131.28 Z" data-index="17"></path>
<path fill="#ef293a" opacity="1.00" d=" M 421.37 348.46 C 432.86 346.77 444.48 359.11 441.34 370.54 C 438.79 381.72 423.99 387.88 414.28 381.75 C 406.45 377.16 402.48 365.68 407.72 357.79 C 410.29 352.55 415.83 349.52 421.37 348.46 Z" data-index="18"></path>
<path fill="#ef293a" opacity="1.00" d=" M 156.88 377.85 C 161.43 374.08 165.63 369.94 169.86 365.81 C 175.94 370.81 181.04 376.85 186.87 382.12 C 191.14 385.97 194.47 390.84 199.20 394.17 C 203.15 393.60 205.92 390.27 208.78 387.78 C 215.98 380.53 223.07 373.16 230.43 366.07 C 237.66 370.53 243.12 377.19 248.87 383.31 C 244.18 389.42 238.01 394.16 233.00 400.00 C 229.56 404.07 224.44 407.05 222.91 412.45 C 222.63 413.21 222.46 413.99 222.41 414.81 C 225.02 418.09 228.49 420.61 230.95 424.05 C 230.32 423.78 229.06 423.25 228.43 422.99 C 233.51 430.96 241.51 436.41 247.28 443.79 C 248.90 446.05 245.91 448.03 244.64 449.63 C 239.89 453.79 236.02 458.94 230.92 462.68 C 223.18 456.30 216.31 448.88 209.11 441.89 C 206.70 439.57 204.15 437.17 200.83 436.30 C 200.51 436.22 199.87 436.07 199.55 436.00 C 198.99 435.89 197.86 435.66 197.30 435.55 C 193.13 439.96 188.57 443.99 184.43 448.44 C 179.70 453.35 175.39 458.89 169.28 462.19 C 164.72 457.91 160.26 453.51 155.67 449.26 C 154.76 448.11 152.85 447.06 153.50 445.35 C 154.33 443.10 156.09 441.39 157.67 439.66 C 163.99 433.32 170.14 426.81 176.52 420.52 C 178.60 418.30 181.26 415.50 180.21 412.18 C 179.19 410.14 177.15 408.90 175.49 407.44 C 168.59 402.28 164.59 393.94 156.63 390.09 C 155.00 389.00 153.65 387.58 152.24 386.25 C 152.73 382.97 154.16 379.86 156.88 377.85 Z" data-index="19"></path>
<path fill="#ef293a" opacity="1.00" d=" M 364.38 402.86 C 367.90 400.74 372.08 401.21 376.00 401.27 C 411.83 401.56 447.67 401.01 483.48 401.53 C 483.75 407.71 483.93 413.90 483.79 420.08 C 483.76 422.32 482.98 424.45 482.17 426.51 C 472.14 425.54 462.05 426.27 452.00 426.09 C 425.98 426.30 399.97 425.50 373.96 426.24 C 371.07 425.98 367.01 426.52 365.33 423.60 C 363.98 416.77 365.89 409.70 364.38 402.86 Z" data-index="20"></path>
<path fill="#ef293a" opacity="1.00" d=" M 421.43 443.51 C 426.39 442.90 431.56 444.46 435.49 447.52 C 443.30 453.94 444.13 467.46 436.03 474.01 C 431.56 477.27 425.87 480.99 420.13 478.89 C 413.66 477.33 408.52 472.16 406.06 466.11 C 404.31 461.64 405.10 456.56 407.46 452.47 C 410.04 447.18 415.86 444.40 421.43 443.51 Z" data-index="21"></path>
</g>
<g id="#b23948ff">
<path fill="#b23948" opacity="1.00" d=" M 185.00 131.28 C 194.40 131.18 203.79 131.36 213.18 131.15 C 212.44 146.61 213.84 162.15 212.45 177.57 C 210.98 171.47 211.79 165.19 211.67 159.00 C 211.59 150.44 211.77 141.88 211.64 133.32 C 203.22 132.77 194.77 132.94 186.34 133.32 C 186.19 144.21 186.05 155.11 186.23 166.00 C 186.28 169.47 186.07 172.94 185.68 176.39 C 184.31 169.67 185.08 162.80 185.05 156.00 C 185.08 147.76 184.82 139.52 185.00 131.28 Z" data-index="22"></path>
</g>
<g id="#ba3142ff">
<path fill="#ba3142" opacity="1.00" d=" M 141.30 177.43 C 155.60 177.41 169.91 177.63 184.22 177.35 C 184.12 177.79 183.92 178.68 183.83 179.12 C 170.42 179.83 156.97 178.81 143.56 179.56 C 142.08 187.35 142.25 195.52 143.80 203.25 C 148.37 204.74 153.28 203.83 158.00 203.94 C 167.25 204.01 176.53 203.39 185.76 204.28 C 187.11 219.80 185.93 235.41 186.34 250.97 C 194.65 252.10 203.18 252.28 211.41 250.52 C 212.15 235.29 211.18 220.04 211.85 204.81 C 214.86 204.21 217.90 203.72 220.98 203.81 C 232.16 204.13 243.35 204.13 254.52 203.47 C 254.85 195.42 254.70 187.36 254.67 179.31 C 244.11 179.29 233.56 179.29 223.00 179.40 C 220.15 179.41 217.29 179.25 214.51 178.61 L 214.14 177.81 C 218.74 177.19 223.38 177.54 228.01 177.47 C 237.44 177.55 246.87 177.34 256.30 177.53 C 256.30 187.06 256.44 196.60 256.22 206.13 C 241.90 206.29 227.59 206.10 213.27 206.21 C 213.26 221.86 213.36 237.51 213.23 253.16 C 203.67 253.25 194.10 253.28 184.54 253.16 C 184.38 237.53 184.50 221.90 184.50 206.27 C 170.12 205.94 155.72 206.46 141.34 206.04 C 141.21 196.50 141.22 186.96 141.30 177.43 Z" data-index="23"></path>
<path fill="#ba3142" opacity="1.00" d=" M 363.22 177.41 C 403.87 177.48 444.51 177.45 485.16 177.43 C 485.59 186.96 485.35 196.51 485.24 206.05 C 454.83 206.34 424.41 206.10 394.00 206.19 C 383.70 206.03 373.38 206.50 363.09 205.91 C 362.65 196.42 362.55 186.88 363.22 177.41 M 365.46 179.55 C 365.08 185.72 365.07 191.90 364.93 198.07 C 365.00 200.06 365.07 202.89 367.36 203.65 C 369.76 204.20 372.24 203.80 374.68 203.71 C 379.78 203.32 384.89 204.01 390.00 203.97 C 415.00 203.74 440.00 204.01 465.00 203.96 C 471.17 203.86 477.61 205.05 483.50 202.61 C 483.87 194.86 483.58 187.09 483.68 179.33 C 464.78 179.32 445.89 179.28 427.00 179.32 C 406.49 179.47 385.96 178.99 365.46 179.55 Z" data-index="24"></path>
<path fill="#ba3142" opacity="1.00" d=" M 414.64 348.18 C 421.37 345.38 429.78 345.69 435.63 350.35 C 441.38 354.43 444.43 361.80 443.47 368.77 C 442.40 377.50 434.74 384.82 426.06 385.88 C 415.28 387.67 404.27 378.86 403.50 368.00 C 402.44 359.85 407.61 351.92 414.64 348.18 M 421.37 348.46 C 415.83 349.52 410.29 352.55 407.72 357.79 C 402.48 365.68 406.45 377.16 414.28 381.75 C 423.99 387.88 438.79 381.72 441.34 370.54 C 444.48 359.11 432.86 346.77 421.37 348.46 Z" data-index="25"></path>
<path fill="#ba3142" opacity="1.00" d=" M 149.27 383.11 C 156.18 376.34 162.97 369.46 169.93 362.74 C 180.23 372.72 189.99 383.27 200.69 392.84 C 207.29 386.06 214.30 379.69 220.88 372.89 C 224.26 369.68 227.22 365.99 230.98 363.20 C 232.32 363.64 233.23 364.83 234.26 365.74 C 240.08 371.64 245.88 377.58 251.91 383.26 C 243.40 392.28 234.70 401.12 226.02 409.98 C 225.07 410.90 223.99 411.68 222.91 412.45 C 224.44 407.05 229.56 404.07 233.00 400.00 C 238.01 394.16 244.18 389.42 248.87 383.31 C 243.12 377.19 237.66 370.53 230.43 366.07 C 223.07 373.16 215.98 380.53 208.78 387.78 C 205.92 390.27 203.15 393.60 199.20 394.17 C 194.47 390.84 191.14 385.97 186.87 382.12 C 181.04 376.85 175.94 370.81 169.86 365.81 C 165.63 369.94 161.43 374.08 156.88 377.85 C 154.16 379.86 152.73 382.97 152.24 386.25 C 151.28 385.18 150.27 384.14 149.27 383.11 Z" data-index="26"></path>
<path fill="#ba3142" opacity="1.00" d=" M 156.63 390.09 C 164.59 393.94 168.59 402.28 175.49 407.44 C 177.15 408.90 179.19 410.14 180.21 412.18 C 181.26 415.50 178.60 418.30 176.52 420.52 C 170.14 426.81 163.99 433.32 157.67 439.66 C 156.09 441.39 154.33 443.10 153.50 445.35 C 152.85 447.06 154.76 448.11 155.67 449.26 C 160.26 453.51 164.72 457.91 169.28 462.19 C 175.39 458.89 179.70 453.35 184.43 448.44 C 188.57 443.99 193.13 439.96 197.30 435.55 C 197.86 435.66 198.99 435.89 199.55 436.00 C 193.49 442.78 186.58 448.73 180.28 455.29 C 176.65 458.64 173.62 462.70 169.38 465.35 C 163.17 458.26 155.69 452.38 149.68 445.14 C 156.77 438.46 163.13 431.07 170.06 424.23 C 173.48 421.17 176.69 417.88 179.53 414.27 C 178.78 413.51 178.03 412.77 177.27 412.03 C 170.33 404.78 162.79 398.03 156.63 390.09 Z" data-index="27"></path>
<path fill="#ba3142" opacity="1.00" d=" M 228.43 422.99 C 229.06 423.25 230.32 423.78 230.95 424.05 C 232.54 425.09 233.84 426.49 235.13 427.87 C 240.38 433.87 246.11 439.43 251.75 445.05 C 244.85 452.00 237.91 458.90 230.90 465.74 C 227.34 462.42 223.92 458.95 220.45 455.54 C 214.12 448.91 206.78 443.29 200.83 436.30 C 204.15 437.17 206.70 439.57 209.11 441.89 C 216.31 448.88 223.18 456.30 230.92 462.68 C 236.02 458.94 239.89 453.79 244.64 449.63 C 245.91 448.03 248.90 446.05 247.28 443.79 C 241.51 436.41 233.51 430.96 228.43 422.99 Z" data-index="28"></path>
<path fill="#ba3142" opacity="1.00" d=" M 419.43 441.66 C 423.61 440.90 428.03 441.24 431.92 443.05 C 439.80 446.36 444.72 455.36 443.45 463.79 C 442.46 469.59 439.09 475.02 433.94 478.01 C 428.99 481.47 422.47 481.51 416.84 479.97 C 409.86 477.18 404.09 470.70 403.56 463.00 C 402.33 453.25 409.68 443.21 419.43 441.66 M 421.43 443.51 C 415.86 444.40 410.04 447.18 407.46 452.47 C 405.10 456.56 404.31 461.64 406.06 466.11 C 408.52 472.16 413.66 477.33 420.13 478.89 C 425.87 480.99 431.56 477.27 436.03 474.01 C 444.13 467.46 443.30 453.94 435.49 447.52 C 431.56 444.46 426.39 442.90 421.43 443.51 Z" data-index="29"></path>
</g>
<g id="#ef2939ff">
<path fill="#ef2939" opacity="1.00" d=" M 365.46 179.55 C 385.96 178.99 406.49 179.47 427.00 179.32 C 445.89 179.28 464.78 179.32 483.68 179.33 C 483.58 187.09 483.87 194.86 483.50 202.61 C 477.61 205.05 471.17 203.86 465.00 203.96 C 440.00 204.01 415.00 203.74 390.00 203.97 C 384.89 204.01 379.78 203.32 374.68 203.71 C 372.24 203.80 369.76 204.20 367.36 203.65 C 365.07 202.89 365.00 200.06 364.93 198.07 C 365.07 191.90 365.08 185.72 365.46 179.55 Z" data-index="30"></path>
</g>
<g id="#151515ff">
<path fill="#151515" opacity="1.00" d=" M 276.05 293.83 C 279.70 293.93 283.21 292.78 286.60 291.55 C 287.09 291.81 288.06 292.32 288.54 292.58 C 281.84 297.00 273.56 295.21 266.04 295.37 C 221.03 295.29 176.01 295.35 131.00 295.34 C 125.83 295.36 120.63 295.61 115.51 294.80 C 115.97 294.49 116.90 293.88 117.36 293.57 C 121.57 293.88 125.79 293.83 130.00 293.82 C 178.68 293.86 227.37 293.82 276.05 293.83 Z" data-index="31"></path>
</g>
<g id="#1b1b1bff">
<path fill="#1b1b1b" opacity="1.00" d=" M 114.59 310.59 C 119.28 309.07 124.21 310.29 129.01 310.21 C 145.34 310.12 161.67 310.30 178.00 310.21 C 188.05 309.43 198.17 308.70 208.22 309.88 C 213.55 310.57 218.88 309.03 224.22 309.80 C 228.92 310.39 233.62 309.32 238.32 309.74 C 247.85 310.71 257.45 310.00 267.01 310.26 C 273.82 310.52 280.92 309.31 287.48 311.64 C 289.73 312.26 291.10 314.20 292.33 316.04 C 293.89 316.54 295.61 316.98 296.63 318.40 C 300.85 323.65 304.43 329.99 303.96 336.97 C 304.11 388.32 303.89 439.69 303.92 491.04 C 303.37 497.25 302.16 503.60 299.07 509.09 C 298.13 511.19 295.82 511.84 293.97 512.88 C 291.79 513.92 291.10 516.72 288.83 517.64 C 282.52 520.06 275.63 519.74 268.99 520.04 C 249.33 520.05 229.67 519.99 210.01 520.06 C 202.33 520.15 194.69 518.79 187.01 519.43 C 177.02 520.26 166.97 520.29 156.99 519.45 C 146.66 519.13 136.33 519.45 126.00 519.31 C 119.78 519.15 112.99 521.03 107.27 517.67 C 103.08 514.97 98.69 511.94 96.73 507.14 C 92.65 500.14 93.34 491.78 93.31 484.00 C 93.37 434.98 93.35 385.96 93.28 336.94 C 93.42 330.40 94.95 323.45 99.57 318.58 C 103.57 314.38 109.20 312.32 114.59 310.59 M 105.28 318.27 C 100.46 321.97 97.66 327.67 96.43 333.52 C 96.23 333.08 95.83 332.19 95.64 331.74 C 94.90 344.80 95.53 357.92 95.32 371.00 C 95.31 411.68 95.35 452.36 95.29 493.04 C 95.33 494.84 95.66 496.61 96.08 498.37 L 96.31 497.37 C 98.18 508.18 107.84 517.08 118.96 517.19 C 169.97 517.27 220.98 517.14 272.00 517.19 C 275.70 517.26 279.47 517.23 283.06 516.21 C 292.41 513.95 299.87 505.53 300.96 495.97 C 301.24 492.98 301.11 489.98 301.13 487.00 C 301.03 436.65 301.20 386.30 301.06 335.96 C 300.86 323.90 290.15 313.18 278.03 313.23 C 225.66 313.16 173.30 313.21 120.94 313.21 C 115.36 313.18 109.69 314.78 105.28 318.27 Z" data-index="32"></path>
</g>
<g id="#1f1f1fff">
<path fill="#1f1f1f" opacity="1.00" d=" M 504.36 309.74 C 509.04 309.75 513.43 311.62 517.69 313.36 C 525.64 316.33 530.16 324.97 530.74 333.08 C 531.37 342.71 530.79 352.36 530.87 362.00 C 531.13 397.34 530.65 432.67 530.92 468.00 C 530.70 477.64 531.15 487.29 530.71 496.92 C 530.67 501.33 528.35 505.19 526.30 508.95 C 524.25 512.97 520.03 515.10 516.29 517.27 C 508.12 522.03 498.28 520.81 489.26 520.45 C 482.17 519.32 475.10 521.02 468.00 520.81 C 444.00 520.78 420.00 520.69 396.00 520.80 C 389.23 521.26 382.50 519.79 375.74 520.46 C 367.18 521.21 358.58 520.55 350.00 520.87 C 343.53 521.23 337.03 519.68 331.36 516.58 C 329.60 515.36 329.15 512.89 327.22 511.84 C 321.03 508.90 319.32 501.30 319.08 495.05 C 319.05 442.35 319.17 389.65 318.99 336.95 C 319.24 332.44 319.40 327.66 321.69 323.63 C 324.20 319.58 328.11 316.69 331.82 313.81 C 336.96 309.80 343.86 310.12 350.03 309.95 C 389.68 309.85 429.34 310.07 469.00 309.94 C 480.78 309.94 492.58 310.19 504.36 309.74 M 322.06 335.91 C 322.03 388.63 322.04 441.35 322.05 494.07 C 321.86 506.71 333.54 517.50 345.98 517.37 C 397.98 517.45 449.99 517.42 501.99 517.36 C 508.07 517.56 514.14 515.57 518.97 511.90 C 523.52 508.26 526.27 502.93 527.68 497.37 L 528.04 498.37 C 528.60 496.30 528.96 494.17 528.98 492.03 C 528.81 467.02 528.88 442.01 528.84 417.00 C 529.21 390.31 528.60 363.62 529.10 336.93 C 528.87 334.84 529.70 331.77 527.23 330.77 C 524.48 320.21 514.02 312.38 503.06 313.20 C 450.37 313.25 397.67 313.16 344.98 313.24 C 332.98 313.34 322.24 323.90 322.06 335.91 Z" data-index="33"></path>
</g>
<g id="#0f0f0fff">
<path fill="#0f0f0f" opacity="1.00" d=" M 527.23 330.77 C 529.70 331.77 528.87 334.84 529.10 336.93 C 528.60 363.62 529.21 390.31 528.84 417.00 C 528.88 442.01 528.81 467.02 528.98 492.03 C 528.96 494.17 528.60 496.30 528.04 498.37 L 527.68 497.37 C 527.95 444.90 527.68 392.42 527.81 339.95 C 527.84 336.88 527.74 333.80 527.23 330.77 Z" data-index="34"></path>
</g>
<g id="#fec5caff">
<path fill="#fec5ca" opacity="1.00" d=" M 362.34 399.33 C 367.54 398.87 372.77 398.76 378.00 398.88 C 403.67 398.90 429.33 398.82 455.00 398.86 C 465.28 398.89 475.58 398.67 485.85 399.31 C 486.66 409.09 486.68 418.98 485.81 428.76 C 444.63 428.81 403.44 428.77 362.26 428.78 C 362.26 418.97 362.21 409.15 362.34 399.33 M 363.06 405.98 C 363.20 413.27 363.00 420.57 363.19 427.86 C 397.79 428.27 432.39 427.94 467.00 428.04 C 473.16 427.91 479.36 428.39 485.50 427.64 L 484.78 427.38 C 485.51 418.25 485.07 409.07 485.11 399.92 C 444.63 399.90 404.15 400.07 363.67 399.82 C 363.14 401.83 363.00 403.91 363.06 405.98 Z" data-index="35"></path>
</g>
<g id="#ba3a4dff">
<path fill="#ba3a4d" opacity="1.00" d=" M 363.06 405.98 C 363.00 403.91 363.14 401.83 363.67 399.82 C 363.92 400.82 364.16 401.84 364.38 402.86 C 365.89 409.70 363.98 416.77 365.33 423.60 C 367.01 426.52 371.07 425.98 373.96 426.24 C 399.97 425.50 425.98 426.30 452.00 426.09 C 462.05 426.27 472.14 425.54 482.17 426.51 C 483.04 426.77 483.91 427.06 484.78 427.38 L 485.50 427.64 C 479.36 428.39 473.16 427.91 467.00 428.04 C 432.39 427.94 397.79 428.27 363.19 427.86 C 363.00 420.57 363.20 413.27 363.06 405.98 Z" data-index="36"></path>
</g>
<g id="#aa363fff">
<path fill="#aa363f" opacity="1.00" d=" M 363.67 399.82 C 404.15 400.07 444.63 399.90 485.11 399.92 C 485.07 409.07 485.51 418.25 484.78 427.38 C 483.91 427.06 483.04 426.77 482.17 426.51 C 482.98 424.45 483.76 422.32 483.79 420.08 C 483.93 413.90 483.75 407.71 483.48 401.53 C 447.67 401.01 411.83 401.56 376.00 401.27 C 372.08 401.21 367.90 400.74 364.38 402.86 C 364.16 401.84 363.92 400.82 363.67 399.82 Z" data-index="37"></path>
</g>
<g id="#fecbccff">
<path fill="#fecbcc" opacity="1.00" d=" M 177.27 412.03 C 178.03 412.77 178.78 413.51 179.53 414.27 C 176.69 417.88 173.48 421.17 170.06 424.23 C 171.29 419.37 177.20 417.40 177.27 412.03 Z" data-index="38"></path>
</g>
<g id="#060606ff">
<path fill="#060606" opacity="1.00" d=" M 115.52 568.94 C 123.20 566.92 131.17 568.00 139.01 567.72 C 256.34 567.83 373.67 567.69 491.00 567.79 C 497.17 567.68 503.41 567.35 509.46 568.88 C 506.97 569.23 504.48 569.47 501.98 569.49 C 375.33 569.50 248.68 569.48 122.03 569.50 C 119.85 569.49 117.67 569.28 115.52 568.94 Z" data-index="39"></path>
</g>
</svg>