<svg width="819pt" height="819pt" viewBox="0 0 819 819" version="1.1" xmlns="http://www.w3.org/2000/svg">
<g id="#ffffffff">

</g>
<g id="#a42b32ff">
<path fill="#a42b32" opacity="1.00" d=" M 325.34 37.28 C 356.13 31.00 387.55 27.25 419.02 28.42 C 440.87 28.57 462.59 31.55 484.07 35.38 C 536.78 45.63 587.29 66.99 631.43 97.56 C 635.53 100.34 639.07 104.77 638.79 109.98 C 639.08 114.48 637.02 118.74 633.89 121.85 C 626.14 129.79 618.66 137.97 610.90 145.89 C 608.18 148.71 605.24 151.35 602.90 154.51 C 621.79 159.11 640.93 162.69 659.88 167.06 C 667.82 168.91 675.91 170.13 683.75 172.40 C 685.25 172.91 686.74 173.47 688.23 174.05 C 683.41 174.96 678.78 172.93 674.17 171.87 C 665.99 169.79 657.58 168.84 649.41 166.72 C 639.38 164.28 629.18 162.61 619.21 159.95 C 614.20 158.65 608.91 158.59 604.02 156.85 C 601.46 156.12 601.96 152.82 602.97 151.03 C 605.40 148.13 608.65 146.03 610.99 143.03 C 615.53 137.25 621.46 132.80 626.17 127.17 C 630.93 121.99 637.69 116.87 637.18 109.02 C 636.12 103.25 630.76 99.85 626.46 96.51 C 619.81 91.22 612.28 87.29 605.05 82.89 C 592.37 75.08 578.49 69.51 565.37 62.51 C 549.60 55.83 533.59 49.57 517.08 44.96 C 502.04 40.38 486.49 37.87 471.07 34.99 C 459.84 32.76 448.41 31.63 437.00 30.94 C 427.31 30.88 417.68 29.41 407.99 29.72 C 400.99 29.61 394.04 30.45 387.08 30.90 C 365.19 31.00 343.80 36.17 322.31 39.71 C 309.62 42.75 296.95 46.11 284.72 50.72 C 276.01 53.98 267.11 56.82 258.63 60.68 C 242.10 68.52 225.20 75.82 209.87 85.90 C 188.97 98.76 168.81 113.06 150.96 129.97 C 145.27 135.64 138.51 140.19 133.60 146.63 C 114.77 165.77 98.11 187.05 83.82 209.79 C 77.40 221.37 69.63 232.26 64.67 244.61 C 52.06 271.34 40.71 299.06 35.45 328.29 C 33.54 337.06 31.29 345.79 30.65 354.78 C 29.86 362.31 25.64 371.12 31.20 377.81 C 35.43 384.17 46.56 385.88 51.19 379.17 C 54.12 375.26 55.03 370.33 56.66 365.82 C 56.79 367.26 56.91 368.70 57.00 370.15 C 56.58 373.93 55.66 377.99 52.74 380.67 C 47.88 385.89 39.01 387.28 33.25 382.78 C 29.06 379.99 26.73 374.98 26.73 370.02 C 34.57 292.16 67.88 217.25 119.61 158.62 C 131.82 144.93 144.95 132.04 158.79 120.03 C 187.27 96.56 218.58 76.35 252.41 61.51 C 275.86 51.06 300.33 43.03 325.34 37.28 Z" data-index="1"></path>
</g>
<g id="#dc1721ff">
<path fill="#dc1721" opacity="1.00" d=" M 387.08 30.90 C 394.04 30.45 400.99 29.61 407.99 29.72 C 417.68 29.41 427.31 30.88 437.00 30.94 C 448.41 31.63 459.84 32.76 471.07 34.99 C 486.49 37.87 502.04 40.38 517.08 44.96 C 533.59 49.57 549.60 55.83 565.37 62.51 C 578.49 69.51 592.37 75.08 605.05 82.89 C 612.28 87.29 619.81 91.22 626.46 96.51 C 630.76 99.85 636.12 103.25 637.18 109.02 C 637.69 116.87 630.93 121.99 626.17 127.17 C 621.46 132.80 615.53 137.25 610.99 143.03 C 608.65 146.03 605.40 148.13 602.97 151.03 C 601.96 152.82 601.46 156.12 604.02 156.85 C 608.91 158.59 614.20 158.65 619.21 159.95 C 629.18 162.61 639.38 164.28 649.41 166.72 C 657.58 168.84 665.99 169.79 674.17 171.87 C 678.78 172.93 683.41 174.96 688.23 174.05 C 686.74 173.47 685.25 172.91 683.75 172.40 C 684.75 172.45 686.75 172.54 687.75 172.59 C 687.30 169.98 686.69 167.40 686.19 164.80 C 686.96 167.38 687.98 169.88 689.19 172.29 C 689.32 169.74 688.95 167.19 688.15 164.77 C 686.42 159.35 685.50 153.71 683.66 148.32 C 681.73 142.62 680.91 136.62 679.14 130.88 C 676.69 122.97 675.23 114.80 673.21 106.78 C 669.33 90.46 663.44 74.59 661.26 57.90 C 660.90 53.77 664.30 50.65 667.05 48.06 C 670.83 44.32 677.39 44.17 681.39 47.63 C 685.60 51.30 687.81 56.67 689.06 61.99 C 691.62 72.58 694.08 83.21 697.37 93.60 C 701.21 110.72 705.74 127.67 710.20 144.63 C 711.79 153.96 715.61 162.70 717.24 172.02 C 718.45 178.46 721.31 184.51 721.99 191.07 C 722.62 196.76 719.04 202.90 713.37 204.43 C 705.15 207.21 696.86 203.43 688.76 202.11 C 679.92 200.73 671.40 197.88 662.61 196.28 C 643.15 192.59 623.95 187.68 604.42 184.39 C 593.42 180.54 581.67 179.83 570.51 176.59 C 564.43 174.97 559.55 169.18 559.55 162.81 C 560.44 158.37 563.68 154.85 566.43 151.40 C 575.51 141.49 585.43 132.38 594.42 122.39 C 596.68 119.67 600.71 117.64 600.66 113.65 C 600.47 113.32 600.08 112.66 599.89 112.33 C 597.46 107.97 592.74 105.85 588.61 103.47 C 575.63 96.61 562.48 90.04 549.06 84.08 C 531.09 76.69 512.45 71.07 493.58 66.50 C 473.43 61.45 452.79 58.44 432.05 57.40 C 420.37 57.25 408.68 57.23 397.00 57.21 C 385.47 57.17 373.99 58.44 362.54 59.64 C 355.34 60.61 348.05 61.21 340.99 63.02 C 333.71 64.91 326.14 65.57 319.02 68.08 C 303.97 72.06 289.02 76.61 274.70 82.76 C 271.32 84.10 267.80 85.08 264.51 86.65 C 252.93 92.73 240.80 97.76 229.59 104.56 C 220.23 109.59 211.73 116.03 202.93 121.97 C 182.68 135.59 164.67 152.22 147.52 169.50 C 137.77 180.78 127.87 191.98 119.19 204.12 C 113.60 213.15 106.90 221.45 101.83 230.81 C 92.92 247.43 83.93 264.06 76.78 281.54 C 75.15 286.08 74.19 290.84 72.33 295.31 C 68.01 306.28 65.52 317.83 62.31 329.15 C 61.25 333.54 60.64 338.03 59.71 342.45 C 58.40 349.33 56.73 356.31 57.54 363.37 C 57.71 365.64 57.46 367.92 57.00 370.15 C 56.91 368.70 56.79 367.26 56.66 365.82 C 55.03 370.33 54.12 375.26 51.19 379.17 C 46.56 385.88 35.43 384.17 31.20 377.81 C 25.64 371.12 29.86 362.31 30.65 354.78 C 31.29 345.79 33.54 337.06 35.45 328.29 C 40.71 299.06 52.06 271.34 64.67 244.61 C 69.63 232.26 77.40 221.37 83.82 209.79 C 98.11 187.05 114.77 165.77 133.60 146.63 C 138.51 140.19 145.27 135.64 150.96 129.97 C 168.81 113.06 188.97 98.76 209.87 85.90 C 225.20 75.82 242.10 68.52 258.63 60.68 C 267.11 56.82 276.01 53.98 284.72 50.72 C 296.95 46.11 309.62 42.75 322.31 39.71 C 343.80 36.17 365.19 31.00 387.08 30.90 Z" data-index="2"></path>
</g>
<g id="#9c262dff">
<path fill="#9c262d" opacity="1.00" d=" M 659.69 62.43 C 657.28 54.13 663.47 44.57 672.10 43.63 C 679.50 42.51 687.10 47.73 688.89 54.98 C 700.17 99.77 712.08 144.41 723.41 189.19 C 725.58 196.81 720.52 205.58 712.81 207.34 C 704.68 208.24 696.74 205.54 688.88 203.90 C 648.86 195.06 608.73 186.77 568.71 177.99 C 560.87 175.87 555.77 166.43 558.76 158.79 C 560.72 152.96 566.31 149.61 570.03 145.01 C 574.95 138.95 580.96 133.95 586.18 128.18 C 591.01 123.34 595.54 118.19 600.66 113.65 C 600.71 117.64 596.68 119.67 594.42 122.39 C 585.43 132.38 575.51 141.49 566.43 151.40 C 563.68 154.85 560.44 158.37 559.55 162.81 C 559.55 169.18 564.43 174.97 570.51 176.59 C 581.67 179.83 593.42 180.54 604.42 184.39 C 623.95 187.68 643.15 192.59 662.61 196.28 C 671.40 197.88 679.92 200.73 688.76 202.11 C 696.86 203.43 705.15 207.21 713.37 204.43 C 719.04 202.90 722.62 196.76 721.99 191.07 C 721.31 184.51 718.45 178.46 717.24 172.02 C 715.61 162.70 711.79 153.96 710.20 144.63 C 705.74 127.67 701.21 110.72 697.37 93.60 C 694.08 83.21 691.62 72.58 689.06 61.99 C 687.81 56.67 685.60 51.30 681.39 47.63 C 677.39 44.17 670.83 44.32 667.05 48.06 C 664.30 50.65 660.90 53.77 661.26 57.90 C 663.44 74.59 669.33 90.46 673.21 106.78 C 675.23 114.80 676.69 122.97 679.14 130.88 C 680.91 136.62 681.73 142.62 683.66 148.32 C 685.50 153.71 686.42 159.35 688.15 164.77 C 688.95 167.19 689.32 169.74 689.19 172.29 C 687.98 169.88 686.96 167.38 686.19 164.80 C 677.16 130.73 668.60 96.53 659.69 62.43 Z" data-index="3"></path>
<path fill="#9c262d" opacity="1.00" d=" M 130.89 650.09 C 130.47 648.60 131.02 647.11 131.52 645.73 L 131.96 646.73 C 136.92 664.04 140.11 681.79 144.75 699.19 C 149.20 718.63 154.29 737.92 158.70 757.38 C 160.74 764.50 156.44 772.93 149.36 775.29 C 143.03 777.86 135.11 775.22 131.57 769.39 C 128.60 764.50 128.30 758.62 126.82 753.21 C 125.70 748.15 123.94 743.23 123.18 738.09 C 123.23 736.62 123.31 735.15 123.41 733.69 C 125.84 740.32 126.70 747.39 128.90 754.10 C 130.56 758.92 130.96 764.20 133.33 768.76 C 136.41 772.26 141.08 775.05 145.89 774.55 C 150.88 773.63 156.09 770.21 156.77 764.80 C 158.13 756.00 154.25 747.55 152.85 738.99 C 149.04 727.48 146.80 715.57 144.16 703.76 C 141.50 694.37 139.64 684.80 137.53 675.29 C 134.97 666.98 132.93 658.53 130.89 650.09 Z" data-index="4"></path>
</g>
<g id="#a63c3cff">
<path fill="#a63c3c" opacity="1.00" d=" M 362.54 59.64 C 373.99 58.44 385.47 57.17 397.00 57.21 C 408.68 57.23 420.37 57.25 432.05 57.40 C 452.79 58.44 473.43 61.45 493.58 66.50 C 512.45 71.07 531.09 76.69 549.06 84.08 C 562.48 90.04 575.63 96.61 588.61 103.47 C 592.74 105.85 597.46 107.97 599.89 112.33 C 595.82 110.52 592.13 107.99 588.27 105.79 C 534.32 74.82 472.22 58.13 410.00 58.26 C 392.62 58.15 375.25 59.52 358.04 61.86 C 341.54 63.87 325.43 68.15 309.41 72.44 C 281.63 80.56 254.96 92.27 229.90 106.69 C 224.56 109.28 219.55 112.48 214.75 115.95 C 208.40 120.16 202.13 124.50 195.96 128.98 C 191.59 132.26 187.59 136.01 183.11 139.16 C 144.57 170.52 113.03 210.33 91.00 254.85 C 89.12 258.15 87.38 261.53 86.04 265.09 C 76.02 288.06 67.72 311.86 62.60 336.42 C 60.77 345.38 59.47 354.43 57.54 363.37 C 56.73 356.31 58.40 349.33 59.71 342.45 C 60.64 338.03 61.25 333.54 62.31 329.15 C 65.52 317.83 68.01 306.28 72.33 295.31 C 74.19 290.84 75.15 286.08 76.78 281.54 C 83.93 264.06 92.92 247.43 101.83 230.81 C 106.90 221.45 113.60 213.15 119.19 204.12 C 127.87 191.98 137.77 180.78 147.52 169.50 C 164.67 152.22 182.68 135.59 202.93 121.97 C 211.73 116.03 220.23 109.59 229.59 104.56 C 240.80 97.76 252.93 92.73 264.51 86.65 C 267.80 85.08 271.32 84.10 274.70 82.76 C 289.02 76.61 303.97 72.06 319.02 68.08 C 326.14 65.57 333.71 64.91 340.99 63.02 C 348.05 61.21 355.34 60.61 362.54 59.64 Z" data-index="5"></path>
</g>
<g id="#f9c2c4ff">
<path fill="#f9c2c4" opacity="1.00" d=" M 214.75 115.95 C 219.55 112.48 224.56 109.28 229.90 106.69 C 226.10 111.31 220.32 114.07 214.75 115.95 Z" data-index="6"></path>
</g>
<g id="#eeaaafff">
<path fill="#eeaaaf" opacity="1.00" d=" M 86.04 265.09 C 87.38 261.53 89.12 258.15 91.00 254.85 C 90.31 258.65 88.76 262.30 86.04 265.09 Z" data-index="7"></path>
</g>
<g id="#000000ff">
<path fill="#000000" opacity="1.00" d=" M 399.46 282.87 C 411.20 281.04 423.31 282.43 434.45 286.51 C 450.52 293.14 464.32 305.76 471.23 321.83 C 476.72 334.26 478.54 348.32 475.85 361.68 C 472.49 379.70 461.28 396.09 445.71 405.75 C 432.06 414.53 415.08 418.14 399.06 415.33 C 383.73 412.71 369.22 404.74 359.18 392.80 C 349.04 381.35 343.44 366.22 342.82 350.99 C 342.44 333.96 348.65 316.77 360.22 304.20 C 370.38 292.91 384.38 285.08 399.46 282.87 Z" data-index="8"></path>
<path fill="#000000" opacity="1.00" d=" M 226.42 296.68 C 240.44 294.70 255.39 297.60 266.88 306.13 C 279.61 314.99 288.11 329.50 289.72 344.91 C 291.10 355.06 288.91 365.45 284.68 374.69 C 278.84 386.93 268.26 396.72 255.79 401.95 C 242.29 407.17 226.83 407.11 213.44 401.59 C 200.83 396.01 190.26 385.79 184.78 373.10 C 179.18 360.86 178.45 346.38 182.80 333.66 C 189.03 314.54 206.42 299.48 226.42 296.68 Z" data-index="9"></path>
<path fill="#000000" opacity="1.00" d=" M 575.47 296.79 C 588.08 294.97 601.57 296.69 612.58 303.42 C 622.87 309.55 631.28 318.93 635.81 330.07 C 641.26 343.21 641.36 358.55 635.79 371.67 C 630.62 384.23 620.70 394.70 608.50 400.64 C 594.72 407.18 578.31 407.40 564.14 401.96 C 553.57 397.39 544.15 389.81 538.15 379.91 C 529.23 365.68 527.21 347.21 533.48 331.55 C 539.92 313.59 556.65 299.84 575.47 296.79 Z" data-index="10"></path>
<path fill="#000000" opacity="1.00" d=" M 162.35 417.33 C 169.71 411.44 177.32 405.60 186.06 401.91 C 188.19 403.01 189.86 404.80 191.76 406.23 C 202.80 415.28 216.86 420.17 231.01 421.20 C 243.09 421.90 255.22 419.21 266.16 414.13 C 272.66 410.90 278.37 406.38 283.90 401.74 C 293.41 406.17 301.88 412.44 309.94 419.08 C 305.18 424.24 299.68 428.72 295.23 434.18 C 276.47 455.65 264.21 482.49 259.64 510.60 C 251.43 510.73 243.21 510.75 235.00 511.20 C 221.64 510.51 208.23 510.94 194.88 509.81 C 170.85 508.76 146.92 506.13 123.16 502.40 C 123.16 477.25 131.80 452.15 147.66 432.58 C 152.34 427.30 156.81 421.76 162.35 417.33 Z" data-index="11"></path>
<path fill="#000000" opacity="1.00" d=" M 510.15 419.00 C 518.03 412.25 526.61 406.11 536.09 401.80 C 541.22 406.13 546.51 410.35 552.52 413.42 C 568.12 421.40 586.73 423.56 603.63 418.66 C 613.99 415.96 623.54 410.59 631.52 403.49 C 632.42 402.93 633.48 401.49 634.65 402.32 C 672.19 420.24 697.23 460.88 696.78 502.44 C 651.67 509.60 605.89 511.85 560.28 510.61 C 557.20 492.25 551.15 474.30 541.75 458.20 C 533.55 443.67 522.64 430.80 510.31 419.63 L 510.15 419.00 Z" data-index="12"></path>
<path fill="#000000" opacity="1.00" d=" M 319.02 432.12 C 328.64 423.80 339.05 416.20 350.73 411.02 C 372.19 432.21 405.37 440.25 434.18 431.38 C 447.41 427.89 459.12 420.18 469.30 411.22 C 473.05 412.18 476.11 414.80 479.58 416.46 C 510.28 434.55 533.37 465.13 542.13 499.71 C 544.83 510.96 546.76 522.52 546.47 534.13 C 534.61 535.21 522.89 537.38 511.05 538.60 C 436.43 547.18 360.72 546.25 286.35 535.67 C 282.08 535.09 277.80 534.48 273.50 534.18 C 273.03 495.72 290.32 457.61 319.02 432.12 Z" data-index="13"></path>
</g>
<g id="#b33342ff">
<path fill="#b33342" opacity="1.00" d=" M 768.35 319.38 C 776.39 316.76 785.65 322.71 787.12 330.95 C 790.72 348.43 793.75 366.12 794.50 383.97 C 795.25 393.32 785.15 401.18 776.26 398.91 C 771.49 397.70 767.04 394.37 765.36 389.64 C 764.33 386.89 764.32 383.92 764.01 381.05 C 763.10 368.50 761.25 356.04 758.77 343.71 C 757.95 338.86 756.50 333.82 757.92 328.94 C 759.52 324.28 763.61 320.64 768.35 319.38 M 772.41 321.35 C 768.86 321.76 764.47 322.01 762.37 325.39 C 760.71 327.87 758.77 330.63 759.18 333.79 C 759.79 340.72 761.57 347.49 762.41 354.40 C 763.38 363.96 765.90 373.34 765.84 383.00 C 765.62 392.42 777.03 400.80 785.64 395.66 C 790.31 392.51 794.24 386.88 793.27 381.00 C 792.55 371.80 790.45 362.78 789.52 353.60 C 789.09 348.77 787.85 344.08 786.64 339.41 C 785.57 335.36 785.58 331.00 783.80 327.17 C 780.72 324.31 776.95 320.83 772.41 321.35 Z" data-index="14"></path>
</g>
<g id="#db1720ff">
<path fill="#db1720" opacity="1.00" d=" M 772.41 321.35 C 776.95 320.83 780.72 324.31 783.80 327.17 C 785.58 331.00 785.57 335.36 786.64 339.41 C 787.85 344.08 789.09 348.77 789.52 353.60 C 790.45 362.78 792.55 371.80 793.27 381.00 C 794.24 386.88 790.31 392.51 785.64 395.66 C 777.03 400.80 765.62 392.42 765.84 383.00 C 765.90 373.34 763.38 363.96 762.41 354.40 C 761.57 347.49 759.79 340.72 759.18 333.79 C 758.77 330.63 760.71 327.87 762.37 325.39 C 764.47 322.01 768.86 321.76 772.41 321.35 Z" data-index="15"></path>
</g>
<g id="#a22f37ff">
<path fill="#a22f37" opacity="1.00" d=" M 25.61 433.38 C 26.82 427.33 31.70 421.84 37.95 420.87 C 46.41 419.45 55.43 426.27 55.60 435.05 C 55.90 442.06 57.32 449.00 57.34 456.00 C 52.06 447.53 56.76 436.28 51.13 427.92 C 46.18 421.12 34.80 420.97 30.03 428.08 C 25.15 433.62 27.09 441.36 28.02 447.93 C 30.26 459.62 30.49 471.64 33.69 483.14 C 35.03 487.73 35.44 493.35 39.76 496.27 C 44.42 499.99 51.36 499.40 56.07 496.09 C 59.98 492.43 61.83 486.63 60.47 481.40 C 58.93 474.64 56.90 467.78 58.12 460.78 C 59.66 466.68 60.17 472.80 61.57 478.74 C 62.67 483.85 63.64 489.78 60.30 494.31 C 56.24 500.79 47.22 503.08 40.54 499.33 C 35.89 497.01 33.21 492.00 32.34 487.04 C 29.60 473.45 27.51 459.73 26.19 445.93 C 25.79 441.76 25.13 437.56 25.61 433.38 Z" data-index="16"></path>
</g>
<g id="#dc1620ff">
<path fill="#dc1620" opacity="1.00" d=" M 30.03 428.08 C 34.80 420.97 46.18 421.12 51.13 427.92 C 56.76 436.28 52.06 447.53 57.34 456.00 C 58.18 457.44 58.30 459.14 58.12 460.78 C 56.90 467.78 58.93 474.64 60.47 481.40 C 61.83 486.63 59.98 492.43 56.07 496.09 C 51.36 499.40 44.42 499.99 39.76 496.27 C 35.44 493.35 35.03 487.73 33.69 483.14 C 30.49 471.64 30.26 459.62 28.02 447.93 C 27.09 441.36 25.15 433.62 30.03 428.08 Z" data-index="17"></path>
<path fill="#dc1620" opacity="1.00" d=" M 766.25 446.11 C 767.31 441.66 770.76 437.55 775.28 436.42 C 783.73 434.48 792.32 442.77 791.38 451.21 C 789.20 473.91 783.81 496.14 778.09 518.17 C 775.60 527.22 772.08 535.94 768.79 544.72 C 765.71 552.54 762.82 560.46 758.86 567.89 C 750.06 585.90 741.41 604.21 729.26 620.29 C 726.04 624.77 723.59 629.79 720.05 634.05 C 713.95 641.64 707.87 649.23 701.93 656.95 C 689.35 670.99 675.89 684.27 661.46 696.42 C 657.91 699.57 654.70 703.13 650.73 705.79 C 645.99 708.99 641.75 712.86 637.00 716.05 C 624.88 724.34 613.04 733.12 600.10 740.11 C 586.74 747.38 573.12 754.19 559.12 760.12 C 549.55 763.28 540.51 767.87 530.84 770.75 C 501.08 780.44 470.18 786.76 438.94 789.01 C 432.63 789.26 426.31 789.34 420.02 789.92 C 390.23 790.67 360.35 787.92 331.22 781.68 C 324.45 779.78 317.38 779.22 310.69 777.07 C 300.55 773.38 289.77 771.61 279.93 767.05 C 274.51 764.42 268.47 763.50 263.03 760.95 C 259.38 759.24 255.70 757.62 252.04 755.93 C 248.36 754.26 244.79 751.68 240.53 752.24 C 236.36 751.47 232.79 748.79 229.03 746.95 C 230.52 747.39 232.04 747.73 233.57 748.09 C 227.99 743.35 220.91 741.01 214.72 737.23 C 205.93 731.78 197.06 726.41 188.87 720.09 C 184.73 716.78 181.69 711.01 183.89 705.75 C 186.33 697.91 194.10 694.03 198.99 687.96 C 204.27 681.60 211.15 676.80 216.45 670.44 C 217.79 669.07 217.85 667.10 218.13 665.33 C 210.35 661.68 201.74 660.82 193.55 658.51 C 187.84 656.99 182.01 656.05 176.29 654.57 C 165.67 651.71 154.74 650.25 144.04 647.75 C 139.95 646.69 135.82 645.15 131.52 645.73 C 131.02 647.11 130.47 648.60 130.89 650.09 C 132.93 658.53 134.97 666.98 137.53 675.29 C 139.64 684.80 141.50 694.37 144.16 703.76 C 146.80 715.57 149.04 727.48 152.85 738.99 C 154.25 747.55 158.13 756.00 156.77 764.80 C 156.09 770.21 150.88 773.63 145.89 774.55 C 141.08 775.05 136.41 772.26 133.33 768.76 C 130.96 764.20 130.56 758.92 128.90 754.10 C 126.70 747.39 125.84 740.32 123.41 733.69 C 123.31 735.15 123.23 736.62 123.18 738.09 C 121.95 734.06 120.94 729.97 120.14 725.83 C 120.81 727.31 121.52 728.78 122.24 730.25 C 121.81 726.14 120.97 722.11 119.92 718.13 C 116.06 701.45 112.34 684.72 107.78 668.21 C 105.56 657.01 102.79 645.94 100.11 634.85 C 99.35 631.09 98.33 627.18 99.16 623.36 C 101.02 616.80 108.11 612.46 114.80 613.41 C 124.03 614.90 132.91 619.17 142.41 618.55 C 143.66 618.48 144.88 618.79 146.09 619.05 C 145.23 619.15 143.52 619.35 142.66 619.45 C 148.56 622.27 155.19 622.71 161.41 624.51 C 181.42 629.16 201.54 633.34 221.41 638.56 C 231.06 640.51 240.66 642.71 250.25 644.97 C 257.77 646.67 262.44 656.08 258.93 662.98 C 251.59 672.53 242.36 680.40 234.32 689.34 C 229.84 694.18 224.68 698.35 220.32 703.30 C 218.30 705.17 218.49 708.68 220.93 710.10 C 226.87 714.44 233.61 717.54 240.04 721.07 C 251.17 727.39 263.15 731.96 274.77 737.26 C 288.26 743.28 302.56 747.18 316.73 751.21 C 337.04 756.93 358.01 759.75 378.94 762.06 C 393.59 763.43 408.31 762.67 423.00 762.83 C 430.44 762.96 437.88 762.50 445.25 761.46 C 462.64 759.92 480.14 758.06 496.92 753.02 C 512.50 749.21 527.59 743.70 542.79 738.67 C 560.61 731.11 578.17 722.83 594.77 712.86 C 613.30 701.90 630.57 688.90 646.83 674.83 C 654.18 668.88 660.45 661.77 667.49 655.48 C 672.05 651.35 675.68 646.35 680.05 642.04 C 687.62 634.46 693.28 625.28 700.02 617.01 C 706.15 609.21 710.51 600.24 716.21 592.14 C 720.59 585.93 723.68 578.96 727.24 572.27 C 731.31 564.86 734.72 557.13 738.47 549.57 C 742.20 541.78 744.10 533.29 747.42 525.34 C 750.48 518.27 752.11 510.72 754.36 503.37 C 757.54 492.58 759.80 481.56 761.76 470.49 C 762.26 467.82 761.98 465.11 761.70 462.45 C 762.02 457.33 762.65 452.21 763.16 447.10 C 762.96 450.48 763.13 453.87 763.35 457.25 C 764.52 453.59 765.29 449.82 766.25 446.11 Z" data-index="18"></path>
</g>
<g id="#aa2a34ff">
<path fill="#aa2a34" opacity="1.00" d=" M 763.16 447.10 C 764.57 439.88 771.45 433.80 778.98 434.52 C 787.24 434.79 794.27 442.78 793.28 451.05 C 788.75 491.66 777.93 531.63 760.76 568.73 C 741.47 610.16 715.19 648.52 682.28 680.33 C 677.00 685.37 672.23 690.96 666.31 695.30 C 627.96 728.99 582.96 755.16 534.52 771.32 C 496.76 784.34 456.89 790.95 416.99 791.64 C 374.67 792.14 332.12 786.39 291.84 773.20 C 275.54 768.36 259.78 761.85 244.42 754.58 C 243.06 753.91 241.77 753.08 240.53 752.24 C 244.79 751.68 248.36 754.26 252.04 755.93 C 255.70 757.62 259.38 759.24 263.03 760.95 C 268.47 763.50 274.51 764.42 279.93 767.05 C 289.77 771.61 300.55 773.38 310.69 777.07 C 317.38 779.22 324.45 779.78 331.22 781.68 C 360.35 787.92 390.23 790.67 420.02 789.92 C 426.31 789.34 432.63 789.26 438.94 789.01 C 470.18 786.76 501.08 780.44 530.84 770.75 C 540.51 767.87 549.55 763.28 559.12 760.12 C 573.12 754.19 586.74 747.38 600.10 740.11 C 613.04 733.12 624.88 724.34 637.00 716.05 C 641.75 712.86 645.99 708.99 650.73 705.79 C 654.70 703.13 657.91 699.57 661.46 696.42 C 675.89 684.27 689.35 670.99 701.93 656.95 C 707.87 649.23 713.95 641.64 720.05 634.05 C 723.59 629.79 726.04 624.77 729.26 620.29 C 741.41 604.21 750.06 585.90 758.86 567.89 C 762.82 560.46 765.71 552.54 768.79 544.72 C 772.08 535.94 775.60 527.22 778.09 518.17 C 783.81 496.14 789.20 473.91 791.38 451.21 C 792.32 442.77 783.73 434.48 775.28 436.42 C 770.76 437.55 767.31 441.66 766.25 446.11 C 765.29 449.82 764.52 453.59 763.35 457.25 C 763.13 453.87 762.96 450.48 763.16 447.10 Z" data-index="19"></path>
</g>
<g id="#a72e36ff">
<path fill="#a72e36" opacity="1.00" d=" M 761.70 462.45 C 761.98 465.11 762.26 467.82 761.76 470.49 C 759.80 481.56 757.54 492.58 754.36 503.37 C 752.11 510.72 750.48 518.27 747.42 525.34 C 744.10 533.29 742.20 541.78 738.47 549.57 C 734.72 557.13 731.31 564.86 727.24 572.27 C 723.68 578.96 720.59 585.93 716.21 592.14 C 710.51 600.24 706.15 609.21 700.02 617.01 C 693.28 625.28 687.62 634.46 680.05 642.04 C 675.68 646.35 672.05 651.35 667.49 655.48 C 660.45 661.77 654.18 668.88 646.83 674.83 C 630.57 688.90 613.30 701.90 594.77 712.86 C 578.17 722.83 560.61 731.11 542.79 738.67 C 527.59 743.70 512.50 749.21 496.92 753.02 C 480.14 758.06 462.64 759.92 445.25 761.46 C 437.88 762.50 430.44 762.96 423.00 762.83 C 408.31 762.67 393.59 763.43 378.94 762.06 C 358.01 759.75 337.04 756.93 316.73 751.21 C 302.56 747.18 288.26 743.28 274.77 737.26 C 263.15 731.96 251.17 727.39 240.04 721.07 C 233.61 717.54 226.87 714.44 220.93 710.10 C 218.49 708.68 218.30 705.17 220.32 703.30 C 224.68 698.35 229.84 694.18 234.32 689.34 C 242.36 680.40 251.59 672.53 258.93 662.98 C 262.44 656.08 257.77 646.67 250.25 644.97 C 240.66 642.71 231.06 640.51 221.41 638.56 C 201.54 633.34 181.42 629.16 161.41 624.51 C 155.19 622.71 148.56 622.27 142.66 619.45 C 143.52 619.35 145.23 619.15 146.09 619.05 C 157.59 621.51 168.92 624.75 180.49 626.95 C 202.97 632.12 225.37 637.68 247.92 642.59 C 252.85 643.62 258.08 645.88 260.32 650.73 C 263.86 656.66 262.20 664.62 257.16 669.16 C 245.16 680.87 233.60 693.02 221.63 704.76 C 220.89 705.46 220.15 706.18 219.43 706.91 C 220.61 707.65 221.80 708.40 223.00 709.15 C 248.86 724.95 276.77 737.30 305.71 746.26 C 345.19 758.34 386.76 763.27 427.98 761.42 C 446.89 759.78 465.97 758.61 484.46 754.01 C 543.40 741.69 599.01 713.96 644.46 674.48 C 657.98 662.37 671.18 649.79 682.78 635.80 C 708.64 604.78 729.62 569.54 743.50 531.56 C 749.12 515.66 754.29 499.54 757.50 482.96 C 759.01 476.14 759.88 469.18 761.70 462.45 Z" data-index="20"></path>
</g>
<g id="#9f3139ff">
<path fill="#9f3139" opacity="1.00" d=" M 97.75 620.37 C 100.82 613.40 109.51 610.05 116.66 612.26 C 125.22 614.44 134.04 615.71 142.41 618.55 C 132.91 619.17 124.03 614.90 114.80 613.41 C 108.11 612.46 101.02 616.80 99.16 623.36 C 98.33 627.18 99.35 631.09 100.11 634.85 C 102.79 645.94 105.56 657.01 107.78 668.21 C 112.34 684.72 116.06 701.45 119.92 718.13 C 120.97 722.11 121.81 726.14 122.24 730.25 C 121.52 728.78 120.81 727.31 120.14 725.83 C 117.61 720.91 117.76 715.26 116.20 710.05 C 112.88 694.27 108.44 678.75 105.06 662.99 C 102.91 654.56 101.14 646.05 98.85 637.66 C 97.52 632.05 95.32 626.01 97.75 620.37 Z" data-index="21"></path>
</g>
<g id="#af2735ff">
<path fill="#af2735" opacity="1.00" d=" M 131.52 645.73 C 135.82 645.15 139.95 646.69 144.04 647.75 C 154.74 650.25 165.67 651.71 176.29 654.57 C 182.01 656.05 187.84 656.99 193.55 658.51 C 201.74 660.82 210.35 661.68 218.13 665.33 C 217.85 667.10 217.79 669.07 216.45 670.44 C 211.15 676.80 204.27 681.60 198.99 687.96 C 194.10 694.03 186.33 697.91 183.89 705.75 C 181.69 711.01 184.73 716.78 188.87 720.09 C 197.06 726.41 205.93 731.78 214.72 737.23 C 220.91 741.01 227.99 743.35 233.57 748.09 C 232.04 747.73 230.52 747.39 229.03 746.95 C 217.71 741.27 206.91 734.62 196.32 727.69 C 191.11 723.77 184.30 720.85 181.87 714.32 C 180.57 709.63 180.94 704.15 184.05 700.22 C 188.15 696.20 192.32 692.24 196.11 687.91 C 203.00 680.56 210.65 673.92 217.20 666.25 C 188.78 659.78 160.44 652.96 131.96 646.73 L 131.52 645.73 Z" data-index="22"></path>
</g>
<g id="#fdc1c5ff">

</g>
<g id="#f8b5b7ff">
<path fill="#f8b5b7" opacity="1.00" d=" M 219.43 706.91 C 220.15 706.18 220.89 705.46 221.63 704.76 C 222.08 706.21 222.54 707.68 223.00 709.15 C 221.80 708.40 220.61 707.65 219.43 706.91 Z" data-index="24"></path>
</g>
</svg>