<svg width="1024pt" height="1024pt" viewBox="0 0 1024 1024" version="1.1" xmlns="http://www.w3.org/2000/svg">
<g id="#ffffffff">

<path fill="#ffffff" opacity="1.00" d=" M 483.49 193.81 C 551.10 187.57 620.73 203.64 678.45 239.51 C 707.08 257.36 732.24 280.36 754.07 305.99 C 763.93 317.95 773.06 330.54 781.19 343.74 C 791.02 360.51 800.50 377.59 807.41 395.81 C 816.70 419.68 823.16 444.62 827.24 469.90 C 829.24 483.16 830.43 496.57 830.08 509.99 C 830.11 534.36 827.43 558.77 821.57 582.44 C 815.08 611.61 804.35 639.81 789.95 665.98 C 775.44 691.78 757.91 716.01 736.95 736.97 C 715.49 758.41 691.17 777.10 664.46 791.55 C 634.43 808.22 601.92 820.86 568.05 826.95 C 527.35 834.61 485.09 833.56 444.73 824.39 C 407.55 815.83 371.58 801.31 339.59 780.42 C 310.98 761.81 285.35 738.66 264.13 711.92 C 241.75 683.55 223.18 651.87 211.45 617.60 C 202.20 589.27 196.45 559.75 194.88 529.98 C 193.27 512.32 194.77 494.58 196.65 477.01 C 198.78 457.71 203.00 438.73 207.99 419.99 C 220.82 375.02 244.91 333.68 275.67 298.63 C 299.95 270.77 329.26 247.18 362.02 230.02 C 399.42 209.73 440.93 196.60 483.49 193.81 M 486.74 295.24 C 475.82 296.49 464.99 298.64 454.37 301.48 C 452.07 302.12 449.70 302.70 447.68 304.03 C 444.77 304.14 442.04 305.22 439.34 306.20 C 419.49 313.31 400.58 323.12 383.54 335.55 C 382.28 336.47 380.98 337.39 380.05 338.67 C 374.88 341.35 370.87 345.75 366.41 349.41 C 348.54 365.16 333.69 384.18 321.75 404.75 C 321.04 405.91 320.56 407.19 320.27 408.53 C 320.12 408.82 319.83 409.40 319.69 409.69 C 316.24 413.88 314.53 419.12 312.15 423.93 C 309.90 429.21 307.38 434.43 305.94 440.00 C 294.55 470.89 291.47 504.52 295.04 537.15 C 296.10 545.64 297.32 554.14 299.48 562.43 C 301.07 567.71 301.67 573.34 304.22 578.29 C 304.43 581.39 305.86 584.23 306.88 587.12 C 309.86 595.19 313.24 603.10 317.12 610.78 C 317.89 612.23 318.61 613.78 319.86 614.91 C 321.10 619.03 323.71 622.52 325.87 626.19 C 347.77 661.62 379.87 690.71 417.66 708.33 C 422.38 710.46 426.94 713.09 432.02 714.28 C 437.82 717.55 444.44 719.18 450.77 721.14 C 465.39 725.81 480.64 728.23 495.91 729.40 C 508.88 730.18 521.96 730.02 534.88 728.73 C 547.23 727.42 559.46 724.85 571.43 721.55 C 573.60 720.82 575.99 720.46 577.93 719.18 C 583.85 718.16 589.38 715.67 595.06 713.75 C 594.54 713.02 593.99 712.33 593.42 711.67 C 566.14 684.47 538.96 657.16 511.66 629.98 C 513.02 628.00 509.97 625.01 508.04 626.45 C 507.72 626.19 507.10 625.67 506.79 625.41 C 500.20 625.52 493.65 626.31 487.07 626.49 C 447.21 627.13 407.05 610.44 380.35 580.65 C 372.79 573.26 367.29 564.16 361.34 555.52 C 360.92 553.07 359.24 551.04 358.26 548.80 C 344.85 522.89 340.82 492.85 344.43 464.07 C 344.78 464.10 345.49 464.16 345.84 464.19 C 348.59 467.72 352.07 470.58 355.13 473.84 C 357.36 476.04 359.30 478.64 362.12 480.16 C 363.71 483.29 366.65 485.45 368.95 488.04 C 371.82 490.73 374.25 494.03 377.75 495.94 C 379.28 498.45 381.51 500.39 383.55 502.48 C 396.27 515.10 409.12 527.59 422.01 540.05 C 430.79 537.30 439.94 535.71 448.52 532.35 C 450.44 532.63 452.23 531.74 453.95 531.00 C 474.41 525.73 494.91 520.44 515.11 514.20 C 518.60 499.36 523.32 484.82 526.94 470.01 C 527.62 468.19 527.91 466.25 527.99 464.32 C 529.69 461.56 530.19 458.31 531.10 455.25 C 534.09 443.91 537.38 432.65 540.01 421.22 C 516.39 397.78 492.93 374.17 469.43 350.60 C 467.74 348.88 465.99 347.22 463.97 345.89 C 463.92 345.52 463.81 344.76 463.75 344.39 C 466.41 344.28 469.07 344.03 471.72 343.72 C 480.57 343.87 489.43 343.66 498.28 343.55 C 541.95 346.96 583.24 372.69 605.58 410.37 C 606.74 412.13 607.53 414.22 609.15 415.63 C 610.33 419.30 612.34 422.62 613.85 426.16 C 624.38 449.48 628.49 475.66 625.41 501.07 C 625.39 503.33 623.94 506.18 626.15 507.86 C 652.83 534.51 679.42 561.26 706.10 587.91 C 708.55 590.32 710.74 593.04 713.56 595.08 C 726.37 564.26 732.52 530.48 729.95 497.12 C 728.25 479.33 725.61 461.42 719.39 444.59 C 718.93 440.62 716.76 437.05 715.60 433.26 C 713.40 428.22 711.84 422.80 708.81 418.18 C 708.18 416.23 707.40 414.33 706.43 412.53 C 691.33 383.59 670.11 357.66 643.89 338.13 C 642.63 337.19 641.25 336.44 639.83 335.82 C 639.28 334.82 638.34 334.15 637.45 333.50 C 623.17 323.55 607.73 315.25 591.55 308.84 C 591.25 308.81 590.65 308.75 590.35 308.72 C 584.91 305.81 578.90 304.27 573.05 302.45 C 561.70 298.95 549.98 296.80 538.22 295.28 C 535.19 293.27 531.38 293.66 527.93 293.39 C 517.32 293.25 506.70 293.25 496.09 293.39 C 492.95 293.63 489.43 293.27 486.74 295.24 Z" data-index="1" style="opacity: 1;"></path>
</g>
<g id="#000000ff">
<path fill="#000000" opacity="1.00" d=" M 453.51 1.31 C 454.73 0.30 456.48 0.80 457.95 0.61 C 491.63 0.73 525.32 0.71 559.00 0.72 C 562.76 1.00 566.95 -0.06 570.44 1.39 C 577.02 23.77 583.86 46.07 590.43 68.45 C 593.44 78.18 596.06 88.03 599.38 97.66 C 628.75 102.77 656.79 113.43 684.03 125.27 C 686.59 124.34 688.46 122.19 690.74 120.75 C 715.44 102.09 740.20 83.49 764.59 64.42 C 765.57 63.38 766.87 64.71 767.81 65.17 C 797.75 86.09 827.18 107.73 856.55 129.45 C 857.35 130.25 858.73 130.76 858.93 132.01 C 849.08 160.47 839.36 188.98 829.41 217.41 C 828.20 220.88 826.63 224.25 825.83 227.85 C 837.90 241.99 850.04 256.16 860.45 271.60 C 866.55 280.57 872.54 289.63 877.95 299.04 C 878.64 300.52 880.63 299.94 881.94 300.13 C 904.97 300.14 927.95 298.17 950.99 298.48 C 960.94 298.27 970.89 297.78 980.85 298.14 C 992.60 334.51 1005.02 370.66 1016.53 407.11 C 990.78 425.55 964.66 443.47 938.75 461.69 C 936.89 463.40 933.55 464.42 933.17 467.14 C 934.02 479.74 934.24 492.37 933.93 505.00 C 933.88 521.90 934.55 538.85 933.22 555.72 C 960.05 573.83 986.52 592.48 1013.20 610.81 C 1014.71 612.05 1018.01 613.06 1016.66 615.61 C 1004.99 651.33 993.35 687.08 982.13 722.94 C 950.89 722.93 919.66 722.76 888.43 722.45 C 885.16 722.90 880.30 720.68 878.53 724.45 C 863.77 748.84 847.22 772.21 828.22 793.49 C 826.87 794.56 827.99 796.18 828.36 797.44 C 837.17 821.16 845.46 845.06 853.82 868.94 C 856.12 876.50 859.43 883.79 860.98 891.56 C 844.20 902.77 828.35 915.29 811.87 926.92 C 797.46 937.51 783.43 948.62 768.84 958.96 C 742.48 939.01 715.82 919.46 689.42 899.56 C 688.39 898.97 687.40 897.84 686.13 898.10 C 658.32 910.44 629.31 920.28 599.55 926.68 C 591.87 951.42 584.49 976.25 576.84 1000.99 C 574.70 1008.25 572.20 1015.41 570.42 1022.78 C 565.01 1023.91 559.47 1023.12 554.01 1023.20 C 525.34 1023.15 496.67 1023.16 468.00 1023.18 C 463.45 1023.13 458.88 1023.46 454.35 1022.95 C 452.22 1018.95 451.55 1014.21 450.06 1009.92 C 442.12 982.95 433.88 956.08 426.08 929.08 C 425.58 927.99 425.51 926.07 423.94 926.04 C 395.00 920.34 366.86 910.94 339.95 898.92 C 333.68 902.36 328.52 907.56 322.64 911.64 C 301.17 927.95 279.77 944.37 258.04 960.33 C 227.17 937.62 196.07 915.21 164.80 893.06 C 176.02 860.76 187.14 828.43 198.10 796.04 C 178.51 773.72 160.22 750.07 145.57 724.20 C 133.71 724.12 121.86 724.63 110.02 725.00 C 87.71 725.03 65.42 726.34 43.11 726.06 C 31.97 689.79 19.39 653.98 7.69 617.89 C 6.78 616.29 8.92 615.57 9.83 614.79 C 35.39 597.45 60.49 579.43 85.98 561.98 C 87.47 560.72 89.48 559.83 90.38 558.06 C 89.50 534.38 89.84 510.69 89.82 487.00 C 89.74 480.71 90.09 474.44 90.38 468.16 C 62.33 449.33 34.90 429.60 6.76 410.90 C 9.69 400.07 13.36 389.47 16.78 378.79 C 25.04 352.60 33.86 326.59 41.86 300.33 C 56.21 301.25 70.62 300.87 84.98 301.64 C 104.62 301.80 124.25 301.67 143.88 301.91 C 146.00 299.86 146.95 296.90 148.55 294.45 C 162.57 271.43 178.62 249.60 196.84 229.71 C 184.78 197.74 173.94 165.32 162.15 133.25 C 193.39 111.31 224.07 88.57 254.60 65.66 C 255.54 64.73 256.55 66.23 257.38 66.60 C 281.20 84.46 305.14 102.17 328.83 120.19 C 331.60 122.15 334.18 124.39 337.09 126.15 C 338.65 126.01 340.05 125.22 341.48 124.64 C 368.15 112.78 395.94 103.20 424.62 97.55 C 434.06 65.42 444.80 33.65 453.51 1.31 M 483.49 193.81 C 440.93 196.60 399.42 209.73 362.02 230.02 C 329.26 247.18 299.95 270.77 275.67 298.63 C 244.91 333.68 220.82 375.02 207.99 419.99 C 203.00 438.73 198.78 457.71 196.65 477.01 C 194.77 494.58 193.27 512.32 194.88 529.98 C 196.45 559.75 202.20 589.27 211.45 617.60 C 223.18 651.87 241.75 683.55 264.13 711.92 C 285.35 738.66 310.98 761.81 339.59 780.42 C 371.58 801.31 407.55 815.83 444.73 824.39 C 485.09 833.56 527.35 834.61 568.05 826.95 C 601.92 820.86 634.43 808.22 664.46 791.55 C 691.17 777.10 715.49 758.41 736.95 736.97 C 757.91 716.01 775.44 691.78 789.95 665.98 C 804.35 639.81 815.08 611.61 821.57 582.44 C 827.43 558.77 830.11 534.36 830.08 509.99 C 830.43 496.57 829.24 483.16 827.24 469.90 C 823.16 444.62 816.70 419.68 807.41 395.81 C 800.50 377.59 791.02 360.51 781.19 343.74 C 773.06 330.54 763.93 317.95 754.07 305.99 C 732.24 280.36 707.08 257.36 678.45 239.51 C 620.73 203.64 551.10 187.57 483.49 193.81 Z" data-index="2" style="opacity: 1;"></path>
<path fill="#000000" opacity="1.00" d=" M 495.91 729.40 C 508.90 729.44 521.92 729.84 534.88 728.73 C 521.96 730.02 508.88 730.18 495.91 729.40 Z" data-index="3"></path>
</g>
<g id="#fdd0ceff">
<path fill="#fdd0ce" opacity="1.00" d=" M 486.74 295.24 C 489.43 293.27 492.95 293.63 496.09 293.39 C 506.70 293.25 517.32 293.25 527.93 293.39 C 531.38 293.66 535.19 293.27 538.22 295.28 C 521.11 293.56 503.86 293.55 486.74 295.24 Z" data-index="4"></path>
</g>
<g id="#a51b13ff">
<path fill="#a51b13" opacity="1.00" d=" M 486.74 295.24 C 503.86 293.55 521.11 293.56 538.22 295.28 C 549.98 296.80 561.70 298.95 573.05 302.45 C 578.90 304.27 584.91 305.81 590.35 308.72 C 588.50 308.73 586.58 308.94 584.85 308.19 C 574.16 303.61 562.69 301.30 551.38 298.84 C 520.75 293.21 488.89 294.13 458.73 301.95 C 455.14 303.10 451.48 304.09 447.68 304.03 C 449.70 302.70 452.07 302.12 454.37 301.48 C 464.99 298.64 475.82 296.49 486.74 295.24 Z" data-index="5"></path>
<path fill="#a51b13" opacity="1.00" d=" M 639.83 335.82 C 641.25 336.44 642.63 337.19 643.89 338.13 C 670.11 357.66 691.33 383.59 706.43 412.53 C 707.40 414.33 708.18 416.23 708.81 418.18 C 706.67 415.87 704.72 413.37 703.37 410.52 C 699.87 403.35 695.49 396.66 690.76 390.24 C 685.56 383.15 681.08 375.44 674.69 369.31 C 670.11 364.87 666.56 359.44 661.49 355.50 C 655.86 351.18 651.76 345.09 645.57 341.45 C 643.21 340.08 641.03 338.33 639.83 335.82 Z" data-index="6"></path>
<path fill="#a51b13" opacity="1.00" d=" M 366.41 349.41 C 370.87 345.75 374.88 341.35 380.05 338.67 C 377.11 343.12 372.36 345.81 368.78 349.68 C 359.97 357.22 351.95 365.65 344.46 374.50 C 339.67 381.02 335.05 387.66 330.19 394.13 C 326.59 398.74 325.01 404.83 320.27 408.53 C 320.56 407.19 321.04 405.91 321.75 404.75 C 333.69 384.18 348.54 365.16 366.41 349.41 Z" data-index="7"></path>
<path fill="#a51b13" opacity="1.00" d=" M 463.97 345.89 C 465.99 347.22 467.74 348.88 469.43 350.60 C 492.93 374.17 516.39 397.78 540.01 421.22 C 537.38 432.65 534.09 443.91 531.10 455.25 C 530.19 458.31 529.69 461.56 527.99 464.32 C 527.73 457.93 530.87 452.16 531.86 445.97 C 532.99 439.51 535.48 433.42 537.02 427.07 C 537.27 425.39 538.01 423.46 537.03 421.89 C 531.34 413.37 522.33 407.94 515.96 400.02 C 513.17 396.80 509.86 394.12 506.76 391.23 C 502.77 387.54 499.76 382.93 495.65 379.37 C 492.44 376.58 489.09 373.92 486.44 370.59 C 481.58 364.48 475.44 359.59 470.10 353.92 C 467.88 351.41 464.10 349.64 463.97 345.89 Z" data-index="8"></path>
<path fill="#a51b13" opacity="1.00" d=" M 312.15 423.93 C 314.53 419.12 316.24 413.88 319.69 409.69 C 319.39 411.35 319.18 413.06 318.59 414.67 C 314.45 423.84 310.80 433.23 306.23 442.20 C 306.15 441.65 306.01 440.55 305.94 440.00 C 307.38 434.43 309.90 429.21 312.15 423.93 Z" data-index="9"></path>
<path fill="#a51b13" opacity="1.00" d=" M 609.15 415.63 C 610.73 416.78 612.33 418.03 613.08 419.91 C 615.01 424.03 616.78 428.24 618.68 432.39 C 622.36 441.45 623.61 451.23 626.30 460.58 C 627.22 463.98 626.98 467.53 627.11 471.02 C 627.19 476.02 628.06 480.98 627.97 486.00 C 627.94 491.68 626.89 497.33 627.18 503.03 C 627.15 506.13 629.44 508.48 631.45 510.57 C 652.64 531.71 673.81 552.86 694.84 574.15 C 701.33 579.47 706.18 586.55 713.09 591.39 C 719.47 577.28 722.93 562.12 725.93 546.99 C 728.78 527.99 730.42 508.56 727.32 489.48 C 726.80 479.63 724.28 470.09 722.45 460.45 C 721.37 455.17 718.83 450.11 719.39 444.59 C 725.61 461.42 728.25 479.33 729.95 497.12 C 732.52 530.48 726.37 564.26 713.56 595.08 C 710.74 593.04 708.55 590.32 706.10 587.91 C 679.42 561.26 652.83 534.51 626.15 507.86 C 623.94 506.18 625.39 503.33 625.41 501.07 C 628.49 475.66 624.38 449.48 613.85 426.16 C 612.34 422.62 610.33 419.30 609.15 415.63 Z" data-index="10"></path>
<path fill="#a51b13" opacity="1.00" d=" M 519.17 492.23 C 521.87 483.77 523.04 474.84 526.81 466.74 C 526.84 467.56 526.91 469.20 526.94 470.01 C 523.32 484.82 518.60 499.36 515.11 514.20 C 494.91 520.44 474.41 525.73 453.95 531.00 C 453.41 530.91 452.33 530.74 451.78 530.65 C 457.64 527.95 464.13 527.28 470.18 525.15 C 482.32 521.09 494.91 518.66 507.20 515.11 C 510.10 514.20 513.57 512.93 514.50 509.68 C 516.22 503.91 517.32 497.97 519.17 492.23 Z" data-index="11"></path>
<path fill="#a51b13" opacity="1.00" d=" M 377.75 495.94 C 379.77 496.91 381.78 498.00 383.34 499.66 C 388.76 505.23 394.26 510.73 399.97 516.01 C 406.85 521.78 412.72 528.62 419.16 534.86 C 420.34 535.86 421.56 537.07 423.17 537.29 C 431.93 537.28 439.68 530.96 448.52 532.35 C 439.94 535.71 430.79 537.30 422.01 540.05 C 409.12 527.59 396.27 515.10 383.55 502.48 C 381.51 500.39 379.28 498.45 377.75 495.94 Z" data-index="12"></path>
<path fill="#a51b13" opacity="1.00" d=" M 295.44 526.81 C 297.39 532.79 296.46 539.18 297.86 545.26 C 298.90 549.71 299.85 554.17 300.50 558.70 C 301.39 565.31 304.66 571.48 304.22 578.29 C 301.67 573.34 301.07 567.71 299.48 562.43 C 297.32 554.14 296.10 545.64 295.04 537.15 C 294.91 533.70 295.12 530.25 295.44 526.81 Z" data-index="13"></path>
<path fill="#a51b13" opacity="1.00" d=" M 362.06 559.89 C 361.27 558.56 361.47 556.97 361.34 555.52 C 367.29 564.16 372.79 573.26 380.35 580.65 C 407.05 610.44 447.21 627.13 487.07 626.49 C 493.65 626.31 500.20 625.52 506.79 625.41 C 507.10 625.67 507.72 626.19 508.04 626.45 C 509.19 627.67 510.38 628.87 511.66 629.98 C 538.96 657.16 566.14 684.47 593.42 711.67 C 593.99 712.33 594.54 713.02 595.06 713.75 C 589.38 715.67 583.85 718.16 577.93 719.18 C 580.58 716.52 584.25 715.63 587.72 714.55 C 588.91 713.99 590.90 713.78 590.70 712.03 C 589.84 710.39 588.54 709.06 587.28 707.75 C 560.82 682.19 535.34 655.64 508.98 629.99 C 506.88 628.05 504.07 626.91 501.19 627.29 C 492.41 628.04 483.56 628.31 474.77 627.43 C 469.31 626.76 463.57 628.12 458.38 625.81 C 448.35 622.97 437.74 621.59 428.42 616.64 C 411.24 608.98 394.93 598.79 382.13 584.87 C 374.27 577.54 367.75 568.96 362.06 559.89 Z" data-index="14"></path>
<path fill="#a51b13" opacity="1.00" d=" M 319.86 614.91 C 321.89 616.67 323.68 618.73 324.91 621.16 C 328.73 628.39 334.12 634.60 338.55 641.44 C 341.40 645.82 344.53 650.04 348.31 653.67 C 352.95 658.06 356.65 663.35 361.52 667.51 C 369.18 674.17 376.28 681.54 384.87 687.04 C 395.54 694.82 406.86 701.77 418.98 707.06 C 423.39 709.34 428.29 710.87 432.02 714.28 C 426.94 713.09 422.38 710.46 417.66 708.33 C 379.87 690.71 347.77 661.62 325.87 626.19 C 323.71 622.52 321.10 619.03 319.86 614.91 Z" data-index="15"></path>
</g>
<g id="#d60500ff">
<path fill="#d60500" opacity="1.00" d=" M 458.73 301.95 C 488.89 294.13 520.75 293.21 551.38 298.84 C 562.69 301.30 574.16 303.61 584.85 308.19 C 586.58 308.94 588.50 308.73 590.35 308.72 C 590.65 308.75 591.25 308.81 591.55 308.84 C 607.73 315.25 623.17 323.55 637.45 333.50 C 638.34 334.15 639.28 334.82 639.83 335.82 C 641.03 338.33 643.21 340.08 645.57 341.45 C 651.76 345.09 655.86 351.18 661.49 355.50 C 666.56 359.44 670.11 364.87 674.69 369.31 C 681.08 375.44 685.56 383.15 690.76 390.24 C 695.49 396.66 699.87 403.35 703.37 410.52 C 704.72 413.37 706.67 415.87 708.81 418.18 C 711.84 422.80 713.40 428.22 715.60 433.26 C 716.76 437.05 718.93 440.62 719.39 444.59 C 718.83 450.11 721.37 455.17 722.45 460.45 C 724.28 470.09 726.80 479.63 727.32 489.48 C 730.42 508.56 728.78 527.99 725.93 546.99 C 722.93 562.12 719.47 577.28 713.09 591.39 C 706.18 586.55 701.33 579.47 694.84 574.15 C 673.81 552.86 652.64 531.71 631.45 510.57 C 629.44 508.48 627.15 506.13 627.18 503.03 C 626.89 497.33 627.94 491.68 627.97 486.00 C 628.06 480.98 627.19 476.02 627.11 471.02 C 626.98 467.53 627.22 463.98 626.30 460.58 C 623.61 451.23 622.36 441.45 618.68 432.39 C 616.78 428.24 615.01 424.03 613.08 419.91 C 612.33 418.03 610.73 416.78 609.15 415.63 C 607.53 414.22 606.74 412.13 605.58 410.37 C 583.24 372.69 541.95 346.96 498.28 343.55 C 489.48 342.37 480.52 342.65 471.72 343.72 C 469.07 344.03 466.41 344.28 463.75 344.39 C 463.81 344.76 463.92 345.52 463.97 345.89 C 464.10 349.64 467.88 351.41 470.10 353.92 C 475.44 359.59 481.58 364.48 486.44 370.59 C 489.09 373.92 492.44 376.58 495.65 379.37 C 499.76 382.93 502.77 387.54 506.76 391.23 C 509.86 394.12 513.17 396.80 515.96 400.02 C 522.33 407.94 531.34 413.37 537.03 421.89 C 538.01 423.46 537.27 425.39 537.02 427.07 C 535.48 433.42 532.99 439.51 531.86 445.97 C 530.87 452.16 527.73 457.93 527.99 464.32 C 527.91 466.25 527.62 468.19 526.94 470.01 C 526.91 469.20 526.84 467.56 526.81 466.74 C 523.04 474.84 521.87 483.77 519.17 492.23 C 517.32 497.97 516.22 503.91 514.50 509.68 C 513.57 512.93 510.10 514.20 507.20 515.11 C 494.91 518.66 482.32 521.09 470.18 525.15 C 464.13 527.28 457.64 527.95 451.78 530.65 C 452.33 530.74 453.41 530.91 453.95 531.00 C 452.23 531.74 450.44 532.63 448.52 532.35 C 439.68 530.96 431.93 537.28 423.17 537.29 C 421.56 537.07 420.34 535.86 419.16 534.86 C 412.72 528.62 406.85 521.78 399.97 516.01 C 394.26 510.73 388.76 505.23 383.34 499.66 C 381.78 498.00 379.77 496.91 377.75 495.94 C 374.25 494.03 371.82 490.73 368.95 488.04 C 366.65 485.45 363.71 483.29 362.12 480.16 C 360.59 475.35 356.09 472.69 352.93 469.08 C 350.87 467.09 349.06 464.12 345.84 464.19 C 345.49 464.16 344.78 464.10 344.43 464.07 C 340.82 492.85 344.85 522.89 358.26 548.80 C 359.24 551.04 360.92 553.07 361.34 555.52 C 361.47 556.97 361.27 558.56 362.06 559.89 C 367.75 568.96 374.27 577.54 382.13 584.87 C 394.93 598.79 411.24 608.98 428.42 616.64 C 437.74 621.59 448.35 622.97 458.38 625.81 C 463.57 628.12 469.31 626.76 474.77 627.43 C 483.56 628.31 492.41 628.04 501.19 627.29 C 504.07 626.91 506.88 628.05 508.98 629.99 C 535.34 655.64 560.82 682.19 587.28 707.75 C 588.54 709.06 589.84 710.39 590.70 712.03 C 590.90 713.78 588.91 713.99 587.72 714.55 C 584.25 715.63 580.58 716.52 577.93 719.18 C 575.99 720.46 573.60 720.82 571.43 721.55 C 559.46 724.85 547.23 727.42 534.88 728.73 C 521.92 729.84 508.90 729.44 495.91 729.40 C 480.64 728.23 465.39 725.81 450.77 721.14 C 444.44 719.18 437.82 717.55 432.02 714.28 C 428.29 710.87 423.39 709.34 418.98 707.06 C 406.86 701.77 395.54 694.82 384.87 687.04 C 376.28 681.54 369.18 674.17 361.52 667.51 C 356.65 663.35 352.95 658.06 348.31 653.67 C 344.53 650.04 341.40 645.82 338.55 641.44 C 334.12 634.60 328.73 628.39 324.91 621.16 C 323.68 618.73 321.89 616.67 319.86 614.91 C 318.61 613.78 317.89 612.23 317.12 610.78 C 313.24 603.10 309.86 595.19 306.88 587.12 C 305.86 584.23 304.43 581.39 304.22 578.29 C 304.66 571.48 301.39 565.31 300.50 558.70 C 299.85 554.17 298.90 549.71 297.86 545.26 C 296.46 539.18 297.39 532.79 295.44 526.81 C 295.12 530.25 294.91 533.70 295.04 537.15 C 291.47 504.52 294.55 470.89 305.94 440.00 C 306.01 440.55 306.15 441.65 306.23 442.20 C 310.80 433.23 314.45 423.84 318.59 414.67 C 319.18 413.06 319.39 411.35 319.69 409.69 C 319.83 409.40 320.12 408.82 320.27 408.53 C 325.01 404.83 326.59 398.74 330.19 394.13 C 335.05 387.66 339.67 381.02 344.46 374.50 C 351.95 365.65 359.97 357.22 368.78 349.68 C 372.36 345.81 377.11 343.12 380.05 338.67 C 380.98 337.39 382.28 336.47 383.54 335.55 C 400.58 323.12 419.49 313.31 439.34 306.20 C 442.04 305.22 444.77 304.14 447.68 304.03 C 451.48 304.09 455.14 303.10 458.73 301.95 Z" data-index="16"></path>
</g>
<g id="#f5b5aeff">
<path fill="#f5b5ae" opacity="1.00" d=" M 471.72 343.72 C 480.52 342.65 489.48 342.37 498.28 343.55 C 489.43 343.66 480.57 343.87 471.72 343.72 Z" data-index="17"></path>
</g>
<g id="#a0191aff">
<path fill="#a0191a" opacity="1.00" d=" M 345.84 464.19 C 349.06 464.12 350.87 467.09 352.93 469.08 C 356.09 472.69 360.59 475.35 362.12 480.16 C 359.30 478.64 357.36 476.04 355.13 473.84 C 352.07 470.58 348.59 467.72 345.84 464.19 Z" data-index="18"></path>
</g>
<g id="#fed1c3ff">
<path fill="#fed1c3" opacity="1.00" d=" M 508.04 626.45 C 509.97 625.01 513.02 628.00 511.66 629.98 C 510.38 628.87 509.19 627.67 508.04 626.45 Z" data-index="19"></path>
</g>
</svg>