<svg width="642pt" height="645pt" viewBox="0 0 642 645" version="1.1" xmlns="http://www.w3.org/2000/svg">
<g id="#ffffffff">

</g>
<g id="#0d0d0dff">
<path fill="#0d0d0d" opacity="1.00" d=" M 272.18 36.18 C 283.07 34.82 294.00 33.69 305.00 33.77 C 315.34 33.87 325.70 33.49 336.03 34.01 C 359.35 36.68 382.56 41.30 404.66 49.30 C 411.12 51.29 417.22 54.26 423.60 56.47 C 431.85 59.29 438.60 65.09 446.70 68.26 C 461.77 75.94 475.53 85.86 489.00 96.01 C 491.99 99.06 495.26 101.79 498.80 104.18 C 501.20 107.21 505.00 108.62 507.22 111.84 C 509.14 114.59 512.94 115.54 514.24 118.79 C 507.32 121.97 500.11 124.35 492.98 126.96 C 484.17 129.53 475.80 133.32 467.03 135.99 C 463.63 134.82 461.22 131.72 458.17 129.86 C 448.78 122.30 438.41 116.12 428.19 109.77 C 420.36 105.52 412.56 101.14 404.32 97.71 C 394.84 93.23 384.62 90.68 374.83 87.01 C 356.60 82.33 337.99 78.47 319.14 77.78 C 312.48 76.33 305.74 77.68 299.03 77.48 C 282.33 79.44 265.45 81.20 249.33 86.27 C 236.63 89.53 224.39 94.48 212.90 100.81 C 208.14 102.60 203.65 105.00 199.03 107.12 C 197.52 107.84 197.18 109.89 195.58 110.54 C 184.75 115.84 174.86 122.85 165.93 130.91 C 158.36 136.23 152.47 143.46 145.62 149.61 C 141.36 154.98 136.42 159.75 132.17 165.12 C 124.88 173.34 119.58 183.06 112.61 191.52 C 111.13 197.16 106.42 201.17 104.85 206.76 C 102.58 213.92 98.34 220.28 96.55 227.61 C 93.48 233.50 91.50 239.84 90.19 246.34 C 87.44 254.18 86.49 262.46 84.61 270.52 C 82.54 280.89 81.71 291.45 80.96 301.97 C 81.03 313.67 80.50 325.39 81.11 337.07 C 82.58 349.72 84.59 362.35 87.61 374.70 C 85.52 377.58 81.86 378.86 80.03 382.01 C 77.69 385.67 73.48 387.52 71.24 391.24 C 69.62 393.59 67.46 395.46 65.31 397.30 C 61.50 400.54 59.03 405.09 54.97 408.06 C 51.25 401.04 49.66 393.16 47.49 385.58 C 44.33 369.48 39.91 353.49 39.28 337.02 C 38.49 330.71 38.98 324.34 38.88 318.00 C 38.96 307.66 38.66 297.30 38.97 286.96 C 40.23 276.56 41.28 266.11 43.65 255.89 C 46.46 244.57 47.76 232.87 51.92 221.91 C 56.30 213.65 57.46 204.13 61.82 195.86 C 64.63 190.25 67.38 184.62 69.91 178.87 C 71.21 175.73 73.65 173.27 75.17 170.25 C 78.38 164.27 81.52 158.18 86.03 153.04 C 88.91 148.67 91.71 144.21 95.38 140.42 C 100.99 132.45 108.13 125.75 114.28 118.22 C 119.92 114.29 123.66 108.34 129.11 104.16 C 134.75 98.31 141.60 93.86 148.00 88.92 C 150.76 86.30 153.65 83.73 157.11 82.08 C 161.15 80.33 163.81 76.49 167.84 74.75 C 176.64 70.93 184.07 64.58 193.14 61.29 C 204.62 54.34 217.98 51.71 229.97 45.94 C 243.81 41.72 257.99 38.90 272.18 36.18 Z" data-index="1" style="opacity: 1;"></path>

<path fill="#0d0d0d" opacity="1.00" d=" M 281.98 369.96 C 287.31 365.09 291.78 359.37 297.17 354.58 C 309.77 365.71 320.83 378.45 333.51 389.49 C 340.06 395.96 346.37 402.70 353.47 408.59 C 357.14 411.62 360.09 415.39 363.61 418.59 C 368.96 423.52 373.96 428.80 379.31 433.72 C 380.42 434.89 381.84 435.87 382.57 437.36 C 382.63 467.90 382.59 498.45 382.61 529.00 C 382.50 545.07 382.85 561.15 382.36 577.21 C 376.64 578.41 371.22 580.85 365.35 581.34 C 359.26 582.63 353.08 583.44 346.94 584.50 C 339.92 584.34 332.99 585.30 326.04 586.18 C 317.03 586.15 307.94 586.85 298.99 585.55 C 294.62 585.77 290.24 585.90 285.98 584.74 C 275.18 583.87 264.28 583.19 253.79 580.31 C 241.34 576.76 228.69 573.86 216.47 569.49 C 216.19 526.03 216.79 482.56 216.11 439.10 C 219.51 435.47 223.39 432.19 226.45 428.18 C 230.68 423.50 234.93 418.86 239.71 414.73 C 247.64 406.32 255.11 397.48 263.56 389.56 C 270.04 383.36 275.42 376.10 281.98 369.96 Z" data-index="3" style="opacity: 1;"></path>
<path fill="#0d0d0d" opacity="1.00" d=" M 190.56 465.52 C 194.00 462.22 196.87 458.05 201.17 455.83 C 201.70 471.21 201.20 486.62 201.38 502.01 C 201.26 522.41 201.57 542.83 201.18 563.24 C 193.31 559.38 185.65 555.05 177.73 551.26 C 169.10 545.58 159.88 540.72 151.99 533.98 C 145.64 530.15 140.51 524.75 134.54 520.41 C 131.29 517.70 128.77 514.22 125.38 511.65 C 121.08 508.58 118.83 503.45 114.43 500.49 C 110.39 497.67 108.61 492.67 104.49 489.93 C 106.81 487.75 109.01 485.44 110.99 482.94 C 114.15 479.47 118.01 476.66 120.80 472.84 C 123.05 469.61 126.53 467.60 129.15 464.72 C 132.09 467.15 134.95 469.69 138.01 471.98 C 140.69 473.97 142.42 476.92 144.89 479.14 C 147.56 481.81 150.71 483.99 153.05 486.99 C 155.52 490.17 159.35 491.85 161.87 495.01 C 164.85 491.23 169.27 488.90 171.99 484.91 C 174.99 480.92 179.42 478.27 182.16 474.08 C 184.53 470.82 187.92 468.53 190.56 465.52 Z" data-index="4" style="opacity: 1;"></path>
</g>
<g id="#9d2a2cff">
<path fill="#9d2a2c" opacity="1.00" d=" M 603.61 108.50 C 607.01 107.24 610.49 106.17 613.90 104.91 C 611.67 126.40 607.32 147.54 603.60 168.79 C 601.51 183.58 599.56 198.39 596.61 213.05 C 595.78 217.94 594.15 222.73 594.20 227.74 C 594.30 230.96 593.06 233.96 592.29 237.02 C 590.85 244.85 590.60 252.87 588.83 260.64 C 588.17 264.45 588.18 268.40 586.88 272.08 C 582.02 270.36 579.84 265.10 575.70 262.31 C 572.10 259.89 569.41 256.48 566.22 253.61 C 560.36 249.24 556.13 243.10 550.00 239.04 C 545.04 245.37 539.11 250.87 534.37 257.36 C 532.32 259.62 529.82 261.48 528.17 264.08 C 525.32 268.49 520.97 271.63 517.98 275.93 C 514.85 280.75 509.93 284.01 506.86 288.88 C 503.20 292.89 499.33 296.72 496.27 301.24 C 485.75 312.13 476.91 324.50 466.33 335.33 C 463.51 339.45 459.75 342.70 456.43 346.37 C 453.79 350.64 449.66 353.64 446.72 357.67 C 442.52 363.44 437.07 368.13 432.89 373.91 C 427.30 379.35 422.93 385.89 417.29 391.28 C 415.96 392.61 414.88 394.16 413.73 395.65 C 410.90 399.16 407.76 402.40 404.84 405.83 C 400.57 410.58 396.88 415.88 392.10 420.15 C 391.30 421.08 389.85 420.64 389.09 419.90 C 384.74 416.28 380.70 412.31 376.58 408.44 C 365.42 398.98 355.55 388.14 345.05 377.98 C 337.15 371.23 329.62 364.04 322.49 356.49 C 313.60 349.06 305.81 340.43 296.92 333.01 C 293.84 335.57 291.00 338.39 288.39 341.43 C 281.04 349.06 273.27 356.31 266.37 364.36 C 255.56 374.89 245.77 386.41 234.88 396.86 C 230.32 401.01 226.86 406.17 222.34 410.35 C 217.65 415.00 213.00 419.69 208.39 424.41 C 197.13 437.42 184.21 448.86 172.56 461.51 C 169.53 465.55 165.91 469.07 161.94 472.20 C 156.64 468.20 152.05 463.39 147.17 458.92 C 143.34 456.08 140.55 452.11 136.72 449.27 C 133.93 447.06 131.39 444.56 128.98 441.94 C 120.80 449.43 112.93 457.27 105.60 465.59 C 102.47 468.76 98.91 471.54 96.19 475.10 C 92.80 479.71 87.91 482.88 84.27 487.28 C 79.39 491.75 75.41 497.10 70.45 501.48 C 66.34 505.23 63.57 510.24 59.00 513.53 C 46.55 502.50 35.48 490.03 23.04 479.01 C 20.12 476.85 17.61 474.23 15.04 471.70 C 17.32 467.29 21.75 464.63 24.87 460.90 C 27.30 457.98 30.23 455.56 33.03 453.02 C 43.20 442.86 53.41 432.73 63.49 422.50 C 75.38 408.77 88.81 396.46 101.37 383.37 C 105.35 376.75 112.02 372.68 117.22 367.17 C 121.34 363.27 124.26 358.14 129.03 354.93 C 130.92 355.43 132.22 357.09 133.68 358.30 C 139.22 363.77 145.23 368.75 150.68 374.31 C 154.02 377.76 157.96 380.75 160.38 384.99 C 157.20 384.50 155.53 381.62 153.60 379.41 C 149.37 374.27 143.47 370.90 138.90 366.11 C 136.07 363.36 133.61 359.90 129.82 358.42 C 126.45 358.81 124.61 362.27 122.49 364.55 C 117.22 371.89 109.22 376.60 103.82 383.82 C 99.35 389.98 92.79 394.12 87.79 399.79 C 82.86 405.52 76.80 410.18 72.25 416.26 C 66.98 423.29 59.70 428.36 53.78 434.78 C 48.90 439.91 43.46 444.52 38.99 450.03 C 34.46 455.83 28.07 459.74 23.33 465.36 C 21.47 467.61 17.32 470.05 19.52 473.39 C 22.08 476.53 25.59 478.71 28.42 481.60 C 32.73 485.96 37.84 489.47 41.89 494.11 C 45.77 498.56 50.35 502.32 54.35 506.68 C 55.90 508.20 58.36 510.66 60.48 508.58 C 66.60 503.71 71.73 497.70 76.61 491.63 C 84.36 484.37 91.74 476.71 98.97 468.94 C 107.91 460.56 115.89 451.21 124.79 442.78 C 126.32 441.62 128.28 439.62 130.34 440.72 C 133.24 442.35 135.30 445.07 137.67 447.35 C 142.70 452.67 148.79 456.84 153.79 462.20 C 156.26 464.54 158.64 467.35 162.01 468.34 C 164.47 467.68 166.39 465.88 168.05 464.04 C 173.96 456.99 180.67 450.66 186.87 443.86 C 197.26 433.92 206.65 422.98 217.08 413.08 C 222.06 408.04 226.88 402.84 231.54 397.49 C 239.34 389.63 247.63 382.17 254.49 373.44 C 258.77 368.38 264.15 364.39 268.11 359.05 C 275.41 352.03 282.25 344.57 289.29 337.29 C 292.08 334.86 295.31 330.86 299.48 332.51 C 305.34 337.61 310.49 343.53 316.45 348.56 C 318.64 350.34 321.03 351.91 323.00 353.96 C 334.10 366.86 347.95 377.00 359.32 389.65 C 362.09 392.89 365.40 395.59 368.52 398.48 C 374.89 404.82 381.53 410.91 388.63 416.43 C 389.58 417.08 391.10 418.37 392.17 417.22 C 397.32 412.31 401.05 406.12 406.20 401.19 C 412.57 393.58 419.64 386.60 425.83 378.83 C 430.85 373.80 434.78 367.83 439.86 362.86 C 443.40 359.36 445.75 354.84 449.48 351.51 C 453.50 347.80 456.06 342.81 460.31 339.31 C 471.89 326.21 483.19 312.85 494.54 299.55 C 501.70 292.94 506.85 284.58 513.84 277.83 C 518.34 272.02 523.71 266.97 528.17 261.13 C 534.39 253.39 540.86 245.87 547.86 238.85 C 550.27 237.24 553.71 238.37 555.39 240.60 C 558.77 244.56 562.83 247.82 566.73 251.25 C 571.98 256.73 577.90 261.50 583.48 266.64 C 585.82 268.35 586.48 264.52 586.87 262.94 C 589.67 248.15 590.73 233.07 593.45 218.26 C 597.01 204.03 598.60 189.40 600.87 174.93 C 602.05 162.84 605.38 151.12 607.11 139.12 C 608.15 133.29 608.83 127.41 609.68 121.55 C 610.21 117.76 611.38 114.05 611.56 110.21 C 610.60 108.30 608.32 109.21 606.77 109.62 C 600.50 111.62 594.45 114.23 588.10 115.97 C 577.34 118.83 567.04 123.11 556.36 126.21 C 547.20 128.78 538.48 132.62 529.40 135.39 C 523.80 137.19 517.90 138.05 512.51 140.48 C 508.97 142.06 505.32 143.42 501.57 144.40 C 493.59 146.50 485.99 149.81 478.01 151.93 C 472.69 153.35 467.70 155.76 462.40 157.23 C 459.96 157.91 457.61 158.87 455.36 160.03 C 457.32 163.64 461.18 165.34 464.32 167.71 C 472.16 173.59 480.10 179.34 488.31 184.70 C 490.18 185.90 491.70 187.54 493.13 189.24 C 489.92 189.07 487.67 186.52 485.12 184.89 C 478.91 179.96 471.78 176.32 465.76 171.16 C 460.70 167.03 454.70 164.09 450.07 159.46 C 471.63 151.72 493.67 145.30 515.20 137.43 C 523.39 134.99 531.84 133.23 539.70 129.77 C 553.05 125.03 566.75 121.28 580.01 116.25 C 587.91 113.80 596.19 112.30 603.61 108.50 Z" data-index="5"></path>
<path fill="#9d2a2c" opacity="1.00" d=" M 494.16 190.36 C 494.40 190.63 494.89 191.16 495.13 191.43 C 493.71 195.28 489.95 197.42 487.65 200.66 C 481.88 208.79 474.51 215.65 468.71 223.77 C 464.66 229.63 458.48 233.62 454.63 239.66 C 451.90 244.15 447.70 247.40 444.42 251.44 C 436.95 261.22 428.10 269.85 420.56 279.58 C 416.56 283.91 413.03 288.67 408.79 292.78 C 405.21 296.26 402.70 300.64 399.18 304.18 C 394.63 308.66 391.40 314.30 386.62 318.57 C 383.25 321.46 381.41 326.37 376.85 327.66 C 372.59 326.85 369.56 323.32 366.49 320.52 C 360.17 314.17 353.33 308.34 347.09 301.91 C 343.35 297.31 338.57 293.77 334.33 289.68 C 326.90 282.09 318.85 275.15 311.70 267.29 C 306.42 262.48 301.20 257.62 295.95 252.77 C 291.87 254.66 289.96 258.91 286.95 261.99 C 276.62 271.28 267.89 282.22 257.53 291.50 C 253.14 295.08 249.21 299.20 245.66 303.61 C 241.40 309.01 235.71 313.02 231.32 318.31 C 227.11 323.43 221.64 327.30 217.27 332.28 C 212.92 337.26 207.71 341.39 203.20 346.22 C 197.81 351.15 193.44 357.09 187.85 361.82 C 183.44 365.45 180.76 370.71 176.20 374.19 C 171.87 377.52 168.29 381.65 164.55 385.61 C 164.15 385.59 163.34 385.54 162.94 385.52 C 163.62 382.81 165.48 380.61 167.73 379.02 C 170.82 376.79 173.36 373.94 175.97 371.21 C 180.79 366.55 185.66 361.94 190.13 356.95 C 193.09 353.66 196.08 350.39 199.31 347.37 C 200.59 346.27 201.88 345.20 203.12 344.06 C 209.67 336.97 216.79 330.45 223.44 323.44 C 231.20 314.88 239.94 307.26 247.59 298.59 C 257.46 288.46 267.91 278.89 277.29 268.28 C 281.59 264.49 286.16 260.82 289.09 255.79 C 290.65 253.07 293.30 251.34 295.96 249.84 C 299.46 252.06 301.22 256.05 304.57 258.44 C 310.01 262.61 314.87 267.46 319.65 272.37 C 325.67 278.00 331.62 283.71 337.29 289.69 C 347.61 298.34 356.45 308.55 366.41 317.59 C 369.65 320.51 372.49 324.76 376.86 325.82 C 381.76 323.10 383.77 317.47 387.94 313.95 C 390.47 311.79 392.14 308.88 394.18 306.29 C 397.42 303.12 400.83 300.04 403.26 296.15 C 404.71 294.05 406.40 292.10 408.33 290.42 C 410.77 288.43 412.42 285.72 414.30 283.23 C 425.98 270.25 437.01 256.66 448.67 243.65 C 451.60 240.54 453.87 236.90 456.65 233.67 C 458.95 231.00 462.03 229.06 464.07 226.15 C 468.07 219.64 474.23 214.86 478.40 208.45 C 480.07 206.81 481.80 205.21 483.24 203.34 C 486.18 198.42 490.82 194.94 494.16 190.36 Z" data-index="6"></path>
</g>
<g id="#eb1314ff">
<path fill="#eb1314" opacity="1.00" d=" M 606.77 109.62 C 608.32 109.21 610.60 108.30 611.56 110.21 C 611.38 114.05 610.21 117.76 609.68 121.55 C 608.83 127.41 608.15 133.29 607.11 139.12 C 605.38 151.12 602.05 162.84 600.87 174.93 C 598.60 189.40 597.01 204.03 593.45 218.26 C 590.73 233.07 589.67 248.15 586.87 262.94 C 586.48 264.52 585.82 268.35 583.48 266.64 C 577.90 261.50 571.98 256.73 566.73 251.25 C 562.83 247.82 558.77 244.56 555.39 240.60 C 553.71 238.37 550.27 237.24 547.86 238.85 C 540.86 245.87 534.39 253.39 528.17 261.13 C 523.71 266.97 518.34 272.02 513.84 277.83 C 506.85 284.58 501.70 292.94 494.54 299.55 C 483.19 312.85 471.89 326.21 460.31 339.31 C 456.06 342.81 453.50 347.80 449.48 351.51 C 445.75 354.84 443.40 359.36 439.86 362.86 C 434.78 367.83 430.85 373.80 425.83 378.83 C 419.64 386.60 412.57 393.58 406.20 401.19 C 401.05 406.12 397.32 412.31 392.17 417.22 C 391.10 418.37 389.58 417.08 388.63 416.43 C 381.53 410.91 374.89 404.82 368.52 398.48 C 365.40 395.59 362.09 392.89 359.32 389.65 C 347.95 377.00 334.10 366.86 323.00 353.96 C 321.03 351.91 318.64 350.34 316.45 348.56 C 310.49 343.53 305.34 337.61 299.48 332.51 C 295.31 330.86 292.08 334.86 289.29 337.29 C 282.25 344.57 275.41 352.03 268.11 359.05 C 264.15 364.39 258.77 368.38 254.49 373.44 C 247.63 382.17 239.34 389.63 231.54 397.49 C 226.88 402.84 222.06 408.04 217.08 413.08 C 206.65 422.98 197.26 433.92 186.87 443.86 C 180.67 450.66 173.96 456.99 168.05 464.04 C 166.39 465.88 164.47 467.68 162.01 468.34 C 158.64 467.35 156.26 464.54 153.79 462.20 C 148.79 456.84 142.70 452.67 137.67 447.35 C 135.30 445.07 133.24 442.35 130.34 440.72 C 128.28 439.62 126.32 441.62 124.79 442.78 C 115.89 451.21 107.91 460.56 98.97 468.94 C 91.74 476.71 84.36 484.37 76.61 491.63 C 71.73 497.70 66.60 503.71 60.48 508.58 C 58.36 510.66 55.90 508.20 54.35 506.68 C 50.35 502.32 45.77 498.56 41.89 494.11 C 37.84 489.47 32.73 485.96 28.42 481.60 C 25.59 478.71 22.08 476.53 19.52 473.39 C 17.32 470.05 21.47 467.61 23.33 465.36 C 28.07 459.74 34.46 455.83 38.99 450.03 C 43.46 444.52 48.90 439.91 53.78 434.78 C 59.70 428.36 66.98 423.29 72.25 416.26 C 76.80 410.18 82.86 405.52 87.79 399.79 C 92.79 394.12 99.35 389.98 103.82 383.82 C 109.22 376.60 117.22 371.89 122.49 364.55 C 124.61 362.27 126.45 358.81 129.82 358.42 C 133.61 359.90 136.07 363.36 138.90 366.11 C 143.47 370.90 149.37 374.27 153.60 379.41 C 155.53 381.62 157.20 384.50 160.38 384.99 C 161.21 385.26 162.07 385.43 162.94 385.52 C 163.34 385.54 164.15 385.59 164.55 385.61 C 168.29 381.65 171.87 377.52 176.20 374.19 C 180.76 370.71 183.44 365.45 187.85 361.82 C 193.44 357.09 197.81 351.15 203.20 346.22 C 207.71 341.39 212.92 337.26 217.27 332.28 C 221.64 327.30 227.11 323.43 231.32 318.31 C 235.71 313.02 241.40 309.01 245.66 303.61 C 249.21 299.20 253.14 295.08 257.53 291.50 C 267.89 282.22 276.62 271.28 286.95 261.99 C 289.96 258.91 291.87 254.66 295.95 252.77 C 301.20 257.62 306.42 262.48 311.70 267.29 C 318.85 275.15 326.90 282.09 334.33 289.68 C 338.57 293.77 343.35 297.31 347.09 301.91 C 353.33 308.34 360.17 314.17 366.49 320.52 C 369.56 323.32 372.59 326.85 376.85 327.66 C 381.41 326.37 383.25 321.46 386.62 318.57 C 391.40 314.30 394.63 308.66 399.18 304.18 C 402.70 300.64 405.21 296.26 408.79 292.78 C 413.03 288.67 416.56 283.91 420.56 279.58 C 428.10 269.85 436.95 261.22 444.42 251.44 C 447.70 247.40 451.90 244.15 454.63 239.66 C 458.48 233.62 464.66 229.63 468.71 223.77 C 474.51 215.65 481.88 208.79 487.65 200.66 C 489.95 197.42 493.71 195.28 495.13 191.43 C 494.89 191.16 494.40 190.63 494.16 190.36 C 493.90 190.08 493.39 189.52 493.13 189.24 C 491.70 187.54 490.18 185.90 488.31 184.70 C 480.10 179.34 472.16 173.59 464.32 167.71 C 461.18 165.34 457.32 163.64 455.36 160.03 C 457.61 158.87 459.96 157.91 462.40 157.23 C 467.70 155.76 472.69 153.35 478.01 151.93 C 485.99 149.81 493.59 146.50 501.57 144.40 C 505.32 143.42 508.97 142.06 512.51 140.48 C 517.90 138.05 523.80 137.19 529.40 135.39 C 538.48 132.62 547.20 128.78 556.36 126.21 C 567.04 123.11 577.34 118.83 588.10 115.97 C 594.45 114.23 600.50 111.62 606.77 109.62 Z" data-index="7" style="opacity: 1;"></path>
</g>
<g id="#f7d6d1ff">

</g>
<g id="#f6c8bfff">
<path fill="#f6c8bf" opacity="1.00" d=" M 408.33 290.42 C 409.20 287.36 410.85 283.90 414.30 283.23 C 412.42 285.72 410.77 288.43 408.33 290.42 Z" data-index="9" style="visibility: hidden;"></path>
</g>
<g id="#f9c6c1ff">

</g>
<g id="#fafafaff">
<path fill="#fafafa" opacity="1.00" d=" M 288.39 341.43 C 291.00 338.39 293.84 335.57 296.92 333.01 C 305.81 340.43 313.60 349.06 322.49 356.49 C 329.62 364.04 337.15 371.23 345.05 377.98 C 355.55 388.14 365.42 398.98 376.58 408.44 C 380.70 412.31 384.74 416.28 389.09 419.90 C 389.85 420.64 391.30 421.08 392.10 420.15 C 396.88 415.88 400.57 410.58 404.84 405.83 C 407.76 402.40 410.90 399.16 413.73 395.65 C 414.24 395.72 415.26 395.85 415.77 395.91 C 415.14 397.82 414.68 399.83 413.56 401.53 C 412.14 403.14 410.25 404.23 408.78 405.77 C 406.56 408.29 405.43 411.62 402.95 413.92 C 399.43 416.74 396.82 420.46 393.32 423.30 C 391.68 424.39 390.77 427.86 388.45 426.74 C 388.92 422.76 385.36 420.50 382.69 418.29 C 380.77 416.85 376.92 418.09 376.44 415.03 C 375.81 412.23 373.34 410.53 371.60 408.44 C 368.31 411.30 366.21 415.16 363.61 418.59 C 360.09 415.39 357.14 411.62 353.47 408.59 C 346.37 402.70 340.06 395.96 333.51 389.49 C 320.83 378.45 309.77 365.71 297.17 354.58 C 291.78 359.37 287.31 365.09 281.98 369.96 C 275.42 376.10 270.04 383.36 263.56 389.56 C 255.11 397.48 247.64 406.32 239.71 414.73 C 234.93 418.86 230.68 423.50 226.45 428.18 C 225.96 423.91 222.94 420.78 219.94 418.01 C 217.30 418.93 215.51 420.97 214.49 423.52 C 213.47 426.34 210.36 426.99 207.85 427.81 C 207.16 429.36 206.48 430.92 205.79 432.48 C 206.08 433.39 206.36 434.29 206.65 435.20 C 204.00 435.82 200.31 434.85 199.00 438.01 C 197.92 439.39 198.93 440.96 199.64 442.24 C 196.34 443.87 192.36 444.37 190.52 448.04 C 190.99 448.84 191.45 449.65 191.92 450.47 C 187.00 449.67 183.62 453.94 182.00 458.05 C 178.38 458.40 176.41 461.50 174.28 464.07 C 174.74 464.94 175.20 465.82 175.67 466.71 C 172.77 465.80 171.32 468.63 169.73 470.47 C 165.60 470.59 163.54 475.47 159.19 475.22 C 157.89 473.80 156.30 472.68 154.36 472.41 C 154.42 471.33 154.50 470.25 154.57 469.19 C 151.13 467.05 147.22 465.41 144.85 461.95 C 145.63 460.94 146.41 459.93 147.17 458.92 C 152.05 463.39 156.64 468.20 161.94 472.20 C 165.91 469.07 169.53 465.55 172.56 461.51 C 184.21 448.86 197.13 437.42 208.39 424.41 C 213.00 419.69 217.65 415.00 222.34 410.35 C 226.86 406.17 230.32 401.01 234.88 396.86 C 245.77 386.41 255.56 374.89 266.37 364.36 C 273.27 356.31 281.04 349.06 288.39 341.43 Z" data-index="11"></path>
</g>
<g id="#f0bbb8ff">

</g>
<g id="#fccfcaff">
<path fill="#fccfca" opacity="1.00" d=" M 183.07 362.07 C 185.21 360.06 186.77 356.85 190.13 356.95 C 185.66 361.94 180.79 366.55 175.97 371.21 C 176.69 367.11 180.44 364.88 183.07 362.07 Z" data-index="13" style="visibility: hidden;"></path>
</g>
</svg>