<svg width="656pt" height="651pt" viewBox="0 0 656 651" version="1.1" xmlns="http://www.w3.org/2000/svg">
<g id="#ffffffff">

<path fill="#ffffff" opacity="1.00" d=" M 278.76 473.60 C 288.49 472.93 298.26 473.69 307.98 473.00 C 327.92 472.26 347.84 473.48 367.78 473.43 C 368.29 473.49 369.30 473.61 369.81 473.67 C 375.76 474.47 381.79 473.58 387.74 474.43 C 391.67 475.05 395.66 475.09 399.62 474.99 C 403.72 475.19 407.83 475.10 411.92 475.49 C 414.46 476.00 417.06 476.06 419.64 475.98 C 422.70 476.06 425.75 476.24 428.79 476.57 C 430.72 476.78 432.66 476.89 434.60 476.90 C 437.02 476.99 439.45 477.13 441.87 477.32 C 451.76 478.10 461.64 479.00 471.53 479.77 C 482.01 480.50 492.47 481.58 502.94 482.53 C 516.15 484.03 529.36 485.61 542.58 486.99 C 548.64 487.56 554.65 488.51 560.69 489.27 C 570.69 490.90 580.74 492.31 590.78 493.71 C 594.34 494.18 597.92 494.53 601.48 495.12 C 610.13 497.09 618.90 498.52 627.70 499.67 C 637.14 501.46 646.67 502.89 656.00 505.23 L 656.00 651.00 L 0.00 651.00 L 0.00 505.04 C 7.35 503.38 14.82 502.26 22.23 500.90 C 33.22 498.67 44.43 497.68 55.37 495.15 C 60.96 494.17 66.58 493.38 72.23 492.75 C 77.93 492.14 83.59 491.17 89.27 490.42 C 94.68 489.79 100.04 488.84 105.43 488.07 C 108.96 487.95 112.44 487.41 115.94 486.98 C 138.67 484.05 161.47 481.76 184.28 479.53 C 191.36 479.13 198.40 478.17 205.48 477.80 C 216.16 477.09 226.88 476.63 237.51 475.37 C 251.23 474.27 265.01 474.18 278.76 473.60 Z" data-index="1" style="visibility: hidden;"></path>
</g>
<g id="#fbcecaff">

</g>
<g id="#8d262eff">
<path fill="#8d262e" opacity="1.00" d=" M 309.97 107.24 C 322.03 104.08 334.87 104.10 346.91 107.39 C 348.78 107.86 350.64 108.45 352.44 109.17 C 355.96 110.84 359.48 112.48 362.96 114.24 C 366.04 115.95 368.93 117.97 371.70 120.15 C 377.64 125.66 383.24 131.57 387.84 138.26 C 402.38 161.01 403.20 191.92 389.23 215.12 C 384.67 223.54 377.86 230.43 370.58 236.53 C 367.65 239.01 364.34 240.97 360.95 242.75 C 344.90 251.41 325.65 253.39 308.09 248.62 C 306.17 248.07 304.28 247.37 302.43 246.64 C 298.89 245.14 295.49 243.35 292.07 241.62 C 288.20 239.47 284.41 237.05 281.21 233.96 C 278.52 231.19 275.84 228.39 273.02 225.73 C 258.10 208.49 252.29 183.54 258.05 161.47 C 259.09 157.97 260.17 154.49 261.29 151.02 C 264.09 143.87 268.23 137.27 273.22 131.45 C 275.52 128.93 277.88 126.47 280.22 123.99 C 281.13 123.05 282.09 122.15 283.14 121.36 C 290.19 115.88 297.92 111.33 306.36 108.33 C 307.53 107.89 308.75 107.54 309.97 107.24 M 329.42 106.39 C 313.55 106.12 298.18 112.19 285.58 121.57 C 282.08 124.42 279.36 128.05 276.22 131.26 C 273.56 133.97 270.90 136.74 269.05 140.09 C 265.54 146.53 261.48 152.89 260.16 160.23 C 258.99 167.07 256.68 173.87 257.32 180.89 C 258.21 189.21 259.53 197.55 262.64 205.37 C 264.94 212.91 270.10 219.01 274.90 225.08 C 282.20 234.13 292.18 240.74 302.89 245.10 C 318.25 251.20 335.89 251.25 351.29 245.22 C 357.67 242.67 364.09 239.85 369.46 235.47 C 378.12 227.99 386.14 219.33 390.73 208.71 C 394.51 199.60 397.76 190.01 397.72 180.04 C 397.86 165.63 394.38 150.80 386.12 138.84 C 382.99 134.99 379.46 131.47 376.58 127.41 C 371.48 120.51 363.37 117.15 356.26 112.83 C 347.83 109.14 338.71 106.23 329.42 106.39 Z" data-index="3"></path>
<path fill="#8d262e" opacity="1.00" d=" M 390.27 233.59 C 391.43 234.08 392.59 234.57 393.72 235.13 C 397.79 237.18 401.82 239.31 405.82 241.49 C 413.35 245.88 420.19 251.40 426.56 257.33 C 430.17 262.42 435.10 266.58 437.66 272.38 C 439.13 275.22 440.51 278.12 441.64 281.12 C 443.89 287.85 446.03 294.79 446.04 301.96 C 446.08 315.07 445.93 328.19 446.11 341.31 C 446.10 341.87 446.09 342.98 446.08 343.54 C 444.47 342.72 442.88 341.85 441.41 340.81 C 433.39 334.23 422.72 330.48 412.36 332.39 C 404.45 334.31 396.81 338.39 391.74 344.89 C 389.77 347.28 388.23 349.99 386.78 352.72 C 383.14 359.28 382.12 367.12 383.68 374.44 C 384.75 379.50 386.01 384.63 388.57 389.18 C 389.70 391.39 391.10 393.48 392.87 395.26 C 399.79 403.40 410.25 408.59 421.03 408.21 C 424.18 407.88 427.20 406.84 430.34 406.43 C 431.09 406.45 432.60 406.49 433.36 406.51 C 423.77 411.38 411.83 410.81 402.56 405.47 C 384.52 395.46 376.40 370.93 385.21 352.21 C 389.39 343.58 396.54 335.87 405.83 332.81 C 412.20 330.25 419.32 329.29 426.04 331.04 C 432.50 332.45 437.92 336.39 443.36 339.94 C 445.77 332.51 444.68 324.65 444.74 317.00 C 444.67 309.72 445.25 302.35 443.87 295.15 C 442.69 288.68 440.14 282.59 437.52 276.60 C 434.62 269.94 429.82 264.37 425.05 258.98 C 417.42 250.58 407.48 244.93 397.99 238.93 C 395.45 237.74 392.13 235.36 389.44 237.40 C 385.50 240.43 382.31 244.33 378.36 247.36 C 373.11 251.86 366.62 254.43 360.43 257.33 C 352.70 260.72 344.56 263.57 336.06 263.98 C 328.27 264.38 320.36 264.65 312.65 263.16 C 300.21 260.61 288.10 255.80 277.94 248.08 C 273.56 245.20 270.21 241.07 265.93 238.08 C 263.74 236.57 261.02 237.83 258.91 238.84 C 254.18 241.35 249.77 244.41 245.14 247.09 C 237.51 251.56 231.42 258.13 225.98 265.00 C 219.60 273.09 215.46 282.73 212.75 292.61 C 210.68 299.90 211.29 307.53 211.33 315.00 C 211.47 322.87 210.79 330.79 212.02 338.61 C 218.96 336.45 224.68 331.05 232.13 330.45 C 242.63 329.13 253.15 333.21 261.23 339.76 C 267.41 344.84 270.99 352.38 272.83 360.03 C 273.79 364.98 273.26 370.08 272.97 375.08 C 272.55 381.94 269.46 388.24 266.22 394.17 C 264.75 395.02 263.23 395.80 261.76 396.66 C 262.15 396.12 262.91 395.04 263.30 394.50 C 270.61 385.30 273.38 372.89 271.61 361.37 C 269.69 354.01 266.50 346.34 260.33 341.56 C 256.22 338.07 251.45 335.35 246.37 333.59 C 238.34 330.75 229.06 331.37 221.77 335.92 C 217.79 338.18 214.12 340.95 210.43 343.64 C 209.47 330.78 210.23 317.86 209.94 304.98 C 209.59 296.78 211.90 288.80 214.47 281.10 C 218.46 270.35 225.67 261.00 234.00 253.24 C 238.36 249.76 242.72 246.26 247.40 243.23 C 253.24 239.87 259.16 236.51 265.62 234.48 C 265.92 234.84 266.52 235.55 266.82 235.91 C 270.55 240.39 275.13 244.09 280.00 247.27 C 287.49 252.62 295.86 256.70 304.71 259.23 C 312.57 261.98 320.95 263.20 329.27 262.90 C 339.45 262.33 349.54 260.06 358.96 256.15 C 364.74 253.78 370.33 250.89 375.40 247.22 C 376.70 246.32 377.95 245.36 379.22 244.41 C 382.97 241.72 386.23 238.41 389.18 234.88 C 389.45 234.56 390.00 233.91 390.27 233.59 Z" data-index="4"></path>
</g>
<g id="#d81217ff">
<path fill="#d81217" opacity="1.00" d=" M 329.42 106.39 C 338.71 106.23 347.83 109.14 356.26 112.83 C 363.37 117.15 371.48 120.51 376.58 127.41 C 379.46 131.47 382.99 134.99 386.12 138.84 C 394.38 150.80 397.86 165.63 397.72 180.04 C 397.76 190.01 394.51 199.60 390.73 208.71 C 386.14 219.33 378.12 227.99 369.46 235.47 C 364.09 239.85 357.67 242.67 351.29 245.22 C 335.89 251.25 318.25 251.20 302.89 245.10 C 292.18 240.74 282.20 234.13 274.90 225.08 C 270.10 219.01 264.94 212.91 262.64 205.37 C 259.53 197.55 258.21 189.21 257.32 180.89 C 256.68 173.87 258.99 167.07 260.16 160.23 C 261.48 152.89 265.54 146.53 269.05 140.09 C 270.90 136.74 273.56 133.97 276.22 131.26 C 279.36 128.05 282.08 124.42 285.58 121.57 C 298.18 112.19 313.55 106.12 329.42 106.39 Z" data-index="5"></path>
</g>
<g id="#fccccdff">

</g>
<g id="#f6c2c1ff">
<path fill="#f6c2c1" opacity="1.00" d=" M 352.44 109.17 C 356.68 108.05 360.18 111.55 362.96 114.24 C 359.48 112.48 355.96 110.84 352.44 109.17 Z" data-index="7"></path>
</g>
<g id="#f9c9c4ff">
<path fill="#f9c9c4" opacity="1.00" d=" M 371.70 120.15 C 376.83 121.94 380.08 126.53 383.64 130.35 C 385.75 132.55 387.17 135.29 387.84 138.26 C 383.24 131.57 377.64 125.66 371.70 120.15 Z" data-index="8"></path>
</g>
<g id="#fcd6caff">

</g>
<g id="#f4b6b4ff">
<path fill="#f4b6b4" opacity="1.00" d=" M 258.05 161.47 C 257.28 157.64 258.84 153.90 261.29 151.02 C 260.17 154.49 259.09 157.97 258.05 161.47 Z" data-index="10" style="visibility: hidden;"></path>
</g>
<g id="#1e1e1cff">
<path fill="#1e1e1c" opacity="1.00" d=" M 110.72 178.69 C 122.73 168.67 138.48 163.55 154.06 163.94 C 174.26 165.69 194.28 176.67 204.37 194.59 C 204.82 199.04 207.35 202.82 208.93 206.91 C 213.06 216.91 213.74 227.92 212.83 238.60 C 211.91 243.51 210.22 248.32 210.48 253.39 C 210.17 255.72 208.99 257.81 207.78 259.79 C 198.51 277.87 180.16 290.94 160.08 293.95 C 149.76 294.79 139.06 294.54 129.29 290.76 C 120.97 287.44 112.87 282.91 106.71 276.29 C 93.50 263.68 86.15 245.22 86.86 226.99 C 87.31 212.51 92.89 198.33 102.21 187.27 C 104.91 184.27 107.81 181.47 110.72 178.69 Z" data-index="11"></path>
<path fill="#1e1e1c" opacity="1.00" d=" M 555.36 189.75 C 551.44 186.35 547.52 182.89 544.44 178.69 C 548.43 181.98 552.24 185.60 555.36 189.75 Z" data-index="12"></path>
<path fill="#1e1e1c" opacity="1.00" d=" M 566.83 242.35 C 567.75 234.18 567.67 225.95 567.72 217.74 C 568.97 225.88 568.95 234.36 566.83 242.35 Z" data-index="13"></path>
<path fill="#1e1e1c" opacity="1.00" d=" M 74.29 303.25 C 82.37 296.87 91.00 291.08 100.48 286.98 C 107.32 293.00 115.27 297.67 123.56 301.40 C 131.30 304.72 139.71 305.81 147.98 306.93 C 152.71 307.49 157.30 306.08 161.99 305.84 C 169.60 304.81 176.68 301.73 183.67 298.71 C 188.23 296.42 192.48 293.56 197.14 291.47 C 199.24 307.06 196.40 322.90 198.86 338.45 C 199.02 341.22 199.28 344.01 200.41 346.59 C 202.99 350.34 207.17 353.67 211.99 353.07 C 220.04 353.80 224.39 345.32 231.73 343.75 C 239.05 341.27 246.86 344.86 252.37 349.64 C 257.12 352.98 259.73 358.62 260.70 364.22 C 262.29 370.79 260.28 377.56 257.55 383.54 C 254.65 389.02 249.32 393.25 243.58 395.40 C 238.07 394.72 232.11 395.74 227.08 392.86 C 221.58 389.83 216.70 384.69 209.95 384.88 C 204.59 384.36 200.25 388.78 198.42 393.41 C 197.04 398.48 197.74 403.81 197.65 409.00 C 197.62 421.51 197.83 434.03 197.50 446.55 C 195.90 446.60 194.29 446.67 192.69 446.73 C 192.43 447.28 191.91 448.39 191.65 448.94 C 185.22 448.82 178.88 450.78 172.53 450.77 C 167.66 448.95 162.61 450.75 157.72 451.49 C 152.44 452.41 147.04 452.71 141.88 454.25 C 141.79 454.57 141.60 455.21 141.50 455.53 L 141.38 455.97 C 136.88 456.15 132.52 457.29 128.11 458.07 C 117.37 460.23 106.56 461.93 95.82 464.08 C 95.42 459.73 95.17 455.36 95.22 451.00 C 95.40 433.65 95.26 416.31 95.20 398.96 C 95.07 393.46 95.99 387.81 94.59 382.42 C 94.08 380.81 92.24 380.87 90.88 380.77 C 89.58 380.83 88.29 380.81 86.99 380.72 C 86.02 380.62 85.04 380.52 84.07 380.41 C 82.73 383.41 81.81 386.63 81.94 389.96 C 82.07 413.66 81.92 437.36 82.05 461.06 C 82.34 463.85 80.99 466.33 78.67 467.83 C 64.35 471.60 49.96 475.16 35.99 480.12 C 35.97 478.13 35.97 476.14 35.98 474.16 C 36.52 474.34 37.61 474.70 38.16 474.88 C 38.26 445.59 38.11 416.31 38.16 387.02 C 37.33 369.60 41.46 352.01 49.76 336.69 C 51.14 334.16 51.91 331.38 52.52 328.59 C 57.72 318.64 65.87 310.54 74.29 303.25 Z" data-index="14"></path>

<path fill="#1e1e1c" opacity="1.00" d=" M 394.70 373.36 C 394.86 372.74 395.18 371.49 395.34 370.87 C 396.12 375.36 397.27 379.77 398.50 384.16 C 396.75 380.75 395.69 377.05 394.70 373.36 Z" data-index="16"></path>
<path fill="#1e1e1c" opacity="1.00" d=" M 479.71 450.59 C 489.64 450.19 499.33 452.68 509.14 453.74 C 508.50 453.77 507.22 453.83 506.58 453.86 C 502.28 453.75 498.06 452.74 493.80 452.23 C 489.14 451.39 484.37 451.47 479.71 450.59 Z" data-index="17"></path>

<path fill="#1e1e1c" opacity="1.00" d=" M 400.75 455.33 C 401.40 455.14 402.69 454.77 403.33 454.58 C 409.62 454.90 415.90 455.35 422.19 455.76 C 415.04 455.72 407.89 455.53 400.75 455.33 Z" data-index="19"></path>
<path fill="#1e1e1c" opacity="1.00" d=" M 164.70 463.15 C 174.63 461.90 184.56 460.68 194.51 459.57 C 194.92 459.67 195.74 459.89 196.14 460.00 C 185.67 461.03 175.25 463.15 164.70 463.15 Z" data-index="20"></path>
<path fill="#1e1e1c" opacity="1.00" d=" M 235.84 474.89 C 250.62 473.17 265.53 473.88 280.35 472.80 C 290.23 472.31 300.12 472.86 310.00 472.43 C 326.34 471.86 342.68 472.86 359.02 472.55 C 361.96 472.52 364.89 472.89 367.78 473.43 C 347.84 473.48 327.92 472.26 307.98 473.00 C 298.26 473.69 288.49 472.93 278.76 473.60 C 265.01 474.18 251.23 474.27 237.51 475.37 C 237.09 475.25 236.26 475.01 235.84 474.89 Z" data-index="21"></path>
<path fill="#1e1e1c" opacity="1.00" d=" M 82.81 478.32 C 91.41 476.41 100.00 474.48 108.65 472.76 C 109.27 472.84 110.51 473.01 111.13 473.10 C 101.59 474.35 92.43 477.81 82.81 478.32 Z" data-index="22"></path>
<path fill="#1e1e1c" opacity="1.00" d=" M 542.58 486.99 C 549.86 486.36 556.98 488.45 564.23 488.76 C 563.04 488.94 561.86 489.11 560.69 489.27 C 554.65 488.51 548.64 487.56 542.58 486.99 Z" data-index="23"></path>
<path fill="#1e1e1c" opacity="1.00" d=" M 52.87 494.82 C 59.25 493.65 65.71 492.56 72.23 492.75 C 66.58 493.38 60.96 494.17 55.37 495.15 C 54.74 495.07 53.49 494.91 52.87 494.82 Z" data-index="24"></path>
<path fill="#1e1e1c" opacity="1.00" d=" M 590.78 493.71 C 594.89 493.59 599.01 493.75 603.06 494.55 C 602.66 494.69 601.87 494.98 601.48 495.12 C 597.92 494.53 594.34 494.18 590.78 493.71 Z" data-index="25"></path>
</g>
<g id="#808080ff">
<path fill="#808080" opacity="1.00" d=" M 484.55 167.46 C 499.53 161.67 516.61 163.35 531.08 169.85 C 535.78 172.33 540.77 174.75 544.44 178.69 C 547.52 182.89 551.44 186.35 555.36 189.75 C 562.00 197.60 566.09 207.64 567.72 217.74 C 567.67 225.95 567.75 234.18 566.83 242.35 C 564.31 257.14 555.42 270.52 543.67 279.69 C 534.03 286.75 522.68 292.47 510.53 292.82 C 506.23 292.00 501.83 291.91 497.55 292.82 C 495.35 293.23 493.17 292.55 491.04 292.12 C 480.67 289.90 471.11 284.70 462.89 278.09 C 455.99 272.51 450.94 265.03 446.83 257.25 C 441.67 245.76 440.08 232.87 441.43 220.40 C 442.73 212.84 445.15 205.46 448.59 198.60 C 456.36 184.40 469.10 172.68 484.55 167.46 Z" data-index="26"></path>
<path fill="#808080" opacity="1.00" d=" M 516.59 305.43 C 530.68 302.73 543.74 295.85 554.84 286.87 C 568.27 293.50 581.19 301.55 591.69 312.35 C 601.74 323.44 609.24 336.73 614.15 350.85 C 615.09 354.07 616.34 357.28 616.52 360.67 C 616.19 367.84 618.20 374.85 618.00 382.02 C 618.05 409.34 617.93 436.67 617.99 464.00 C 618.06 469.05 618.59 474.30 616.58 479.09 C 614.09 478.31 611.61 477.54 609.17 476.67 L 608.73 476.30 C 605.66 473.25 601.14 472.92 597.19 471.81 C 589.33 469.65 581.32 468.04 573.64 465.28 C 573.82 441.53 573.55 417.77 573.76 394.02 C 573.82 390.26 573.55 386.51 572.95 382.80 L 572.29 383.63 C 570.04 381.64 567.30 380.33 564.24 381.11 C 561.48 382.68 561.86 386.28 561.70 388.99 C 561.84 414.08 561.59 439.18 561.85 464.27 C 547.88 462.16 534.13 458.73 520.14 456.73 C 515.58 455.97 510.90 455.59 506.58 453.86 C 507.22 453.83 508.50 453.77 509.14 453.74 C 499.33 452.68 489.64 450.19 479.71 450.59 C 473.09 449.91 466.45 449.18 459.87 448.12 C 461.32 448.04 462.78 447.95 464.24 447.84 C 462.18 447.40 460.12 446.99 458.07 446.60 C 457.71 433.40 458.07 420.20 457.98 407.00 C 457.80 402.36 458.98 397.06 455.89 393.10 C 453.43 389.46 449.60 386.56 445.00 386.77 C 436.65 386.17 431.93 394.72 424.27 396.33 C 417.20 398.52 409.56 395.54 404.22 390.82 C 402.10 388.83 399.46 387.02 398.50 384.16 C 397.27 379.77 396.12 375.36 395.34 370.87 C 395.18 371.49 394.86 372.74 394.70 373.36 C 393.18 365.94 395.25 357.82 399.97 351.91 C 404.65 346.93 411.12 343.42 417.99 342.92 C 424.62 343.01 430.30 346.77 435.44 350.55 C 439.17 353.44 444.23 353.56 448.67 352.65 C 452.79 351.27 454.98 347.29 457.32 343.94 L 457.34 344.94 C 458.23 340.70 458.33 336.35 458.27 332.04 C 458.16 321.30 458.37 310.56 458.17 299.83 C 458.12 297.17 458.53 294.52 459.28 291.98 C 469.93 297.95 480.93 303.69 493.09 305.83 C 492.51 305.89 491.35 306.00 490.77 306.06 C 497.63 308.67 505.08 308.31 512.24 307.53 C 510.77 307.30 509.30 307.06 507.83 306.89 C 510.64 305.87 513.68 306.01 516.59 305.43 Z" data-index="27" style="opacity: 1;"></path>
<path fill="#808080" opacity="1.00" d=" M 371.30 453.10 C 376.93 453.01 382.58 453.04 388.20 453.68 C 383.00 453.46 377.80 453.81 372.64 454.37 C 381.23 454.62 389.92 455.89 398.43 454.17 C 400.06 454.22 401.70 454.41 403.33 454.58 C 402.69 454.77 401.40 455.14 400.75 455.33 C 407.89 455.53 415.04 455.72 422.19 455.76 C 429.59 456.10 436.96 456.93 444.32 457.69 C 443.65 457.86 442.31 458.21 441.64 458.39 C 446.46 459.53 451.46 459.91 456.35 458.91 C 475.51 460.67 494.64 462.99 513.60 466.37 C 555.13 473.07 596.35 482.46 636.01 496.66 C 635.56 496.83 634.66 497.19 634.21 497.36 C 636.24 498.23 638.28 499.12 640.33 499.98 C 636.14 499.43 631.91 499.30 627.70 499.67 C 618.90 498.52 610.13 497.09 601.48 495.12 C 601.87 494.98 602.66 494.69 603.06 494.55 C 599.01 493.75 594.89 493.59 590.78 493.71 C 580.74 492.31 570.69 490.90 560.69 489.27 C 561.86 489.11 563.04 488.94 564.23 488.76 C 556.98 488.45 549.86 486.36 542.58 486.99 C 529.36 485.61 516.15 484.03 502.94 482.53 C 499.95 481.50 496.91 480.52 493.75 480.26 C 486.36 479.73 478.90 478.19 471.53 479.77 C 461.64 479.00 451.76 478.10 441.87 477.32 C 443.73 477.12 445.58 476.81 447.43 476.49 C 443.16 475.86 438.83 476.04 434.60 476.90 C 432.66 476.89 430.72 476.78 428.79 476.57 C 429.38 476.18 430.55 475.39 431.14 475.00 C 427.28 474.93 423.43 475.28 419.64 475.98 C 417.06 476.06 414.46 476.00 411.92 475.49 C 408.00 473.66 403.70 473.84 399.62 474.99 C 395.66 475.09 391.67 475.05 387.74 474.43 C 388.33 474.13 389.51 473.53 390.11 473.23 C 383.34 472.85 376.53 472.71 369.81 473.67 C 369.30 473.61 368.29 473.49 367.78 473.43 C 364.89 472.89 361.96 472.52 359.02 472.55 C 342.68 472.86 326.34 471.86 310.00 472.43 C 300.12 472.86 290.23 472.31 280.35 472.80 C 265.53 473.88 250.62 473.17 235.84 474.89 C 236.26 475.01 237.09 475.25 237.51 475.37 C 226.88 476.63 216.16 477.09 205.48 477.80 C 197.26 476.14 188.97 478.32 180.72 478.49 C 181.90 478.85 183.09 479.20 184.28 479.53 C 161.47 481.76 138.67 484.05 115.94 486.98 C 112.44 487.41 108.96 487.95 105.43 488.07 C 98.81 487.04 92.22 488.74 85.69 489.64 C 86.88 489.91 88.07 490.17 89.27 490.42 C 83.59 491.17 77.93 492.14 72.23 492.75 C 65.71 492.56 59.25 493.65 52.87 494.82 C 53.49 494.91 54.74 495.07 55.37 495.15 C 44.43 497.68 33.22 498.67 22.23 500.90 C 20.80 500.09 19.37 499.29 17.94 498.50 C 24.12 496.07 30.52 494.30 36.77 492.06 C 36.57 491.67 36.18 490.90 35.98 490.52 C 51.43 485.88 66.97 481.38 82.81 478.32 C 92.43 477.81 101.59 474.35 111.13 473.10 C 110.51 473.01 109.27 472.84 108.65 472.76 C 110.98 472.21 113.31 471.67 115.68 471.26 C 119.20 471.55 122.75 471.46 126.24 470.86 C 125.84 470.52 125.03 469.84 124.63 469.51 C 137.91 466.96 151.30 464.92 164.70 463.15 C 175.25 463.15 185.67 461.03 196.14 460.00 C 195.74 459.89 194.92 459.67 194.51 459.57 C 201.46 458.28 208.51 457.75 215.55 457.29 C 219.38 458.10 223.38 458.28 226.98 456.49 C 236.25 455.30 245.59 454.80 254.92 454.36 C 269.29 455.16 283.63 453.39 298.00 453.65 C 310.99 453.17 323.99 453.43 337.00 453.38 C 348.43 453.29 359.90 454.43 371.30 453.10 Z" data-index="28"></path>
</g>
<g id="#10100eff">
<path fill="#10100e" opacity="1.00" d=" M 208.93 206.91 C 207.35 202.82 204.82 199.04 204.37 194.59 C 215.82 211.55 218.55 234.46 210.48 253.39 C 210.22 248.32 211.91 243.51 212.83 238.60 C 213.74 227.92 213.06 216.91 208.93 206.91 Z" data-index="29"></path>
</g>
<g id="#fbc8c3ff">
<path fill="#fbc8c3" opacity="1.00" d=" M 273.02 225.73 C 275.84 228.39 278.52 231.19 281.21 233.96 C 277.29 232.70 274.20 229.71 273.02 225.73 Z" data-index="30"></path>
</g>
<g id="#fdc2c1ff">

</g>
<g id="#f6c4c6ff">
<path fill="#f6c4c6" opacity="1.00" d=" M 393.72 235.13 C 398.39 235.50 403.09 237.54 405.82 241.49 C 401.82 239.31 397.79 237.18 393.72 235.13 Z" data-index="32" style="visibility: hidden;"></path>
</g>
<g id="#fac8c6ff">
<path fill="#fac8c6" opacity="1.00" d=" M 266.82 235.91 C 272.08 238.41 276.52 242.65 280.00 247.27 C 275.13 244.09 270.55 240.39 266.82 235.91 Z" data-index="33"></path>
</g>
<g id="#d10e16ff">
<path fill="#d10e16" opacity="1.00" d=" M 389.44 237.40 C 392.13 235.36 395.45 237.74 397.99 238.93 C 407.48 244.93 417.42 250.58 425.05 258.98 C 429.82 264.37 434.62 269.94 437.52 276.60 C 440.14 282.59 442.69 288.68 443.87 295.15 C 445.25 302.35 444.67 309.72 444.74 317.00 C 444.68 324.65 445.77 332.51 443.36 339.94 C 437.92 336.39 432.50 332.45 426.04 331.04 C 419.32 329.29 412.20 330.25 405.83 332.81 C 396.54 335.87 389.39 343.58 385.21 352.21 C 376.40 370.93 384.52 395.46 402.56 405.47 C 411.83 410.81 423.77 411.38 433.36 406.51 C 432.60 406.49 431.09 406.45 430.34 406.43 C 432.27 405.30 434.27 404.26 436.30 403.30 C 435.94 403.75 435.22 404.64 434.87 405.08 C 437.91 403.70 440.91 402.22 443.96 400.83 C 444.55 407.87 444.38 414.94 444.34 422.00 C 444.26 429.50 444.76 437.03 443.99 444.51 C 431.88 444.84 419.87 442.98 407.81 442.37 C 391.42 441.64 375.05 440.50 358.64 440.36 C 346.43 439.44 334.21 440.48 322.00 440.15 C 311.67 439.71 301.33 440.29 290.99 439.99 C 279.30 440.04 267.70 441.88 255.99 441.81 C 243.97 441.82 232.07 443.67 220.09 444.35 C 217.13 444.54 214.17 444.23 211.26 443.73 C 211.51 429.74 211.06 415.75 211.45 401.76 C 215.98 403.16 220.08 405.55 224.16 407.90 C 228.14 410.10 232.58 412.18 237.26 411.33 C 248.53 409.85 261.14 405.20 266.22 394.17 C 269.46 388.24 272.55 381.94 272.97 375.08 C 273.26 370.08 273.79 364.98 272.83 360.03 C 270.99 352.38 267.41 344.84 261.23 339.76 C 253.15 333.21 242.63 329.13 232.13 330.45 C 224.68 331.05 218.96 336.45 212.02 338.61 C 210.79 330.79 211.47 322.87 211.33 315.00 C 211.29 307.53 210.68 299.90 212.75 292.61 C 215.46 282.73 219.60 273.09 225.98 265.00 C 231.42 258.13 237.51 251.56 245.14 247.09 C 249.77 244.41 254.18 241.35 258.91 238.84 C 261.02 237.83 263.74 236.57 265.93 238.08 C 270.21 241.07 273.56 245.20 277.94 248.08 C 288.10 255.80 300.21 260.61 312.65 263.16 C 320.36 264.65 328.27 264.38 336.06 263.98 C 344.56 263.57 352.70 260.72 360.43 257.33 C 366.62 254.43 373.11 251.86 378.36 247.36 C 382.31 244.33 385.50 240.43 389.44 237.40 Z" data-index="34" style="opacity: 1;"></path>
</g>
<g id="#fcccc9ff">
<path fill="#fcccc9" opacity="1.00" d=" M 292.07 241.62 C 295.49 243.35 298.89 245.14 302.43 246.64 C 298.60 246.30 293.81 245.59 292.07 241.62 Z" data-index="35"></path>
</g>
<g id="#fdd1d2ff">

</g>
<g id="#fdd1d0ff">
<path fill="#fdd1d0" opacity="1.00" d=" M 308.09 248.62 C 325.65 253.39 344.90 251.41 360.95 242.75 C 358.01 246.56 353.17 247.81 348.86 249.38 C 339.58 252.55 329.61 252.36 319.95 251.85 C 315.88 251.46 311.33 251.50 308.09 248.62 Z" data-index="37"></path>
</g>
<g id="#f8c7c6ff">

</g>
<g id="#f6c2c3ff">
<path fill="#f6c2c3" opacity="1.00" d=" M 304.71 259.23 C 312.97 259.81 321.08 261.73 329.27 262.90 C 320.95 263.20 312.57 261.98 304.71 259.23 Z" data-index="39" style="visibility: hidden;"></path>
</g>
<g id="#fdd5d4ff">

</g>
<g id="#fed4d4ff">
<path fill="#fed4d4" opacity="1.00" d=" M 441.64 281.12 C 445.53 284.78 445.95 290.46 446.61 295.45 C 447.11 308.64 446.55 321.85 446.92 335.04 C 446.98 337.16 446.63 339.26 446.11 341.31 C 445.93 328.19 446.08 315.07 446.04 301.96 C 446.03 294.79 443.89 287.85 441.64 281.12 Z" data-index="41"></path>
</g>
<g id="#050503ff">
<path fill="#050503" opacity="1.00" d=" M 197.09 291.07 C 197.56 290.75 198.52 290.10 199.00 289.77 C 198.93 306.00 199.20 322.23 198.86 338.45 C 196.40 322.90 199.24 307.06 197.14 291.47 L 197.09 291.07 Z" data-index="42"></path>
<path fill="#050503" opacity="1.00" d=" M 90.88 380.77 C 92.24 380.87 94.08 380.81 94.59 382.42 C 95.99 387.81 95.07 393.46 95.20 398.96 C 95.26 416.31 95.40 433.65 95.22 451.00 C 95.17 455.36 95.42 459.73 95.82 464.08 C 95.38 464.11 94.49 464.18 94.04 464.21 C 93.91 437.22 94.02 410.22 94.00 383.23 C 92.97 382.40 91.94 381.56 90.88 380.77 Z" data-index="43"></path>
</g>
<g id="#5d5d5dff">
<path fill="#5d5d5d" opacity="1.00" d=" M 497.55 292.82 C 501.83 291.91 506.23 292.00 510.53 292.82 C 506.25 293.66 501.84 293.37 497.55 292.82 Z" data-index="44"></path>
</g>
<g id="#636363ff">
<path fill="#636363" opacity="1.00" d=" M 490.77 306.06 C 491.35 306.00 492.51 305.89 493.09 305.83 C 497.97 306.59 502.89 306.80 507.83 306.89 C 509.30 307.06 510.77 307.30 512.24 307.53 C 505.08 308.31 497.63 308.67 490.77 306.06 Z" data-index="45"></path>
<path fill="#636363" opacity="1.00" d=" M 372.64 454.37 C 377.80 453.81 383.00 453.46 388.20 453.68 C 391.60 453.94 395.02 453.97 398.43 454.17 C 389.92 455.89 381.23 454.62 372.64 454.37 Z" data-index="46"></path>
<path fill="#636363" opacity="1.00" d=" M 85.69 489.64 C 92.22 488.74 98.81 487.04 105.43 488.07 C 100.04 488.84 94.68 489.79 89.27 490.42 C 88.07 490.17 86.88 489.91 85.69 489.64 Z" data-index="47"></path>
</g>
<g id="#111111ff">
<path fill="#111111" opacity="1.00" d=" M 52.52 328.59 C 51.91 331.38 51.14 334.16 49.76 336.69 C 41.46 352.01 37.33 369.60 38.16 387.02 C 38.11 416.31 38.26 445.59 38.16 474.88 C 37.61 474.70 36.52 474.34 35.98 474.16 C 36.02 443.09 35.99 412.02 35.99 380.95 C 37.20 362.55 42.11 343.99 52.52 328.59 Z" data-index="48"></path>
</g>
<g id="#fbc6c5ff">
<path fill="#fbc6c5" opacity="1.00" d=" M 221.77 335.92 C 229.06 331.37 238.34 330.75 246.37 333.59 C 242.23 333.63 238.14 332.86 234.01 332.93 C 229.84 333.50 225.94 335.30 221.77 335.92 Z" data-index="49"></path>
</g>
<g id="#facdcbff">

</g>
<g id="#fbceceff">
<path fill="#fbcece" opacity="1.00" d=" M 260.33 341.56 C 266.50 346.34 269.69 354.01 271.61 361.37 C 273.38 372.89 270.61 385.30 263.30 394.50 C 264.19 389.82 267.10 385.93 268.57 381.46 C 270.39 376.19 271.94 370.60 271.13 364.98 C 269.60 356.37 265.03 348.77 260.33 341.56 Z" data-index="51" style="visibility: hidden;"></path>
</g>
<g id="#fdc3c2ff">
<path fill="#fdc3c2" opacity="1.00" d=" M 383.68 374.44 C 382.12 367.12 383.14 359.28 386.78 352.72 C 385.24 359.89 383.87 367.07 383.68 374.44 Z" data-index="52"></path>
</g>
<g id="#666666ff">
<path fill="#666666" opacity="1.00" d=" M 618.00 382.02 C 618.20 374.85 616.19 367.84 616.52 360.67 C 618.76 367.88 619.31 375.46 619.68 382.95 C 619.75 415.26 619.51 447.57 619.79 479.88 C 618.70 479.61 617.64 479.35 616.58 479.09 C 618.59 474.30 618.06 469.05 617.99 464.00 C 617.93 436.67 618.05 409.34 618.00 382.02 Z" data-index="53"></path>
<path fill="#666666" opacity="1.00" d=" M 572.95 382.80 C 573.55 386.51 573.82 390.26 573.76 394.02 C 573.55 417.77 573.82 441.53 573.64 465.28 C 581.32 468.04 589.33 469.65 597.19 471.81 C 601.14 472.92 605.66 473.25 608.73 476.30 C 596.52 473.20 584.42 469.65 572.15 466.77 C 572.23 439.06 571.93 411.32 572.29 383.63 L 572.95 382.80 Z" data-index="54"></path>
<path fill="#666666" opacity="1.00" d=" M 634.21 497.36 C 634.66 497.19 635.56 496.83 636.01 496.66 C 642.66 499.15 649.55 501.08 656.00 504.10 L 656.00 505.23 C 646.67 502.89 637.14 501.46 627.70 499.67 C 631.91 499.30 636.14 499.43 640.33 499.98 C 638.28 499.12 636.24 498.23 634.21 497.36 Z" data-index="55"></path>
</g>
<g id="#040404ff">
<path fill="#040404" opacity="1.00" d=" M 84.07 380.41 C 85.04 380.52 86.02 380.62 86.99 380.72 C 85.40 382.16 83.00 383.57 83.20 386.04 C 83.13 412.96 83.21 439.88 83.18 466.80 C 81.67 467.12 80.17 467.48 78.67 467.83 C 80.99 466.33 82.34 463.85 82.05 461.06 C 81.92 437.36 82.07 413.66 81.94 389.96 C 81.81 386.63 82.73 383.41 84.07 380.41 Z" data-index="56"></path>
</g>
<g id="#141413ff">
<path fill="#141413" opacity="1.00" d=" M 198.42 393.41 C 200.25 388.78 204.59 384.36 209.95 384.88 C 216.70 384.69 221.58 389.83 227.08 392.86 C 232.11 395.74 238.07 394.72 243.58 395.40 C 236.71 398.63 228.73 396.39 222.82 392.20 C 219.81 389.99 216.94 387.17 213.00 386.93 C 206.18 385.26 198.93 390.93 199.02 397.95 C 199.01 414.63 198.99 431.31 199.04 448.00 C 196.56 448.19 194.10 448.55 191.65 448.94 C 191.91 448.39 192.43 447.28 192.69 446.73 C 194.29 446.67 195.90 446.60 197.50 446.55 C 197.83 434.03 197.62 421.51 197.65 409.00 C 197.74 403.81 197.04 398.48 198.42 393.41 Z" data-index="57"></path>
</g>
<g id="#ffcdc8ff">
<path fill="#ffcdc8" opacity="1.00" d=" M 388.57 389.18 C 390.96 390.40 392.29 392.69 392.87 395.26 C 391.10 393.48 389.70 391.39 388.57 389.18 Z" data-index="58"></path>
</g>
<g id="#5b5a5aff">
<path fill="#5b5a5a" opacity="1.00" d=" M 455.89 393.10 C 458.98 397.06 457.80 402.36 457.98 407.00 C 458.07 420.20 457.71 433.40 458.07 446.60 C 460.12 446.99 462.18 447.40 464.24 447.84 C 462.78 447.95 461.32 448.04 459.87 448.12 C 459.06 448.13 457.44 448.14 456.63 448.15 C 456.79 435.10 456.65 422.05 456.71 409.00 C 456.68 403.70 457.12 398.32 455.89 393.10 Z" data-index="59"></path>
</g>
<g id="#b21820ff">
<path fill="#b21820" opacity="1.00" d=" M 261.76 396.66 C 263.23 395.80 264.75 395.02 266.22 394.17 C 261.14 405.20 248.53 409.85 237.26 411.33 C 232.58 412.18 228.14 410.10 224.16 407.90 C 227.51 408.60 230.95 408.67 234.35 408.37 C 240.16 407.81 246.05 406.90 251.30 404.20 C 255.29 402.43 258.18 399.05 261.76 396.66 Z" data-index="60"></path>
</g>
<g id="#8d292dff">
<path fill="#8d292d" opacity="1.00" d=" M 209.97 396.72 C 214.73 400.09 219.38 403.75 224.74 406.11 C 227.87 407.13 231.20 407.37 234.35 408.37 C 230.95 408.67 227.51 408.60 224.16 407.90 C 220.08 405.55 215.98 403.16 211.45 401.76 C 211.06 415.75 211.51 429.74 211.26 443.73 C 214.17 444.23 217.13 444.54 220.09 444.35 C 232.07 443.67 243.97 441.82 255.99 441.81 C 267.70 441.88 279.30 440.04 290.99 439.99 C 301.33 440.29 311.67 439.71 322.00 440.15 C 334.21 440.48 346.43 439.44 358.64 440.36 C 375.05 440.50 391.42 441.64 407.81 442.37 C 419.87 442.98 431.88 444.84 443.99 444.51 C 444.76 437.03 444.26 429.50 444.34 422.00 C 444.38 414.94 444.55 407.87 443.96 400.83 C 440.91 402.22 437.91 403.70 434.87 405.08 C 435.22 404.64 435.94 403.75 436.30 403.30 C 439.13 400.76 442.26 398.51 445.55 396.59 C 446.06 413.48 445.89 430.41 445.62 447.31 C 440.50 445.75 435.10 446.07 429.84 445.35 C 419.49 444.79 409.16 443.82 398.78 443.66 C 398.18 443.61 396.98 443.52 396.37 443.48 C 383.95 442.38 371.47 441.93 359.00 442.00 C 338.01 441.57 316.99 441.32 296.00 441.99 C 286.34 442.05 276.64 441.78 267.02 442.94 C 258.31 442.81 249.68 444.19 240.96 444.12 C 230.87 445.19 220.64 445.13 210.64 446.94 L 209.88 447.10 C 209.85 430.31 209.71 413.51 209.97 396.72 Z" data-index="61"></path>
</g>
<g id="#fcd0cfff">

</g>
<g id="#fac8c8ff">
<path fill="#fac8c8" opacity="1.00" d=" M 398.78 443.66 C 409.16 443.82 419.49 444.79 429.84 445.35 C 435.10 446.07 440.50 445.75 445.62 447.31 L 446.34 447.49 C 436.21 447.66 426.18 445.81 416.06 445.65 C 410.29 445.22 404.25 445.87 398.78 443.66 Z" data-index="63" style="visibility: hidden;"></path>
</g>
<g id="#121212ff">
<path fill="#121212" opacity="1.00" d=" M 157.72 451.49 C 162.61 450.75 167.66 448.95 172.53 450.77 C 162.23 452.57 151.85 454.04 141.50 455.53 C 141.60 455.21 141.79 454.57 141.88 454.25 C 147.04 452.71 152.44 452.41 157.72 451.49 Z" data-index="64"></path>
</g>
<g id="#5b5b5bff">

</g>
<g id="#5e5e5eff">
<path fill="#5e5e5e" opacity="1.00" d=" M 441.64 458.39 C 442.31 458.21 443.65 457.86 444.32 457.69 C 448.34 458.00 452.34 458.49 456.35 458.91 C 451.46 459.91 446.46 459.53 441.64 458.39 Z" data-index="66"></path>
<path fill="#5e5e5e" opacity="1.00" d=" M 434.60 476.90 C 438.83 476.04 443.16 475.86 447.43 476.49 C 445.58 476.81 443.73 477.12 441.87 477.32 C 439.45 477.13 437.02 476.99 434.60 476.90 Z" data-index="67"></path>
</g>
<g id="#5f5f5fff">
<path fill="#5f5f5f" opacity="1.00" d=" M 115.68 471.26 C 118.66 470.65 121.63 470.02 124.63 469.51 C 125.03 469.84 125.84 470.52 126.24 470.86 C 122.75 471.46 119.20 471.55 115.68 471.26 Z" data-index="68"></path>
</g>
<g id="#585858ff">
<path fill="#585858" opacity="1.00" d=" M 369.81 473.67 C 376.53 472.71 383.34 472.85 390.11 473.23 C 389.51 473.53 388.33 474.13 387.74 474.43 C 381.79 473.58 375.76 474.47 369.81 473.67 Z" data-index="69"></path>
</g>
<g id="#595959ff">
<path fill="#595959" opacity="1.00" d=" M 399.62 474.99 C 403.70 473.84 408.00 473.66 411.92 475.49 C 407.83 475.10 403.72 475.19 399.62 474.99 Z" data-index="70"></path>
</g>
<g id="#606060ff">
<path fill="#606060" opacity="1.00" d=" M 419.64 475.98 C 423.43 475.28 427.28 474.93 431.14 475.00 C 430.55 475.39 429.38 476.18 428.79 476.57 C 425.75 476.24 422.70 476.06 419.64 475.98 Z" data-index="71"></path>
</g>
<g id="#616161ff">
<path fill="#616161" opacity="1.00" d=" M 180.72 478.49 C 188.97 478.32 197.26 476.14 205.48 477.80 C 198.40 478.17 191.36 479.13 184.28 479.53 C 183.09 479.20 181.90 478.85 180.72 478.49 Z" data-index="72"></path>
</g>
<g id="#646464ff">
<path fill="#646464" opacity="1.00" d=" M 471.53 479.77 C 478.90 478.19 486.36 479.73 493.75 480.26 C 496.91 480.52 499.95 481.50 502.94 482.53 C 492.47 481.58 482.01 480.50 471.53 479.77 Z" data-index="73"></path>
</g>
<g id="#787878ff">

</g>
</svg>