<svg width="388pt" height="381pt" viewBox="0 0 388 381" version="1.1" xmlns="http://www.w3.org/2000/svg">
<g id="#ffffffff">

<path fill="#ffffff" opacity="1.00" d=" M 64.23 65.78 C 65.78 66.12 67.37 66.24 68.96 66.24 C 100.38 66.18 131.81 66.23 163.24 66.21 C 164.52 66.00 165.32 66.35 165.64 67.26 C 166.06 98.85 165.68 130.46 165.83 162.06 C 165.60 164.38 166.86 168.89 163.24 168.91 C 131.82 168.75 100.39 168.93 68.96 168.83 C 67.39 168.83 65.82 168.97 64.28 169.27 C 64.00 168.58 63.43 167.20 63.14 166.51 C 63.59 133.78 63.05 101.04 63.41 68.32 C 63.62 67.68 64.03 66.41 64.23 65.78 Z" data-index="1"></path>
<path fill="#ffffff" opacity="1.00" d=" M 219.45 65.89 C 223.27 66.48 227.15 66.17 231.00 66.22 C 259.01 66.23 287.02 66.19 315.03 66.24 C 316.60 66.24 318.17 66.13 319.71 65.80 C 319.96 66.36 320.48 67.48 320.73 68.04 C 320.78 100.67 320.82 133.31 320.71 165.94 C 320.60 166.93 320.42 167.90 320.19 168.87 C 287.02 168.97 253.84 168.62 220.68 169.04 L 219.62 169.11 C 219.16 167.12 218.89 165.08 218.91 163.04 C 218.96 135.36 218.89 107.68 218.94 80.00 C 218.99 75.29 218.66 70.55 219.45 65.89 Z" data-index="2" style="opacity: 1;"></path>
<path fill="#ffffff" opacity="1.00" d=" M 64.25 219.99 C 68.48 220.48 72.75 220.16 77.00 220.22 C 106.06 220.20 135.12 220.29 164.17 220.17 C 167.00 220.60 165.31 224.63 165.87 226.68 C 165.73 255.78 165.87 284.89 165.80 314.00 C 165.79 316.46 165.79 318.93 166.00 321.39 C 162.37 322.06 158.67 321.81 155.00 321.84 C 127.00 321.84 99.00 321.83 71.00 321.85 C 68.27 321.75 65.29 322.37 62.87 320.75 C 63.45 317.87 63.33 314.91 63.32 311.99 C 63.27 281.89 63.37 251.80 63.28 221.70 C 63.52 221.27 64.01 220.42 64.25 219.99 Z" data-index="3"></path>
</g>
<g id="#231d22ff">
<path fill="#231d22" opacity="1.00" d=" M 45.08 65.55 C 45.66 56.05 54.61 48.44 63.97 48.18 C 97.66 48.17 131.35 48.18 165.03 48.20 C 174.46 48.33 182.96 56.18 183.95 65.51 C 183.46 68.64 182.98 71.80 183.01 74.98 C 183.20 98.65 182.92 122.32 183.07 145.99 C 183.22 154.16 182.46 162.38 183.84 170.49 C 182.40 179.49 174.20 186.78 165.03 186.82 C 131.33 186.87 97.63 186.82 63.93 186.86 C 54.82 186.84 46.21 179.63 45.16 170.47 C 45.51 168.00 45.94 165.53 46.01 163.03 C 46.07 133.34 45.90 103.65 46.00 73.96 C 45.96 71.13 45.49 68.34 45.08 65.55 M 63.29 65.56 L 64.23 65.78 C 64.03 66.41 63.62 67.68 63.41 68.32 L 62.28 68.04 C 61.86 95.36 62.18 122.68 62.07 150.00 C 62.25 155.85 61.60 161.76 62.71 167.55 L 63.14 166.51 C 63.43 167.20 64.00 168.58 64.28 169.27 L 63.33 169.46 C 68.50 170.45 73.77 169.92 79.00 169.96 C 102.67 169.67 126.34 170.13 150.01 169.99 C 154.42 169.84 159.04 170.63 163.24 168.91 C 166.86 168.89 165.60 164.38 165.83 162.06 L 166.94 162.01 C 166.97 130.36 166.98 98.70 166.89 67.04 L 165.64 67.26 C 165.32 66.35 164.52 66.00 163.24 66.21 C 160.13 64.38 156.42 65.10 153.00 65.02 C 125.00 65.09 97.00 65.07 69.00 65.00 C 67.08 65.02 65.18 65.23 63.29 65.56 Z" data-index="4"></path>
<path fill="#231d22" opacity="1.00" d=" M 218.35 48.31 C 251.89 47.99 285.47 48.30 319.03 48.17 C 329.65 47.95 339.27 57.31 339.10 67.96 C 339.08 101.32 339.15 134.68 339.07 168.04 C 338.79 178.05 330.01 186.78 319.97 186.86 C 285.99 186.79 252.01 186.90 218.04 186.80 C 211.93 186.10 205.69 182.82 202.79 177.20 C 200.91 173.79 199.76 169.94 199.91 166.03 C 199.99 135.68 199.96 105.34 199.95 75.00 C 200.01 70.86 199.49 66.62 200.70 62.60 C 202.91 54.81 210.22 48.76 218.35 48.31 M 218.47 65.72 L 219.45 65.89 C 218.66 70.55 218.99 75.29 218.94 80.00 C 218.89 107.68 218.96 135.36 218.91 163.04 C 218.89 165.08 219.16 167.12 219.62 169.11 L 220.68 169.04 C 224.22 170.72 228.23 169.90 232.00 170.02 C 261.32 169.85 290.63 170.04 319.94 169.87 L 320.19 168.87 C 320.42 167.90 320.60 166.93 320.71 165.94 L 321.97 166.02 C 321.98 144.68 321.73 123.34 322.01 102.00 C 322.03 92.16 321.55 82.32 322.25 72.50 C 322.54 70.81 321.70 69.33 320.73 68.04 C 320.48 67.48 319.96 66.36 319.71 65.80 L 320.67 65.55 C 315.83 64.61 310.89 65.07 306.00 65.05 C 278.99 65.00 251.99 65.07 224.98 65.01 C 222.79 65.02 220.61 65.27 218.47 65.72 Z" data-index="5" style="opacity: 1;"></path>
</g>
<g id="#0a0a0aff">
<path fill="#0a0a0a" opacity="1.00" d=" M 63.29 65.56 C 65.18 65.23 67.08 65.02 69.00 65.00 C 97.00 65.07 125.00 65.09 153.00 65.02 C 156.42 65.10 160.13 64.38 163.24 66.21 C 131.81 66.23 100.38 66.18 68.96 66.24 C 67.37 66.24 65.78 66.12 64.23 65.78 L 63.29 65.56 Z" data-index="6"></path>
<path fill="#0a0a0a" opacity="1.00" d=" M 218.47 65.72 C 220.61 65.27 222.79 65.02 224.98 65.01 C 251.99 65.07 278.99 65.00 306.00 65.05 C 310.89 65.07 315.83 64.61 320.67 65.55 L 319.71 65.80 C 318.17 66.13 316.60 66.24 315.03 66.24 C 287.02 66.19 259.01 66.23 231.00 66.22 C 227.15 66.17 223.27 66.48 219.45 65.89 L 218.47 65.72 Z" data-index="7"></path>
</g>
<g id="#121011ff">
<path fill="#121011" opacity="1.00" d=" M 45.08 65.55 C 45.49 68.34 45.96 71.13 46.00 73.96 C 45.90 103.65 46.07 133.34 46.01 163.03 C 45.94 165.53 45.51 168.00 45.16 170.47 C 44.89 168.65 44.76 166.81 44.77 164.97 C 44.80 135.98 44.77 106.99 44.78 78.00 C 44.82 73.85 44.61 69.69 45.08 65.55 Z" data-index="8"></path>
</g>
<g id="#0a080bff">
<path fill="#0a080b" opacity="1.00" d=" M 183.01 74.98 C 182.98 71.80 183.46 68.64 183.95 65.51 C 184.40 68.98 184.23 72.50 184.26 75.99 C 184.25 106.00 184.26 136.00 184.24 166.01 C 184.21 167.51 184.08 169.00 183.84 170.49 C 182.46 162.38 183.22 154.16 183.07 145.99 C 182.92 122.32 183.20 98.65 183.01 74.98 Z" data-index="9"></path>
</g>
<g id="#0f0a0eff">
<path fill="#0f0a0e" opacity="1.00" d=" M 165.64 67.26 L 166.89 67.04 C 166.98 98.70 166.97 130.36 166.94 162.01 L 165.83 162.06 C 165.68 130.46 166.06 98.85 165.64 67.26 Z" data-index="10"></path>
<path fill="#0f0a0e" opacity="1.00" d=" M 62.59 219.45 C 66.04 218.97 69.53 218.98 73.01 219.06 C 99.34 219.19 125.68 219.08 152.01 219.06 C 156.06 219.21 160.41 218.25 164.17 220.17 C 135.12 220.29 106.06 220.20 77.00 220.22 C 72.75 220.16 68.48 220.48 64.25 219.99 C 63.84 219.86 63.01 219.58 62.59 219.45 Z" data-index="11"></path>
<path fill="#0f0a0e" opacity="1.00" d=" M 165.87 226.68 C 166.48 228.03 167.04 229.44 166.97 230.97 C 167.06 257.64 166.82 284.32 166.99 311.00 C 166.97 314.87 167.45 318.87 166.12 322.60 L 166.00 321.39 C 165.79 318.93 165.79 316.46 165.80 314.00 C 165.87 284.89 165.73 255.78 165.87 226.68 Z" data-index="12"></path>
</g>
<g id="#0e080cff">
<path fill="#0e080c" opacity="1.00" d=" M 62.28 68.04 L 63.41 68.32 C 63.05 101.04 63.59 133.78 63.14 166.51 L 62.71 167.55 C 61.60 161.76 62.25 155.85 62.07 150.00 C 62.18 122.68 61.86 95.36 62.28 68.04 Z" data-index="13"></path>
<path fill="#0e080c" opacity="1.00" d=" M 62.82 220.60 L 63.28 221.70 C 63.37 251.80 63.27 281.89 63.32 311.99 C 63.33 314.91 63.45 317.87 62.87 320.75 L 62.69 321.65 C 62.20 319.13 61.98 316.57 61.99 314.01 C 62.16 288.34 62.08 262.67 62.09 237.00 C 62.21 231.53 61.56 225.98 62.82 220.60 Z" data-index="14"></path>
</g>
<g id="#100a0eff">
<path fill="#100a0e" opacity="1.00" d=" M 320.73 68.04 C 321.70 69.33 322.54 70.81 322.25 72.50 C 321.55 82.32 322.03 92.16 322.01 102.00 C 321.73 123.34 321.98 144.68 321.97 166.02 L 320.71 165.94 C 320.82 133.31 320.78 100.67 320.73 68.04 Z" data-index="15"></path>
</g>
<g id="#0c090cff">
<path fill="#0c090c" opacity="1.00" d=" M 64.28 169.27 C 65.82 168.97 67.39 168.83 68.96 168.83 C 100.39 168.93 131.82 168.75 163.24 168.91 C 159.04 170.63 154.42 169.84 150.01 169.99 C 126.34 170.13 102.67 169.67 79.00 169.96 C 73.77 169.92 68.50 170.45 63.33 169.46 L 64.28 169.27 Z" data-index="16"></path>
</g>
<g id="#0d090cff">
<path fill="#0d090c" opacity="1.00" d=" M 220.68 169.04 C 253.84 168.62 287.02 168.97 320.19 168.87 L 319.94 169.87 C 290.63 170.04 261.32 169.85 232.00 170.02 C 228.23 169.90 224.22 170.72 220.68 169.04 Z" data-index="17"></path>
</g>
<g id="#231d21ff">
<path fill="#231d21" opacity="1.00" d=" M 45.12 219.57 C 46.00 210.20 54.56 202.38 63.98 202.36 C 97.65 202.26 131.33 202.31 165.01 202.32 C 174.39 202.19 183.15 210.16 183.90 219.51 C 183.49 222.33 183.04 225.15 183.03 228.01 C 183.22 249.67 183.01 271.34 183.09 293.00 C 183.20 303.43 182.48 313.91 183.80 324.29 C 182.47 330.98 177.40 336.63 171.03 338.95 C 166.91 340.70 162.35 340.03 158.00 340.13 C 126.99 340.16 95.98 340.10 64.96 340.18 C 60.37 340.35 55.79 338.71 52.28 335.76 C 47.82 332.60 45.88 327.26 44.78 322.14 C 45.27 322.33 46.25 322.70 46.74 322.89 C 46.14 318.29 45.76 313.65 45.87 309.00 C 46.12 297.67 45.86 286.33 46.00 275.00 C 46.18 260.34 45.47 245.67 46.08 231.02 C 46.29 227.17 45.82 223.34 45.12 219.57 M 62.59 219.45 C 63.01 219.58 63.84 219.86 64.25 219.99 C 64.01 220.42 63.52 221.27 63.28 221.70 L 62.82 220.60 C 61.56 225.98 62.21 231.53 62.09 237.00 C 62.08 262.67 62.16 288.34 61.99 314.01 C 61.98 316.57 62.20 319.13 62.69 321.65 L 62.87 320.75 C 65.29 322.37 68.27 321.75 71.00 321.85 C 99.00 321.83 127.00 321.84 155.00 321.84 C 158.67 321.81 162.37 322.06 166.00 321.39 L 166.12 322.60 C 167.45 318.87 166.97 314.87 166.99 311.00 C 166.82 284.32 167.06 257.64 166.97 230.97 C 167.04 229.44 166.48 228.03 165.87 226.68 C 165.31 224.63 167.00 220.60 164.17 220.17 C 160.41 218.25 156.06 219.21 152.01 219.06 C 125.68 219.08 99.34 219.19 73.01 219.06 C 69.53 218.98 66.04 218.97 62.59 219.45 Z" data-index="18"></path>
</g>
<g id="#941e2aff">
<path fill="#941e2a" opacity="1.00" d=" M 201.08 216.00 C 203.57 207.56 212.32 201.98 220.95 202.30 C 251.97 202.25 282.98 202.32 314.00 202.26 C 317.87 202.27 321.89 202.02 325.59 203.42 C 332.53 206.11 337.67 212.48 338.98 219.81 C 339.06 249.54 338.98 279.27 339.04 309.00 C 339.00 314.46 339.31 319.98 338.21 325.36 C 335.96 332.77 329.57 338.11 322.21 340.04 C 289.13 340.02 256.05 339.98 222.97 340.05 C 220.75 340.03 218.52 339.90 216.32 339.60 C 208.34 338.33 201.78 331.55 200.37 323.65 C 199.74 318.80 200.00 313.89 199.96 309.01 C 199.96 281.66 199.98 254.32 199.95 226.98 C 199.96 223.30 200.17 219.59 201.08 216.00 M 216.42 204.67 C 207.40 206.12 201.58 215.32 201.26 223.95 C 201.38 254.98 201.31 286.02 201.32 317.05 C 201.47 321.82 202.17 326.93 205.27 330.76 C 209.53 335.93 216.29 338.80 222.96 338.67 C 254.32 338.65 285.68 338.61 317.04 338.68 C 323.23 338.77 329.24 335.92 332.95 330.93 C 337.69 326.25 337.92 319.23 337.70 313.00 C 337.60 283.65 337.67 254.30 337.67 224.96 C 337.69 218.54 335.35 211.86 329.84 208.16 C 325.51 204.36 319.49 203.92 314.00 203.88 C 292.33 203.89 270.67 203.97 249.00 203.94 C 238.15 204.13 227.21 203.34 216.42 204.67 Z" data-index="19"></path>
</g>
<g id="#d40f19ff">
<path fill="#d40f19" opacity="1.00" d=" M 216.42 204.67 C 227.21 203.34 238.15 204.13 249.00 203.94 C 270.67 203.97 292.33 203.89 314.00 203.88 C 319.49 203.92 325.51 204.36 329.84 208.16 C 335.35 211.86 337.69 218.54 337.67 224.96 C 337.67 254.30 337.60 283.65 337.70 313.00 C 337.92 319.23 337.69 326.25 332.95 330.93 C 329.24 335.92 323.23 338.77 317.04 338.68 C 285.68 338.61 254.32 338.65 222.96 338.67 C 216.29 338.80 209.53 335.93 205.27 330.76 C 202.17 326.93 201.47 321.82 201.32 317.05 C 201.31 286.02 201.38 254.98 201.26 223.95 C 201.58 215.32 207.40 206.12 216.42 204.67 Z" data-index="20" style="opacity: 1;"></path>
</g>
<g id="#ffd2d2ff">

</g>
<g id="#121010ff">
<path fill="#121010" opacity="1.00" d=" M 45.12 219.57 C 45.82 223.34 46.29 227.17 46.08 231.02 C 45.47 245.67 46.18 260.34 46.00 275.00 C 45.86 286.33 46.12 297.67 45.87 309.00 C 45.76 313.65 46.14 318.29 46.74 322.89 C 46.25 322.70 45.27 322.33 44.78 322.14 C 44.79 291.42 44.77 260.71 44.79 230.00 C 44.81 226.52 44.62 223.02 45.12 219.57 Z" data-index="22"></path>
</g>
<g id="#09070aff">
<path fill="#09070a" opacity="1.00" d=" M 183.03 228.01 C 183.04 225.15 183.49 222.33 183.90 219.51 C 184.16 221.00 184.30 222.51 184.30 224.03 C 184.23 253.69 184.27 283.34 184.26 313.00 C 184.21 316.76 184.57 320.57 183.80 324.29 C 182.48 313.91 183.20 303.43 183.09 293.00 C 183.01 271.34 183.22 249.67 183.03 228.01 Z" data-index="23"></path>
</g>
<g id="#fecccdff">
<path fill="#fecccd" opacity="1.00" d=" M 338.98 219.81 C 340.32 223.39 339.95 227.26 339.96 231.00 C 340.18 257.00 339.59 283.00 340.05 309.00 C 339.68 314.42 341.29 320.50 338.21 325.36 C 339.31 319.98 339.00 314.46 339.04 309.00 C 338.98 279.27 339.06 249.54 338.98 219.81 Z" data-index="24"></path>
</g>
<g id="#ffc4caff">
<path fill="#ffc4ca" opacity="1.00" d=" M 216.32 339.60 C 218.52 339.90 220.75 340.03 222.97 340.05 C 256.05 339.98 289.13 340.02 322.21 340.04 C 320.21 340.70 318.13 341.06 316.03 341.01 C 290.01 340.77 264.00 341.12 237.99 340.95 C 230.71 340.80 223.41 341.59 216.15 340.69 L 216.32 339.60 Z" data-index="25"></path>
</g>
</svg>