<svg width="1024pt" height="1024pt" viewBox="0 0 1024 1024" version="1.1" xmlns="http://www.w3.org/2000/svg">
<g id="#ffffffff">

<path fill="#ffffff" opacity="1.00" d=" M 765.50 0.00 L 1024.00 0.00 L 1024.00 1024.00 L 942.74 1024.00 C 943.07 1023.55 943.71 1022.65 944.04 1022.19 C 947.92 1022.51 951.33 1020.36 954.83 1019.04 C 963.78 1015.26 971.53 1008.89 977.05 1000.89 C 982.06 994.33 985.42 986.48 986.48 978.29 C 987.41 975.28 987.77 972.15 987.67 969.02 C 987.60 822.68 987.72 676.34 987.61 530.00 C 987.59 526.52 987.58 522.96 986.18 519.72 L 986.30 518.86 C 986.81 517.26 986.21 514.90 984.26 514.78 C 983.05 507.88 978.75 501.95 974.37 496.66 C 966.48 486.61 954.63 479.88 942.05 477.91 C 936.06 477.18 930.01 477.50 924.00 477.42 C 912.13 477.50 900.26 477.28 888.40 477.52 C 887.82 452.36 888.33 427.17 888.15 402.00 C 888.15 352.65 888.14 303.30 888.15 253.95 C 888.66 247.23 883.32 242.33 878.85 238.15 C 852.12 211.20 825.03 184.59 798.46 157.51 C 797.84 148.71 798.39 139.83 798.20 131.00 C 798.19 101.66 798.18 72.33 798.18 42.99 C 798.47 36.79 795.85 31.02 793.69 25.35 C 788.18 14.14 777.80 5.63 766.02 1.65 C 765.89 1.24 765.63 0.41 765.50 0.00 Z" data-index="1" style="visibility: hidden;"></path>
<path fill="#ffffff" opacity="1.00" d=" M 154.11 39.93 C 156.69 34.68 161.61 29.50 167.96 30.16 C 362.98 30.24 558.00 30.08 753.02 30.25 C 755.12 30.78 758.97 29.32 759.73 31.99 C 746.55 30.04 733.19 30.62 719.92 31.03 C 723.10 44.81 721.58 58.99 721.88 72.99 C 722.00 75.26 721.63 77.51 720.60 79.54 C 716.22 75.88 712.66 71.19 707.64 68.35 C 703.56 66.99 699.22 67.43 695.00 67.37 C 562.67 67.35 430.34 67.37 298.00 67.36 C 289.99 67.48 281.96 67.12 273.98 67.91 C 262.85 69.34 253.15 75.73 244.44 82.31 C 237.39 81.41 230.26 81.77 223.20 82.30 C 212.59 83.19 202.54 88.57 195.73 96.73 C 190.73 102.70 185.89 109.81 186.20 117.95 C 186.15 155.96 186.33 193.98 186.04 232.00 C 186.24 262.33 186.25 292.67 186.13 323.00 C 186.03 340.57 186.39 358.14 185.93 375.71 C 175.29 375.79 164.64 375.44 154.00 375.90 C 153.90 277.60 154.01 179.30 153.96 81.00 C 154.05 67.31 153.82 53.62 154.11 39.93 Z" data-index="2"></path>
<path fill="#ffffff" opacity="1.00" d=" M 264.73 104.71 C 269.62 101.29 274.62 97.11 281.02 97.58 C 416.11 97.49 551.21 97.56 686.30 97.55 C 686.39 136.70 686.26 175.86 686.39 215.02 C 686.06 221.81 688.71 228.19 690.69 234.56 C 695.74 245.63 704.25 255.08 714.74 261.24 C 720.15 263.39 725.22 266.44 730.93 267.79 C 735.58 268.55 740.31 268.41 745.01 268.47 C 782.55 268.49 820.09 268.52 857.63 268.48 C 857.69 268.80 857.80 269.42 857.86 269.73 C 842.62 269.44 827.36 269.32 812.13 269.78 C 811.69 318.85 812.23 367.92 811.91 417.00 C 811.90 436.24 812.17 455.49 811.81 474.73 C 810.44 475.30 809.08 475.89 807.71 476.43 C 671.40 476.72 535.06 476.39 398.74 476.59 C 393.72 467.70 389.37 458.45 384.47 449.49 C 384.38 448.51 384.33 447.53 384.32 446.55 C 513.88 446.92 643.44 446.57 773.00 446.69 C 775.86 446.58 778.90 446.77 781.59 445.63 C 784.04 443.68 786.20 441.34 788.01 438.78 C 789.10 434.38 789.06 429.63 787.83 425.27 C 786.13 422.68 783.74 420.56 781.40 418.55 C 777.71 417.45 773.81 417.54 770.01 417.55 C 636.20 417.49 502.38 417.54 368.57 417.52 C 365.74 415.67 365.28 412.12 363.69 409.37 C 359.91 402.66 356.48 395.51 350.89 390.09 C 345.25 385.81 339.45 381.14 332.40 379.52 C 327.57 377.41 322.14 377.91 317.00 377.70 C 297.24 377.72 277.49 377.57 257.73 377.80 C 257.49 295.87 257.72 213.94 257.65 132.00 C 257.76 126.98 257.43 121.93 258.09 116.94 C 258.97 112.26 262.16 108.56 264.73 104.71 M 336.79 318.89 C 333.50 321.05 330.50 323.87 328.65 327.38 C 327.90 330.46 328.02 333.70 328.27 336.83 C 329.55 341.51 333.37 344.94 337.35 347.44 C 341.52 348.18 345.78 347.74 349.99 347.85 C 491.69 347.85 633.38 347.85 775.07 347.83 C 782.62 348.09 788.84 341.29 789.59 334.09 C 790.37 325.73 782.58 317.21 774.02 318.13 C 743.01 318.08 712.00 318.27 681.01 317.90 C 674.68 318.32 668.32 318.16 661.99 317.84 C 649.66 317.86 637.33 317.85 625.00 317.85 C 615.34 318.30 605.66 318.22 596.00 317.83 C 582.01 318.31 567.99 318.23 554.00 317.87 C 545.00 318.56 536.00 317.69 527.00 317.85 C 508.68 318.37 490.33 317.41 472.01 318.02 C 447.67 318.52 423.33 317.59 398.99 318.14 C 391.99 318.25 385.00 318.04 378.00 317.88 C 367.34 318.65 356.67 317.49 346.01 318.12 C 342.96 318.33 339.67 317.79 336.79 318.89 Z" data-index="3" style="opacity: 1;"></path>
</g>
<g id="#8b8b8bff">
<path fill="#8b8b8b" opacity="1.00" d=" M 158.17 0.00 L 159.92 0.00 C 159.93 0.47 159.95 1.41 159.96 1.88 C 159.48 1.85 158.53 1.79 158.06 1.76 C 158.09 1.32 158.15 0.44 158.17 0.00 Z" data-index="4"></path>
</g>
<g id="#3e3e3eff">
<path fill="#3e3e3e" opacity="1.00" d=" M 159.92 0.00 L 164.89 0.00 C 163.55 1.30 161.78 1.83 159.96 1.88 C 159.95 1.41 159.93 0.47 159.92 0.00 Z" data-index="5"></path>
</g>
<g id="#000000ff">
<path fill="#000000" opacity="1.00" d=" M 164.89 0.00 L 757.27 0.00 C 759.12 0.81 761.01 1.58 763.01 1.97 C 763.76 1.89 765.27 1.73 766.02 1.65 C 777.80 5.63 788.18 14.14 793.69 25.35 C 795.85 31.02 798.47 36.79 798.18 42.99 C 798.18 72.33 798.19 101.66 798.20 131.00 C 798.39 139.83 797.84 148.71 798.46 157.51 C 825.03 184.59 852.12 211.20 878.85 238.15 C 883.32 242.33 888.66 247.23 888.15 253.95 C 888.14 303.30 888.15 352.65 888.15 402.00 C 888.33 427.17 887.82 452.36 888.40 477.52 C 900.26 477.28 912.13 477.50 924.00 477.42 C 930.01 477.50 936.06 477.18 942.05 477.91 C 954.63 479.88 966.48 486.61 974.37 496.66 C 978.75 501.95 983.05 507.88 984.26 514.78 C 983.73 516.38 984.16 518.91 986.30 518.86 L 986.18 519.72 C 985.29 527.10 985.67 534.56 985.00 541.97 C 985.07 588.63 985.05 635.31 985.00 681.97 C 984.62 688.30 985.51 694.60 985.52 700.92 C 984.33 716.92 985.41 732.97 985.03 749.00 C 985.15 800.67 985.03 852.35 985.04 904.03 C 984.96 915.70 985.06 927.39 985.56 939.06 C 985.24 952.12 984.10 965.34 986.48 978.29 C 985.42 986.48 982.06 994.33 977.05 1000.89 C 971.53 1008.89 963.78 1015.26 954.83 1019.04 C 951.33 1020.36 947.92 1022.51 944.04 1022.19 C 942.64 1021.87 941.27 1021.94 939.94 1022.42 C 938.57 1020.87 934.63 1022.06 937.10 1024.00 L 863.21 1024.00 C 859.18 1021.73 855.47 1018.67 853.76 1014.24 C 853.56 1012.70 853.40 1011.17 853.30 1009.66 C 853.21 1005.15 853.87 999.71 858.18 997.23 C 866.16 991.99 876.06 994.37 885.00 993.84 C 896.00 994.42 906.99 993.44 918.00 993.75 C 924.12 993.73 930.28 994.11 936.37 993.32 C 942.66 992.85 948.26 989.19 952.14 984.36 C 955.08 980.86 957.57 976.74 957.89 972.08 C 958.53 964.07 958.11 956.02 958.25 948.00 C 958.30 811.33 958.16 674.67 958.29 538.00 C 958.23 533.46 958.91 528.55 956.41 524.50 C 954.42 520.95 952.52 517.30 949.88 514.21 C 946.92 510.73 942.58 508.89 938.33 507.58 C 934.38 506.08 930.11 506.44 925.99 506.50 C 746.98 506.40 567.97 506.56 388.96 506.44 C 380.39 506.65 375.58 498.35 372.51 491.53 C 369.30 483.19 363.76 476.05 360.18 467.90 C 358.44 463.81 356.01 460.09 353.94 456.17 C 348.99 445.05 342.67 434.62 337.21 423.74 C 334.58 418.92 332.68 413.15 327.71 410.19 C 325.18 408.40 322.12 407.47 319.02 407.57 C 307.32 407.58 295.61 407.51 283.91 407.60 C 216.60 407.56 149.29 407.55 81.98 407.62 C 78.32 407.43 74.91 408.88 71.86 410.76 C 67.09 413.07 65.53 418.49 64.67 423.30 C 63.88 428.55 65.53 433.74 65.60 438.98 C 65.77 444.01 64.54 448.94 64.50 453.96 C 64.45 467.31 64.65 480.67 64.46 494.02 C 64.56 497.59 62.41 500.66 59.62 502.68 C 56.37 505.54 51.87 505.76 47.99 507.31 C 43.10 505.59 38.43 501.97 37.35 496.64 C 38.72 491.04 38.26 485.26 38.56 479.56 C 39.46 464.39 38.54 449.19 38.75 434.01 C 38.64 428.43 39.52 422.51 36.86 417.35 C 36.97 416.85 37.19 415.84 37.30 415.34 C 40.06 394.75 59.28 377.94 80.02 377.74 C 94.57 377.64 109.12 377.79 123.67 377.70 C 123.80 266.80 123.61 155.91 123.77 45.01 C 122.92 29.14 132.81 14.17 146.07 6.10 C 149.81 4.11 153.64 1.63 158.06 1.76 C 158.53 1.79 159.48 1.85 159.96 1.88 C 161.78 1.83 163.55 1.30 164.89 0.00 M 154.11 39.93 C 153.17 41.11 152.05 42.35 152.19 43.99 C 151.98 56.67 152.47 69.34 152.28 82.02 C 152.15 86.00 153.37 89.92 152.97 93.91 C 151.62 102.88 152.70 111.97 152.16 120.99 C 151.76 125.62 153.63 130.16 152.85 134.78 C 151.65 141.79 152.75 148.90 152.22 155.95 C 152.31 178.31 151.97 200.66 152.32 223.01 C 153.11 230.35 151.61 237.66 152.31 245.00 C 152.02 265.66 152.57 286.33 152.26 306.99 C 152.13 310.41 152.54 313.81 152.70 317.23 C 152.12 329.47 152.06 341.75 152.27 354.02 C 152.66 362.10 151.64 370.20 152.56 378.26 C 152.89 378.08 153.53 377.71 153.86 377.53 C 155.90 377.70 157.95 377.79 160.01 377.78 C 182.57 377.70 205.13 377.75 227.69 377.62 C 227.69 292.75 227.68 207.88 227.69 123.00 C 227.81 119.10 227.58 115.12 228.51 111.30 C 229.63 108.90 230.01 106.26 230.75 103.73 C 233.85 95.78 238.97 88.78 244.44 82.31 C 253.15 75.73 262.85 69.34 273.98 67.91 C 281.96 67.12 289.99 67.48 298.00 67.36 C 430.34 67.37 562.67 67.35 695.00 67.37 C 699.22 67.43 703.56 66.99 707.64 68.35 C 712.66 71.19 716.22 75.88 720.60 79.54 L 720.45 79.95 C 735.97 94.62 750.69 110.12 765.91 125.11 C 766.43 125.48 767.46 126.22 767.98 126.60 C 768.20 103.07 768.00 79.53 768.07 56.00 C 767.99 50.45 768.33 44.85 767.51 39.34 C 765.53 36.47 763.23 32.89 759.73 31.99 C 758.97 29.32 755.12 30.78 753.02 30.25 C 558.00 30.08 362.98 30.24 167.96 30.16 C 161.61 29.50 156.69 34.68 154.11 39.93 M 264.73 104.71 C 262.16 108.56 258.97 112.26 258.09 116.94 C 257.43 121.93 257.76 126.98 257.65 132.00 C 257.72 213.94 257.49 295.87 257.73 377.80 C 277.49 377.57 297.24 377.72 317.00 377.70 C 322.14 377.91 327.57 377.41 332.40 379.52 C 339.45 381.14 345.25 385.81 350.89 390.09 C 356.48 395.51 359.91 402.66 363.69 409.37 C 365.28 412.12 365.74 415.67 368.57 417.52 C 502.38 417.54 636.20 417.49 770.01 417.55 C 773.81 417.54 777.71 417.45 781.40 418.55 C 783.74 420.56 786.13 422.68 787.83 425.27 C 789.06 429.63 789.10 434.38 788.01 438.78 C 786.20 441.34 784.04 443.68 781.59 445.63 C 778.90 446.77 775.86 446.58 773.00 446.69 C 643.44 446.57 513.88 446.92 384.32 446.55 C 384.33 447.53 384.38 448.51 384.47 449.49 C 389.37 458.45 393.72 467.70 398.74 476.59 C 535.06 476.39 671.40 476.72 807.71 476.43 C 824.53 476.71 841.37 476.47 858.20 476.55 C 858.15 422.70 858.24 368.85 858.17 315.00 C 857.99 299.91 858.56 284.80 857.86 269.73 C 857.80 269.42 857.69 268.80 857.63 268.48 C 820.09 268.52 782.55 268.49 745.01 268.47 C 740.31 268.41 735.58 268.55 730.93 267.79 C 725.22 266.44 720.15 263.39 714.74 261.24 C 704.25 255.08 695.74 245.63 690.69 234.56 C 688.71 228.19 686.06 221.81 686.39 215.02 C 686.26 175.86 686.39 136.70 686.30 97.55 C 551.21 97.56 416.11 97.49 281.02 97.58 C 274.62 97.11 269.62 101.29 264.73 104.71 M 716.21 129.01 C 716.15 156.01 716.33 183.00 716.14 210.00 C 716.19 212.62 716.11 215.27 716.61 217.86 C 718.49 222.51 720.06 227.60 723.92 231.05 C 726.73 234.19 730.73 235.71 734.38 237.63 C 737.79 238.74 741.46 238.37 745.00 238.56 C 773.00 238.60 801.00 238.59 828.99 238.53 C 831.31 238.45 833.87 238.91 835.87 237.39 C 802.72 204.12 769.45 170.96 736.29 137.70 C 729.78 131.47 723.81 124.67 716.75 119.04 C 715.59 122.24 716.36 125.69 716.21 129.01 Z" data-index="6" style="opacity: 1;"></path>
<path fill="#000000" opacity="1.00" d=" M 336.79 318.89 C 339.67 317.79 342.96 318.33 346.01 318.12 C 356.67 317.49 367.34 318.65 378.00 317.88 C 385.00 318.04 391.99 318.25 398.99 318.14 C 423.33 317.59 447.67 318.52 472.01 318.02 C 490.33 317.41 508.68 318.37 527.00 317.85 C 536.00 317.69 545.00 318.56 554.00 317.87 C 567.99 318.23 582.01 318.31 596.00 317.83 C 605.66 318.22 615.34 318.30 625.00 317.85 C 637.33 317.85 649.66 317.86 661.99 317.84 C 668.32 318.16 674.68 318.32 681.01 317.90 C 712.00 318.27 743.01 318.08 774.02 318.13 C 782.58 317.21 790.37 325.73 789.59 334.09 C 788.84 341.29 782.62 348.09 775.07 347.83 C 633.38 347.85 491.69 347.85 349.99 347.85 C 345.78 347.74 341.52 348.18 337.35 347.44 C 333.37 344.94 329.55 341.51 328.27 336.83 C 328.02 333.70 327.90 330.46 328.65 327.38 C 330.50 323.87 333.50 321.05 336.79 318.89 Z" data-index="7" style="opacity: 1;"></path>
<path fill="#000000" opacity="1.00" d=" M 46.22 548.86 C 49.39 549.19 52.65 549.31 55.68 550.37 C 58.13 551.79 60.14 553.84 62.12 555.84 C 64.67 558.15 64.10 561.91 64.34 565.00 C 64.35 697.00 64.35 829.00 64.34 961.00 C 64.40 966.83 63.68 972.84 65.52 978.50 C 67.18 984.63 72.09 989.28 77.31 992.56 C 84.11 995.44 91.74 995.13 98.98 995.09 C 187.32 994.95 275.66 995.19 364.00 995.02 C 397.00 994.95 430.00 995.20 463.00 994.99 C 521.34 995.35 579.67 994.74 638.01 995.09 C 688.68 995.11 739.34 994.94 790.00 995.10 C 794.58 995.09 799.64 994.59 803.59 997.42 C 808.08 999.91 810.35 1004.70 812.36 1009.19 L 812.37 1010.18 C 812.80 1016.55 806.82 1020.11 802.81 1024.00 L 86.66 1024.00 C 87.00 1023.54 87.68 1022.61 88.01 1022.15 C 86.34 1022.14 84.67 1022.16 83.01 1022.14 C 82.24 1022.20 80.71 1022.30 79.94 1022.35 C 70.79 1021.29 62.58 1016.13 55.51 1010.48 C 46.63 1002.26 39.42 991.39 37.64 979.25 C 40.04 955.92 38.46 932.41 38.85 909.00 C 38.94 803.67 38.88 698.33 38.86 593.01 C 38.82 580.63 39.10 568.24 38.07 555.90 C 39.97 552.77 42.73 550.12 46.22 548.86 Z" data-index="8" style="opacity: 1;"></path>
</g>
<g id="#575757ff">
<path fill="#575757" opacity="1.00" d=" M 757.27 0.00 L 763.01 0.00 C 763.01 0.49 763.01 1.48 763.01 1.97 C 761.01 1.58 759.12 0.81 757.27 0.00 Z" data-index="9"></path>
</g>
<g id="#b8b8b8ff">
<path fill="#b8b8b8" opacity="1.00" d=" M 763.01 0.00 L 765.50 0.00 C 765.63 0.41 765.89 1.24 766.02 1.65 C 765.27 1.73 763.76 1.89 763.01 1.97 C 763.01 1.48 763.01 0.49 763.01 0.00 Z" data-index="10"></path>
</g>
<g id="#e9e8e6ff">
<path fill="#e9e8e6" opacity="1.00" d=" M 719.92 31.03 C 733.19 30.62 746.55 30.04 759.73 31.99 C 763.23 32.89 765.53 36.47 767.51 39.34 C 768.33 44.85 767.99 50.45 768.07 56.00 C 768.00 79.53 768.20 103.07 767.98 126.60 C 767.46 126.22 766.43 125.48 765.91 125.11 C 750.69 110.12 735.97 94.62 720.45 79.95 L 720.60 79.54 C 721.63 77.51 722.00 75.26 721.88 72.99 C 721.58 58.99 723.10 44.81 719.92 31.03 Z" data-index="11" style="opacity: 1;"></path>
</g>
<g id="#1c1c1cff">
<path fill="#1c1c1c" opacity="1.00" d=" M 152.19 43.99 C 152.05 42.35 153.17 41.11 154.11 39.93 C 153.82 53.62 154.05 67.31 153.96 81.00 C 154.01 179.30 153.90 277.60 154.00 375.90 C 153.97 376.31 153.89 377.12 153.86 377.53 C 153.53 377.71 152.89 378.08 152.56 378.26 C 151.64 370.20 152.66 362.10 152.27 354.02 C 152.06 341.75 152.12 329.47 152.70 317.23 C 152.54 313.81 152.13 310.41 152.26 306.99 C 152.57 286.33 152.02 265.66 152.31 245.00 C 151.61 237.66 153.11 230.35 152.32 223.01 C 151.97 200.66 152.31 178.31 152.22 155.95 C 152.75 148.90 151.65 141.79 152.85 134.78 C 153.63 130.16 151.76 125.62 152.16 120.99 C 152.70 111.97 151.62 102.88 152.97 93.91 C 153.37 89.92 152.15 86.00 152.28 82.02 C 152.47 69.34 151.98 56.67 152.19 43.99 Z" data-index="12"></path>
</g>
<g id="#e7e6e5ff">
<path fill="#e7e6e5" opacity="1.00" d=" M 223.20 82.30 C 230.26 81.77 237.39 81.41 244.44 82.31 C 238.97 88.78 233.85 95.78 230.75 103.73 C 230.01 106.26 229.63 108.90 228.51 111.30 C 227.58 115.12 227.81 119.10 227.69 123.00 C 227.68 207.88 227.69 292.75 227.69 377.62 C 205.13 377.75 182.57 377.70 160.01 377.78 C 157.95 377.79 155.90 377.70 153.86 377.53 C 153.89 377.12 153.97 376.31 154.00 375.90 C 164.64 375.44 175.29 375.79 185.93 375.71 C 186.39 358.14 186.03 340.57 186.13 323.00 C 186.25 292.67 186.24 262.33 186.04 232.00 C 186.33 193.98 186.15 155.96 186.20 117.95 C 185.89 109.81 190.73 102.70 195.73 96.73 C 202.54 88.57 212.59 83.19 223.20 82.30 Z" data-index="13"></path>
</g>
<g id="#e7e6e4ff">
<path fill="#e7e6e4" opacity="1.00" d=" M 716.21 129.01 C 716.36 125.69 715.59 122.24 716.75 119.04 C 723.81 124.67 729.78 131.47 736.29 137.70 C 769.45 170.96 802.72 204.12 835.87 237.39 C 833.87 238.91 831.31 238.45 828.99 238.53 C 801.00 238.59 773.00 238.60 745.00 238.56 C 741.46 238.37 737.79 238.74 734.38 237.63 C 730.73 235.71 726.73 234.19 723.92 231.05 C 720.06 227.60 718.49 222.51 716.61 217.86 C 716.11 215.27 716.19 212.62 716.14 210.00 C 716.33 183.00 716.15 156.01 716.21 129.01 Z" data-index="14"></path>
</g>
<g id="#e6e5e3ff">

</g>
<g id="#e2333dff">
<path fill="#e2333d" opacity="1.00" d=" M 71.86 410.76 C 74.91 408.88 78.32 407.43 81.98 407.62 C 149.29 407.55 216.60 407.56 283.91 407.60 C 286.78 415.99 291.67 423.46 295.63 431.34 C 298.69 437.55 302.43 443.39 305.25 449.72 C 309.24 458.53 314.67 466.60 318.54 475.47 C 321.11 481.10 323.92 486.62 327.18 491.89 C 334.78 492.16 342.39 491.88 350.00 492.06 C 357.50 492.10 365.06 492.72 372.51 491.53 C 375.58 498.35 380.39 506.65 388.96 506.44 C 567.97 506.56 746.98 506.40 925.99 506.50 C 930.11 506.44 934.38 506.08 938.33 507.58 C 928.89 507.61 919.45 507.62 910.01 507.62 C 905.54 507.64 901.02 507.22 896.63 508.22 C 899.60 508.72 902.61 509.00 905.62 509.28 C 907.77 517.05 910.25 524.86 910.68 532.96 C 910.78 678.32 910.87 823.68 910.74 969.05 C 911.18 977.71 905.96 985.02 903.01 992.79 C 914.13 993.21 925.26 992.55 936.37 993.32 C 930.28 994.11 924.12 993.73 918.00 993.75 C 906.99 993.44 896.00 994.42 885.00 993.84 C 876.06 994.37 866.16 991.99 858.18 997.23 C 853.87 999.71 853.21 1005.15 853.30 1009.66 C 851.76 1009.02 850.18 1008.29 848.47 1008.49 C 837.17 1009.47 825.83 1008.41 814.51 1008.72 C 814.27 1009.06 813.78 1009.73 813.53 1010.06 C 813.24 1010.09 812.66 1010.15 812.37 1010.18 L 812.36 1009.19 C 812.26 1006.51 812.48 1003.51 810.65 1001.34 C 808.53 998.24 805.13 996.46 802.49 993.89 C 802.19 993.54 801.58 992.85 801.28 992.51 C 794.89 991.60 788.42 992.44 782.00 992.15 C 557.00 992.11 332.00 992.11 107.00 992.13 C 99.82 992.46 92.59 991.23 85.46 992.53 C 79.33 992.00 74.06 988.12 71.12 982.82 C 69.08 979.50 66.42 976.15 66.42 972.07 C 66.46 835.71 66.46 699.34 66.39 562.97 C 67.11 555.03 59.98 547.57 52.06 547.76 C 51.78 534.62 51.67 521.47 52.14 508.33 C 58.06 507.32 63.88 503.84 66.31 498.15 C 68.87 493.48 67.29 488.09 67.48 483.08 C 68.63 462.05 67.60 440.97 68.27 419.93 C 68.37 416.54 70.36 413.67 71.86 410.76 Z" data-index="16" style="opacity: 1;"></path>
</g>
<g id="#c51f2dff">
<path fill="#c51f2d" opacity="1.00" d=" M 283.91 407.60 C 295.61 407.51 307.32 407.58 319.02 407.57 C 322.12 407.47 325.18 408.40 327.71 410.19 C 332.68 413.15 334.58 418.92 337.21 423.74 C 342.67 434.62 348.99 445.05 353.94 456.17 C 356.01 460.09 358.44 463.81 360.18 467.90 C 363.76 476.05 369.30 483.19 372.51 491.53 C 365.06 492.72 357.50 492.10 350.00 492.06 C 342.39 491.88 334.78 492.16 327.18 491.89 C 323.92 486.62 321.11 481.10 318.54 475.47 C 314.67 466.60 309.24 458.53 305.25 449.72 C 302.43 443.39 298.69 437.55 295.63 431.34 C 291.67 423.46 286.78 415.99 283.91 407.60 Z" data-index="17"></path>
<path fill="#c51f2d" opacity="1.00" d=" M 896.63 508.22 C 901.02 507.22 905.54 507.64 910.01 507.62 C 919.45 507.62 928.89 507.61 938.33 507.58 C 942.58 508.89 946.92 510.73 949.88 514.21 C 952.52 517.30 954.42 520.95 956.41 524.50 C 955.17 532.95 956.21 541.50 955.87 550.00 C 956.01 579.66 955.78 609.32 955.94 638.99 C 955.90 664.99 955.67 690.99 956.02 716.99 C 955.70 740.66 955.90 764.33 955.87 788.00 C 955.85 846.66 955.89 905.32 955.87 963.99 C 955.79 967.94 956.09 972.04 954.72 975.84 C 953.73 978.64 952.87 981.48 952.14 984.36 C 948.26 989.19 942.66 992.85 936.37 993.32 C 925.26 992.55 914.13 993.21 903.01 992.79 C 905.96 985.02 911.18 977.71 910.74 969.05 C 910.87 823.68 910.78 678.32 910.68 532.96 C 910.25 524.86 907.77 517.05 905.62 509.28 C 902.61 509.00 899.60 508.72 896.63 508.22 Z" data-index="18"></path>
</g>
<g id="#852630ff">
<path fill="#852630" opacity="1.00" d=" M 64.67 423.30 C 65.53 418.49 67.09 413.07 71.86 410.76 C 70.36 413.67 68.37 416.54 68.27 419.93 C 67.60 440.97 68.63 462.05 67.48 483.08 C 67.29 488.09 68.87 493.48 66.31 498.15 C 63.88 503.84 58.06 507.32 52.14 508.33 C 51.64 508.23 50.66 508.03 50.17 507.93 C 49.63 507.77 48.54 507.46 47.99 507.31 C 51.87 505.76 56.37 505.54 59.62 502.68 C 62.41 500.66 64.56 497.59 64.46 494.02 C 64.65 480.67 64.45 467.31 64.50 453.96 C 64.54 448.94 65.77 444.01 65.60 438.98 C 65.53 433.74 63.88 428.55 64.67 423.30 Z" data-index="19"></path>
</g>
<g id="#161616ff">
<path fill="#161616" opacity="1.00" d=" M 36.33 429.00 C 36.38 425.12 36.01 421.18 36.86 417.35 C 39.52 422.51 38.64 428.43 38.75 434.01 C 38.54 449.19 39.46 464.39 38.56 479.56 C 38.26 485.26 38.72 491.04 37.35 496.64 C 35.95 493.61 36.34 490.22 36.31 487.00 C 36.38 467.67 36.31 448.34 36.33 429.00 Z" data-index="20"></path>
</g>
<g id="#fec6ccff">
<path fill="#fec6cc" opacity="1.00" d=" M 50.17 507.93 C 50.66 508.03 51.64 508.23 52.14 508.33 C 51.67 521.47 51.78 534.62 52.06 547.76 C 51.60 547.80 50.68 547.88 50.22 547.91 C 52.12 541.77 51.03 535.30 51.23 529.00 C 50.98 521.98 52.12 514.79 50.17 507.93 Z" data-index="21"></path>
</g>
<g id="#5c5c5cff">
<path fill="#5c5c5c" opacity="1.00" d=" M 984.26 514.78 C 986.21 514.90 986.81 517.26 986.30 518.86 C 984.16 518.91 983.73 516.38 984.26 514.78 Z" data-index="22"></path>
</g>
<g id="#131313ff">
<path fill="#131313" opacity="1.00" d=" M 986.18 519.72 C 987.58 522.96 987.59 526.52 987.61 530.00 C 987.72 676.34 987.60 822.68 987.67 969.02 C 987.77 972.15 987.41 975.28 986.48 978.29 C 984.10 965.34 985.24 952.12 985.56 939.06 C 985.06 927.39 984.96 915.70 985.04 904.03 C 985.03 852.35 985.15 800.67 985.03 749.00 C 985.41 732.97 984.33 716.92 985.52 700.92 C 985.51 694.60 984.62 688.30 985.00 681.97 C 985.05 635.31 985.07 588.63 985.00 541.97 C 985.67 534.56 985.29 527.10 986.18 519.72 Z" data-index="23"></path>
</g>
<g id="#7f1e2aff">
<path fill="#7f1e2a" opacity="1.00" d=" M 956.41 524.50 C 958.91 528.55 958.23 533.46 958.29 538.00 C 958.16 674.67 958.30 811.33 958.25 948.00 C 958.11 956.02 958.53 964.07 957.89 972.08 C 957.57 976.74 955.08 980.86 952.14 984.36 C 952.87 981.48 953.73 978.64 954.72 975.84 C 956.09 972.04 955.79 967.94 955.87 963.99 C 955.89 905.32 955.85 846.66 955.87 788.00 C 955.90 764.33 955.70 740.66 956.02 716.99 C 955.67 690.99 955.90 664.99 955.94 638.99 C 955.78 609.32 956.01 579.66 955.87 550.00 C 956.21 541.50 955.17 532.95 956.41 524.50 Z" data-index="24"></path>
</g>
<g id="#2f0203ff">
<path fill="#2f0203" opacity="1.00" d=" M 46.22 548.86 C 47.51 548.37 48.86 548.09 50.22 547.91 C 50.68 547.88 51.60 547.80 52.06 547.76 C 59.98 547.57 67.11 555.03 66.39 562.97 C 66.46 699.34 66.46 835.71 66.42 972.07 C 66.42 976.15 69.08 979.50 71.12 982.82 C 74.06 988.12 79.33 992.00 85.46 992.53 C 87.53 993.32 89.67 994.07 91.93 993.99 C 328.78 993.85 565.64 994.12 802.49 993.89 C 805.13 996.46 808.53 998.24 810.65 1001.34 C 812.48 1003.51 812.26 1006.51 812.36 1009.19 C 810.35 1004.70 808.08 999.91 803.59 997.42 C 799.64 994.59 794.58 995.09 790.00 995.10 C 739.34 994.94 688.68 995.11 638.01 995.09 C 579.67 994.74 521.34 995.35 463.00 994.99 C 430.00 995.20 397.00 994.95 364.00 995.02 C 275.66 995.19 187.32 994.95 98.98 995.09 C 91.74 995.13 84.11 995.44 77.31 992.56 C 72.09 989.28 67.18 984.63 65.52 978.50 C 63.68 972.84 64.40 966.83 64.34 961.00 C 64.35 829.00 64.35 697.00 64.34 565.00 C 64.10 561.91 64.67 558.15 62.12 555.84 C 60.14 553.84 58.13 551.79 55.68 550.37 C 52.65 549.31 49.39 549.19 46.22 548.86 Z" data-index="25"></path>
</g>
<g id="#151515ff">
<path fill="#151515" opacity="1.00" d=" M 36.35 562.92 C 36.23 560.45 37.09 558.11 38.07 555.90 C 39.10 568.24 38.82 580.63 38.86 593.01 C 38.88 698.33 38.94 803.67 38.85 909.00 C 38.46 932.41 40.04 955.92 37.64 979.25 C 36.98 976.56 36.23 973.85 36.36 971.05 C 36.39 835.01 36.36 698.96 36.35 562.92 Z" data-index="26"></path>
</g>
<g id="#be3e52ff">
<path fill="#be3e52" opacity="1.00" d=" M 85.46 992.53 C 92.59 991.23 99.82 992.46 107.00 992.13 C 332.00 992.11 557.00 992.11 782.00 992.15 C 788.42 992.44 794.89 991.60 801.28 992.51 C 801.58 992.85 802.19 993.54 802.49 993.89 C 565.64 994.12 328.78 993.85 91.93 993.99 C 89.67 994.07 87.53 993.32 85.46 992.53 Z" data-index="27" style="opacity: 1;"></path>
</g>
<g id="#bd7681ff">
<path fill="#bd7681" opacity="1.00" d=" M 814.51 1008.72 C 825.83 1008.41 837.17 1009.47 848.47 1008.49 C 850.18 1008.29 851.76 1009.02 853.30 1009.66 C 853.40 1011.17 853.56 1012.70 853.76 1014.24 C 852.61 1012.49 851.46 1009.96 848.97 1010.22 C 837.16 1009.86 825.34 1010.40 813.53 1010.06 C 813.78 1009.73 814.27 1009.06 814.51 1008.72 Z" data-index="28"></path>
</g>
<g id="#fcfcfdff">

</g>
<g id="#777777ff">
<path fill="#777777" opacity="1.00" d=" M 79.94 1022.35 C 80.71 1022.30 82.24 1022.20 83.01 1022.14 C 82.99 1022.61 82.97 1023.54 82.96 1024.00 L 80.11 1024.00 C 80.07 1023.59 79.99 1022.76 79.94 1022.35 Z" data-index="30"></path>
</g>
<g id="#2f2f2fff">
<path fill="#2f2f2f" opacity="1.00" d=" M 83.01 1022.14 C 84.67 1022.16 86.34 1022.14 88.01 1022.15 C 87.68 1022.61 87.00 1023.54 86.66 1024.00 L 82.96 1024.00 C 82.97 1023.54 82.99 1022.61 83.01 1022.14 Z" data-index="31"></path>
</g>
<g id="#2d2d2dff">
<path fill="#2d2d2d" opacity="1.00" d=" M 937.10 1024.00 C 934.63 1022.06 938.57 1020.87 939.94 1022.42 C 939.92 1022.81 939.86 1023.60 939.84 1024.00 L 937.10 1024.00 Z" data-index="32"></path>
</g>
<g id="#6c6c6cff">
<path fill="#6c6c6c" opacity="1.00" d=" M 939.94 1022.42 C 941.27 1021.94 942.64 1021.87 944.04 1022.19 C 943.71 1022.65 943.07 1023.55 942.74 1024.00 L 939.84 1024.00 C 939.86 1023.60 939.92 1022.81 939.94 1022.42 Z" data-index="33"></path>
</g>
</svg>